SplineFontDB: 3.2
FontName: ArundinaSans-BoldOblique
FullName: Arundina Sans Bold Oblique
FamilyName: Arundina Sans
Weight: Bold
Copyright: Copyright (c) 2003 by Bitstream, Inc. All Rights Reserved.\nCopyright (c) 2007 by Software Industry Promotion Agency (Public Organization). All Rights Reserved.
Version: 2.08
ItalicAngle: -11
UnderlinePosition: -153
UnderlineWidth: 102
Ascent: 1638
Descent: 410
InvalidEm: 0
LayerCount: 3
Layer: 0 0 "Back" 1
Layer: 1 1 "Fore" 0
Layer: 2 0 "Cube" 0
XUID: [1021 375 425136265 525174]
FSType: 0
OS2Version: 2
OS2_WeightWidthSlopeOnly: 0
OS2_UseTypoMetrics: 1
CreationTime: 1125072480
ModificationTime: 1770293703
PfmFamily: 33
TTFWeight: 700
TTFWidth: 5
LineGap: 0
VLineGap: 0
Panose: 2 11 3 0 2 2 2 2 2 4
OS2TypoAscent: 2488
OS2TypoAOffset: 0
OS2TypoDescent: -1067
OS2TypoDOffset: 0
OS2TypoLinegap: 0
OS2WinAscent: 0
OS2WinAOffset: 1
OS2WinDescent: 0
OS2WinDOffset: 1
HheadAscent: 0
HheadAOffset: 1
HheadDescent: 0
HheadDOffset: 1
OS2SubXSize: 1434
OS2SubYSize: 1331
OS2SubXOff: 0
OS2SubYOff: 287
OS2SupXSize: 1434
OS2SupYSize: 1331
OS2SupXOff: 0
OS2SupYOff: 977
OS2StrikeYSize: 102
OS2StrikeYPos: 512
OS2FamilyClass: 2063
OS2Vendor: 'BLWK'
Lookup: 4 0 0 "'frac' Diagonal Fractions in Latin lookup 0" { "'frac' Diagonal Fractions in Latin lookup 0 subtable"  } ['frac' ('latn' <'dflt' > ) ]
Lookup: 6 0 0 "'liga' Standard Ligatures in Latin lookup 1" { "'liga' Standard Ligatures in Latin lookup 1 subtable"  } ['liga' ('latn' <'dflt' > 'thai' <'dflt' > ) ]
Lookup: 6 0 0 "'liga' Standard Ligatures in Latin lookup 2" { "'liga' Standard Ligatures in Latin lookup 2 subtable"  } ['liga' ('latn' <'dflt' > 'thai' <'dflt' > ) ]
Lookup: 6 0 0 "'liga' Standard Ligatures in Latin lookup 3" { "'liga' Standard Ligatures in Latin lookup 3 subtable"  } ['liga' ('latn' <'dflt' > 'thai' <'dflt' > ) ]
Lookup: 6 0 0 "'liga' Standard Ligatures in Latin lookup 4 " { "'liga' Standard Ligatures in Latin lookup 4 subtable"  } ['liga' ('latn' <'dflt' > 'thai' <'dflt' > ) ]

StartChar: .notdef
Encoding: 389 -1 0
Width: 1222
VWidth: 3555
Flags: MW
HStem: -359 118<-14 779> 1319 113<292 1085>
DStem2: -149 -359 -36.9369 -359 0.190809 0.981627<141.591 1731.32> 756.063 -359 868 -359 0.190809 0.981627<120.209 1709.93>
LayerCount: 3
Fore
SplineSet
200 1432 m 1,0,-1
 1215 1432 l 1,1,-1
 868 -359 l 1,2,-1
 -149 -359 l 1,3,-1
 200 1432 l 1,0,-1
779 -241 m 1,4,-1
 1085 1319 l 1,5,-1
 292 1319 l 1,6,-1
 -14 -241 l 1,7,-1
 779 -241 l 1,4,-1
EndSplineSet
Layer: 2
SplineSet
200 1432 m 1
 1215 1432 l 1
 868 -359 l 1
 -149 -359 l 1
 200 1432 l 1
779 -241 m 1
 1085 1319 l 1
 292 1319 l 1
 -14 -241 l 1
 779 -241 l 1
EndSplineSet
EndChar

StartChar: exclam
Encoding: 2 33 4
Width: 927
VWidth: 3555
Flags: W
HStem: 0 356<174 465> 1463 20G<390.056 753>
VStem: 106 359<0 359> 174 359<-3 356> 394 359<1124 1483>
DStem2: 106 0 465 0 0.190809 0.981627<68.5004 362.434 926.672 1510.71>
LayerCount: 3
Fore
SplineSet
753 1483 m 1,0,-1
 641 910 l 1,1,-1
 509 502 l 1,2,-1
 255 502 l 1,3,-1
 281 910 l 1,4,-1
 394 1483 l 1,5,-1
 753 1483 l 1,0,-1
533 356 m 1,6,-1
 465 0 l 1,7,-1
 106 0 l 1,8,-1
 174 356 l 1,9,-1
 533 356 l 1,6,-1
EndSplineSet
Layer: 2
SplineSet
753 1483 m 1xc8
 641 910 l 1
 509 502 l 1
 255 502 l 1
 281 910 l 1
 394 1483 l 1
 753 1483 l 1xc8
533 356 m 1xd0
 465 0 l 1
 106 0 l 1xe0
 174 356 l 1
 533 356 l 1xd0
EndSplineSet
EndChar

StartChar: quotedbl
Encoding: 3 34 5
Width: 1058
VWidth: 3555
Flags: W
HStem: 932 551<540 669 978 1106>
VStem: 193 238<932 1170> 302 238<1245 1483> 628 240<932 1172> 740 237<1246 1483>
DStem2: 193 932 431 932 0.190809 0.981627<45.4125 561.675> 628 932 868 932 0.190809 0.981627<45.7942 562.247>
LayerCount: 3
Fore
SplineSet
868 932 m 1,0,-1
 628 932 l 1,1,-1
 740 1483 l 1,2,-1
 977 1483 l 1,3,-1
 868 932 l 1,0,-1
431 932 m 1,4,-1
 193 932 l 1,5,-1
 302 1483 l 1,6,-1
 540 1483 l 1,7,-1
 431 932 l 1,4,-1
EndSplineSet
Layer: 2
SplineSet
868 932 m 1x90
 628 932 l 1x90
 740 1483 l 1
 977 1483 l 1x88
 868 932 l 1x90
431 932 m 1xc0
 193 932 l 1xc0
 302 1483 l 1
 540 1483 l 1xa0
 431 932 l 1xc0
EndSplineSet
EndChar

StartChar: numbersign
Encoding: 4 35 6
Width: 1701
VWidth: 3555
Flags: W
HStem: 0 21G<139 367.947 625 853.684> 380 214<75 309 621 790 1106 1347> 868 214<281 519 842 1007 1319 1554>
DStem2: 139 0 359 0 0.40521 0.914224<89.1462 416.291 738.36 947.526 1274.05 1598.77> 625 0 845 0 0.404687 0.914455<89.0312 414.266 737.841 948.338 1270.29 1598.77>
LayerCount: 3
Fore
SplineSet
842 1082 m 1,0,-1
 1106 1082 l 1,1,-1
 1272 1462 l 1,2,-1
 1489 1462 l 1,3,-1
 1319 1082 l 1,4,-1
 1597 1082 l 1,5,-1
 1554 868 l 1,6,-1
 1227 868 l 1,7,-1
 1106 594 l 1,8,-1
 1391 594 l 1,9,-1
 1347 380 l 1,10,-1
 1010 380 l 1,11,-1
 845 0 l 1,12,-1
 625 0 l 1,13,-1
 790 380 l 1,14,-1
 529 380 l 1,15,-1
 359 0 l 1,16,-1
 139 0 l 1,17,-1
 309 380 l 1,18,-1
 31 380 l 1,19,-1
 75 594 l 1,20,-1
 398 594 l 1,21,-1
 519 868 l 1,22,-1
 238 868 l 1,23,-1
 281 1082 l 1,24,-1
 618 1082 l 1,25,-1
 786 1462 l 1,26,-1
 1007 1462 l 1,27,-1
 842 1082 l 1,0,-1
743 868 m 1,28,-1
 621 594 l 1,29,-1
 882 594 l 1,30,-1
 1007 868 l 1,31,-1
 743 868 l 1,28,-1
EndSplineSet
Layer: 2
SplineSet
842 1082 m 1
 1106 1082 l 1
 1272 1462 l 1
 1489 1462 l 1
 1319 1082 l 1
 1597 1082 l 1
 1554 868 l 1
 1227 868 l 1
 1106 594 l 1
 1391 594 l 1
 1347 380 l 1
 1010 380 l 1
 845 0 l 1
 625 0 l 1
 790 380 l 1
 529 380 l 1
 359 0 l 1
 139 0 l 1
 309 380 l 1
 31 380 l 1
 75 594 l 1
 398 594 l 1
 519 868 l 1
 238 868 l 1
 281 1082 l 1
 618 1082 l 1
 786 1462 l 1
 1007 1462 l 1
 842 1082 l 1
743 868 m 1
 621 594 l 1
 882 594 l 1
 1007 868 l 1
 743 868 l 1
EndSplineSet
EndChar

StartChar: dollar
Encoding: 5 36 7
Width: 1414
VWidth: 3555
Flags: W
HStem: 0 224<239.645 451 654 794.685> 1092 227<537.645 661 868 1067.12>
VStem: 151 325<735.5 1034.94> 391 159<-299 -140> 750 160<1387 1547> 854 327<283.125 604>
DStem2: 391 -299 550 -299 0.190809 0.981627<30.3386 304.955 570.445 847.816 1157.42 1413.04 1679.29 1880.58>
LayerCount: 3
Fore
SplineSet
391 -299 m 1,0,-1
 451 0 l 1,1,2
 232 5 232 5 0 92 c 1,3,-1
 50 352 l 1,4,5
 245 238 245 238 495 224 c 1,6,-1
 554 533 l 1,7,-1
 519 536 l 1,8,9
 290 583 290 583 220.5 654 c 128,-1,10
 151 725 151 725 151 839 c 259,11,12
 151 1062 151 1062 303 1185 c 128,-1,13
 455 1308 455 1308 705 1316 c 1,14,-1
 750 1547 l 1,15,-1
 910 1547 l 1,16,-1
 868 1319 l 1,17,18
 1069 1304 1069 1304 1252 1248 c 1,19,-1
 1201 998 l 1,20,21
 1003 1085 1003 1085 821 1092 c 1,22,-1
 767 807 l 1,23,-1
 797 804 l 1,24,25
 1042 761 1042 761 1111.5 689 c 128,-1,26
 1181 617 1181 617 1181 495 c 259,27,28
 1181 259 1181 259 1032.5 136 c 128,-1,29
 884 13 884 13 611 0 c 1,30,-1
 550 -299 l 1,31,-1
 391 -299 l 1,0,-1
661 1088 m 1,32,33
 584 1085 584 1085 530 1044.5 c 128,-1,34
 476 1004 476 1004 476 936 c 259,35,36
 476 844 476 844 611 832 c 1,37,-1
 661 1088 l 1,32,33
654 231 m 1,38,39
 854 231 854 231 854 404 c 259,40,41
 854 457 854 457 817.5 478.5 c 128,-1,42
 781 500 781 500 708 509 c 1,43,-1
 654 231 l 1,38,39
EndSplineSet
Layer: 2
SplineSet
391 -299 m 1xd4
 451 0 l 1
 279 4 131 43 0 92 c 1
 50 352 l 1
 175 279 319 234 495 224 c 1
 554 533 l 1
 519 536 l 1
 306 580 151 632 151 839 c 3
 151 1153 392 1306 705 1316 c 1
 750 1547 l 1
 910 1547 l 1xe8
 868 1319 l 1
 999 1309 1140 1282 1252 1248 c 1
 1201 998 l 1
 1089 1047 967 1086 821 1092 c 1
 767 807 l 1
 797 804 l 1
 1030 763 1181 713 1181 495 c 3
 1181 172 964 17 611 0 c 1
 550 -299 l 1
 391 -299 l 1xd4
661 1088 m 1
 566 1084 476 1032 476 936 c 3
 476 874 521 840 611 832 c 1
 661 1088 l 1
654 231 m 1
 781 231 854 288 854 404 c 3xc4
 854 481 793 499 708 509 c 1
 654 231 l 1
EndSplineSet
EndChar

StartChar: percent
Encoding: 6 37 8
Width: 2036
VWidth: 3555
Flags: W
HStem: -28 170<1333.64 1523.03> 611 168<1407.21 1601.54> 705 166<356.81 551.917> 1340 167<442.525 629.994>
VStem: 90 244<893.756 1214.81> 264 215<-28 187> 655 253<997.882 1317.49> 1057 252<164.467 487.794> 1486 220<1287 1507> 1624 255<265.261 591.79>
DStem2: 264 -28 479 -28 0.624385 0.781117<134.243 1962.01>
LayerCount: 3
Fore
SplineSet
1514 611 m 259,0,1
 1424 611 1424 611 1366.5 516.5 c 128,-1,2
 1309 422 1309 422 1309 282 c 259,3,4
 1309 142 1309 142 1422 142 c 259,5,6
 1521 142 1521 142 1572.5 246 c 128,-1,7
 1624 350 1624 350 1624 472 c 259,8,9
 1624 611 1624 611 1514 611 c 259,0,1
1391 -28 m 259,10,11
 1237 -28 1237 -28 1147 47.5 c 128,-1,12
 1057 123 1057 123 1057 268 c 259,13,14
 1057 490 1057 490 1194 634.5 c 128,-1,15
 1331 779 1331 779 1547 779 c 259,16,17
 1698 779 1698 779 1788.5 703 c 128,-1,18
 1879 627 1879 627 1879 486 c 259,19,20
 1879 261 1879 261 1743.5 116.5 c 128,-1,21
 1608 -28 1608 -28 1391 -28 c 259,10,11
264 -28 m 1,22,-1
 1486 1507 l 1,23,-1
 1706 1507 l 1,24,-1
 479 -28 l 1,25,-1
 264 -28 l 1,22,-1
420 705 m 259,26,27
 266 705 266 705 178 778.5 c 128,-1,28
 90 852 90 852 90 995 c 259,29,30
 90 1214 90 1214 229 1360.5 c 128,-1,31
 368 1507 368 1507 576 1507 c 259,32,33
 728 1507 728 1507 818 1433.5 c 128,-1,34
 908 1360 908 1360 908 1218 c 259,35,36
 908 990 908 990 773.5 847.5 c 128,-1,37
 639 705 639 705 420 705 c 259,26,27
655 1201 m 259,38,39
 655 1265 655 1265 626.5 1302.5 c 128,-1,40
 598 1340 598 1340 543 1340 c 259,41,42
 456 1340 456 1340 395 1244 c 128,-1,43
 334 1148 334 1148 334 1009 c 259,44,45
 334 871 334 871 451 871 c 259,46,47
 537 871 537 871 596 967 c 128,-1,48
 655 1063 655 1063 655 1201 c 259,38,39
EndSplineSet
Layer: 2
SplineSet
1514 611 m 3xd340
 1392 611 1309 466 1309 282 c 3
 1309 189 1347 142 1422 142 c 3
 1560 142 1624 320 1624 472 c 3
 1624 565 1587 611 1514 611 c 3xd340
1391 -28 m 259
 1191 -28 1057 70 1057 268 c 3
 1057 562 1258 779 1547 779 c 259
 1742 779 1879 679 1879 486 c 3
 1879 188 1683 -28 1391 -28 c 259
264 -28 m 1x9780
 1486 1507 l 1
 1706 1507 l 1
 479 -28 l 1
 264 -28 l 1x9780
420 705 m 259xbb
 221 705 90 799 90 995 c 3
 90 1274 283 1507 576 1507 c 259
 772 1507 908 1413 908 1218 c 3
 908 915 714 705 420 705 c 259xbb
655 1201 m 3
 655 1284 618 1340 543 1340 c 3
 427 1340 334 1194 334 1009 c 3
 334 917 373 871 451 871 c 3
 586 871 655 1049 655 1201 c 3
EndSplineSet
EndChar

StartChar: ampersand
Encoding: 7 38 9
Width: 1768
VWidth: 3555
Flags: W
HStem: -28 255<470.56 802.146> 0 21G<1073.28 1510> 1266 241<778.538 1159.06>
VStem: 25 354<319.201 576.597> 384 354<1013.04 1223.29> 1305 306<579 885>
DStem2: 804 981 559 740 0.58413 -0.81166<52.4981 547.526 825.489 962.131>
LayerCount: 3
Fore
SplineSet
929 1266 m 259,0,1
 848 1266 848 1266 793 1234 c 128,-1,2
 738 1202 738 1202 738 1138 c 259,3,4
 738 1082 738 1082 759 1048.5 c 128,-1,5
 780 1015 780 1015 804 981 c 2,6,-1
 1123 536 l 1,7,8
 1256 669 1256 669 1305 885 c 1,9,-1
 1611 885 l 1,10,11
 1517 536 1517 536 1279 316 c 1,12,-1
 1510 0 l 1,13,-1
 1088 0 l 1,14,-1
 1010 106 l 1,15,16
 891 41 891 41 776.5 6.5 c 128,-1,17
 662 -28 662 -28 523 -28 c 259,18,19
 284 -28 284 -28 154.5 75.5 c 128,-1,20
 25 179 25 179 25 359 c 259,21,22
 25 709 25 709 431 936 c 1,23,24
 384 1013 384 1013 384 1093 c 259,25,26
 384 1274 384 1274 534.5 1390.5 c 128,-1,27
 685 1507 685 1507 920 1507 c 259,28,29
 1077 1507 1077 1507 1302 1455 c 1,30,-1
 1248 1177 l 1,31,32
 1104 1266 1104 1266 929 1266 c 259,0,1
379 451 m 259,33,34
 379 351 379 351 447.5 289 c 128,-1,35
 516 227 516 227 618 227 c 259,36,37
 748 227 748 227 861 306 c 1,38,-1
 559 740 l 1,39,40
 471 680 471 680 425 612 c 128,-1,41
 379 544 379 544 379 451 c 259,33,34
EndSplineSet
Layer: 2
SplineSet
929 1266 m 3xbc
 831 1266 738 1229 738 1138 c 3
 738 1074 770 1030 804 981 c 2
 1123 536 l 1
 1211 624 1272 740 1305 885 c 1
 1611 885 l 1
 1548 652 1438 463 1279 316 c 1
 1510 0 l 1
 1088 0 l 1x7c
 1010 106 l 1
 869 29 722 -28 523 -28 c 3
 242 -28 25 92 25 359 c 3
 25 630 207 811 431 936 c 1
 400 987 384 1039 384 1093 c 3
 384 1363 640 1507 920 1507 c 3
 1056 1507 1181 1483 1302 1455 c 1
 1248 1177 l 1
 1159 1232 1056 1266 929 1266 c 3xbc
379 451 m 3
 379 315 485 227 618 227 c 3xbc
 716 227 801 264 861 306 c 1
 559 740 l 1
 451 666 379 582 379 451 c 3
EndSplineSet
EndChar

StartChar: quotesingle
Encoding: 8 39 10
Width: 618
VWidth: 3555
Flags: W
HStem: 932 551<302 431>
VStem: 193 238<932 1170> 302 238<1245 1483>
DStem2: 193 932 431 932 0.190809 0.981627<45.4125 561.675>
LayerCount: 3
Fore
SplineSet
431 932 m 1,0,-1
 193 932 l 1,1,-1
 302 1483 l 1,2,-1
 540 1483 l 1,3,-1
 431 932 l 1,0,-1
EndSplineSet
Layer: 2
SplineSet
431 932 m 1xc0
 193 932 l 1xc0
 302 1483 l 1
 540 1483 l 1xa0
 431 932 l 1xc0
EndSplineSet
EndChar

StartChar: parenleft
Encoding: 9 40 11
Width: 927
VWidth: 3555
Flags: W
VStem: 95 334<15.2727 706.525> 590 299<1244 1543>
LayerCount: 3
Fore
SplineSet
238 -271 m 1,0,1
 161 -85 161 -85 128 56 c 128,-1,2
 95 197 95 197 95 382 c 259,3,4
 95 739 95 739 242 1018 c 128,-1,5
 389 1297 389 1297 590 1543 c 1,6,-1
 889 1543 l 1,7,8
 624 1185 624 1185 526.5 901 c 128,-1,9
 429 617 429 617 429 335 c 259,10,11
 429 39 429 39 536 -271 c 1,12,-1
 238 -271 l 1,0,1
EndSplineSet
Layer: 2
SplineSet
238 -271 m 1
 144 -43 95 121 95 382 c 3
 95 868 331 1225 590 1543 c 1
 889 1543 l 1
 644 1213 429 836 429 335 c 3
 429 137 465 -65 536 -271 c 1
 238 -271 l 1
EndSplineSet
EndChar

StartChar: parenright
Encoding: 10 41 12
Width: 927
VWidth: 3555
Flags: W
VStem: -68 295<-271 24> 395 328<586.679 1263.42>
LayerCount: 3
Fore
SplineSet
-68 -271 m 1,0,1
 395 360 395 360 395 945 c 259,2,3
 395 1107 395 1107 368.5 1243 c 128,-1,4
 342 1379 342 1379 285 1543 c 1,5,-1
 580 1543 l 1,6,7
 656 1362 656 1362 689.5 1222.5 c 128,-1,8
 723 1083 723 1083 723 905 c 259,9,10
 723 570 723 570 580.5 281.5 c 128,-1,11
 438 -7 438 -7 227 -271 c 1,12,-1
 -68 -271 l 1,0,1
EndSplineSet
Layer: 2
SplineSet
-68 -271 m 1
 222 125 395 544 395 945 c 3
 395 1173 355 1340 285 1543 c 1
 580 1543 l 1
 672 1323 723 1158 723 905 c 3
 723 436 486 54 227 -271 c 1
 -68 -271 l 1
EndSplineSet
EndChar

StartChar: asterisk
Encoding: 11 42 13
Width: 1062
VWidth: 3555
Flags: W
HStem: 1487 20G<558.024 729>
VStem: 377 166<566 732> 562 167<1340 1507>
DStem2: 31 868 78 726 0.901495 0.432789<0 387.465 698.644 1094.62> 200 1347 99 1208 0.861853 -0.507159<0 325.433 602.088 923.414> 377 566 543 566 0.190809 0.981627<31.6743 343.593 647.093 959.011>
LayerCount: 3
Fore
SplineSet
715 1035 m 1,0,-1
 1014 868 l 1,1,-1
 906 726 l 1,2,-1
 611 903 l 1,3,-1
 543 566 l 1,4,-1
 377 566 l 1,5,-1
 444 903 l 1,6,-1
 78 726 l 1,7,-1
 31 868 l 1,8,-1
 394 1035 l 1,9,-1
 99 1208 l 1,10,-1
 200 1347 l 1,11,-1
 495 1170 l 1,12,-1
 562 1507 l 1,13,-1
 729 1507 l 1,14,-1
 661 1170 l 1,15,-1
 1028 1347 l 1,16,-1
 1082 1208 l 1,17,-1
 715 1035 l 1,0,-1
EndSplineSet
Layer: 2
SplineSet
715 1035 m 1
 1014 868 l 1
 906 726 l 1
 611 903 l 1
 543 566 l 1
 377 566 l 1
 444 903 l 1
 78 726 l 1
 31 868 l 1
 394 1035 l 1
 99 1208 l 1
 200 1347 l 1
 495 1170 l 1
 562 1507 l 1
 729 1507 l 1
 661 1170 l 1
 1028 1347 l 1
 1082 1208 l 1
 715 1035 l 1
EndSplineSet
EndChar

StartChar: plus
Encoding: 12 43 14
Width: 1701
VWidth: 3555
Flags: W
HStem: 0 21G<554 793.786> 523 230<181 654 936 1408>
VStem: 554 236<0 236> 800 235<1037 1272>
DStem2: 554 0 790 0 0.190809 0.981627<45.0309 532.472 812.054 1295.57>
LayerCount: 3
Fore
SplineSet
936 753 m 1,0,-1
 1455 753 l 1,1,-1
 1408 523 l 1,2,-1
 889 523 l 1,3,-1
 790 0 l 1,4,-1
 554 0 l 1,5,-1
 654 523 l 1,6,-1
 135 523 l 1,7,-1
 181 753 l 1,8,-1
 700 753 l 1,9,-1
 800 1272 l 1,10,-1
 1035 1272 l 1,11,-1
 936 753 l 1,0,-1
EndSplineSet
Layer: 2
SplineSet
936 753 m 1
 1455 753 l 1
 1408 523 l 1
 889 523 l 1
 790 0 l 1
 554 0 l 1
 654 523 l 1
 135 523 l 1
 181 753 l 1
 700 753 l 1
 800 1272 l 1
 1035 1272 l 1
 936 753 l 1
EndSplineSet
EndChar

StartChar: comma
Encoding: 13 44 15
Width: 770
VWidth: 3555
Flags: W
HStem: -288 672
VStem: -128 586
LayerCount: 3
Fore
SplineSet
458 384 m 1,0,-1
 401 82 l 1,1,-1
 82 -288 l 1,2,-1
 -128 -288 l 1,3,-1
 43 82 l 1,4,-1
 99 384 l 1,5,-1
 458 384 l 1,0,-1
EndSplineSet
Layer: 2
SplineSet
458 384 m 1
 401 82 l 1
 82 -288 l 1
 -128 -288 l 1
 43 82 l 1
 99 384 l 1
 458 384 l 1
EndSplineSet
EndChar

StartChar: hyphen
Encoding: 14 45 16
Width: 845
VWidth: 3555
Flags: W
HStem: 441 288<75 641>
VStem: 21 672
LayerCount: 3
Fore
SplineSet
693 729 m 1,0,-1
 641 441 l 1,1,-1
 21 441 l 1,2,-1
 75 729 l 1,3,-1
 693 729 l 1,0,-1
EndSplineSet
Layer: 2
SplineSet
693 729 m 1
 641 441 l 1
 21 441 l 1
 75 729 l 1
 693 729 l 1
EndSplineSet
EndChar

StartChar: period
Encoding: 15 46 17
Width: 770
VWidth: 3555
Flags: W
HStem: 0 384<99 387>
VStem: 28 359<0 359> 99 359<25 384>
LayerCount: 3
Fore
SplineSet
458 384 m 1,0,-1
 387 0 l 1,1,-1
 28 0 l 1,2,-1
 99 384 l 1,3,-1
 458 384 l 1,0,-1
EndSplineSet
Layer: 2
SplineSet
458 384 m 1xa0
 387 0 l 1
 28 0 l 1xc0
 99 384 l 1
 458 384 l 1xa0
EndSplineSet
EndChar

StartChar: slash
Encoding: 16 47 18
Width: 743
VWidth: 3555
Flags: W
HStem: 1463 20G<623.856 854>
DStem2: -214 -189 3 -189 0.453598 0.891206<98.4308 1874.75>
LayerCount: 3
Fore
SplineSet
854 1483 m 1,0,-1
 3 -189 l 1,1,-1
 -214 -189 l 1,2,-1
 634 1483 l 1,3,-1
 854 1483 l 1,0,-1
EndSplineSet
Layer: 2
SplineSet
854 1483 m 1
 3 -189 l 1
 -214 -189 l 1
 634 1483 l 1
 854 1483 l 1
EndSplineSet
EndChar

StartChar: zero
Encoding: 17 48 19
Width: 1414
VWidth: 3555
Flags: W
HStem: -28 259<461.026 688.94> 1245 262<655.579 883.7>
VStem: 35 377<280.782 805.719> 934 373<672.943 1196.68>
LayerCount: 3
Fore
SplineSet
412 442 m 259,0,1
 412 339 412 339 449 285 c 128,-1,2
 486 231 486 231 573 231 c 259,3,4
 743 231 743 231 838.5 497.5 c 128,-1,5
 934 764 934 764 934 1036 c 259,6,7
 934 1138 934 1138 896 1191.5 c 128,-1,8
 858 1245 858 1245 771 1245 c 259,9,10
 606 1245 606 1245 509 978.5 c 128,-1,11
 412 712 412 712 412 442 c 259,0,1
821 1507 m 259,12,13
 1062 1507 1062 1507 1184.5 1378 c 128,-1,14
 1307 1249 1307 1249 1307 1001 c 259,15,16
 1307 576 1307 576 1092.5 274 c 128,-1,17
 878 -28 878 -28 523 -28 c 256,18,19
 285 -28 285 -28 160 107 c 128,-1,20
 35 242 35 242 35 491 c 259,21,22
 35 913 35 913 250 1210 c 128,-1,23
 465 1507 465 1507 821 1507 c 259,12,13
EndSplineSet
Layer: 2
SplineSet
412 442 m 3
 412 312 452 231 573 231 c 259
 835 231 934 756 934 1036 c 3
 934 1166 892 1245 771 1245 c 259
 508 1245 412 705 412 442 c 3
821 1507 m 3
 1145 1507 1307 1329 1307 1001 c 3
 1307 492 1041 -28 523 -28 c 3
 203 -28 35 163 35 491 c 3
 35 1008 308 1507 821 1507 c 3
EndSplineSet
EndChar

StartChar: one
Encoding: 18 49 20
Width: 1414
VWidth: 3555
Flags: W
HStem: 0 264<106 448 807 1095> 1463 20G<582.278 1045>
DStem2: 396.684 0 755.684 0 0.190809 0.981627<337.442 1250.31>
LayerCount: 3
Fore
SplineSet
448 264 m 1,0,-1
 637 1227 l 1,1,-1
 271 1153 l 1,2,-1
 323 1411 l 1,3,-1
 682 1483 l 1,4,-1
 1045 1483 l 1,5,-1
 807 264 l 1,6,-1
 1144 264 l 1,7,-1
 1095 0 l 1,8,-1
 57 0 l 1,9,-1
 106 264 l 1,10,-1
 448 264 l 1,0,-1
EndSplineSet
Layer: 2
SplineSet
448 264 m 1
 637 1227 l 1
 271 1153 l 1
 323 1411 l 1
 682 1483 l 1
 1045 1483 l 1
 807 264 l 1
 1144 264 l 1
 1095 0 l 1
 57 0 l 1
 106 264 l 1
 448 264 l 1
EndSplineSet
EndChar

StartChar: two
Encoding: 19 50 21
Width: 1414
VWidth: 3555
Flags: W
HStem: 0 281<462 1059> 1245 262<414.451 801.211>
VStem: 870 399<955.702 1182.91>
DStem2: 35 281 462 281 0.801055 0.598591<342.051 1008.28>
LayerCount: 3
Fore
SplineSet
870 1067 m 259,0,1
 870 1153 870 1153 809 1199 c 128,-1,2
 748 1245 748 1245 651 1245 c 259,3,4
 447 1245 447 1245 196 1095 c 1,5,-1
 260 1422 l 1,6,7
 534 1507 534 1507 783 1507 c 259,8,9
 997 1507 997 1507 1133 1427 c 128,-1,10
 1269 1347 1269 1347 1269 1160 c 259,11,12
 1269 1028 1269 1028 1215 932.5 c 128,-1,13
 1161 837 1161 837 1071 756 c 128,-1,14
 981 675 981 675 828 559 c 2,15,-1
 462 281 l 1,16,-1
 1113 281 l 1,17,-1
 1059 0 l 1,18,-1
 -17 0 l 1,19,-1
 35 281 l 1,20,-1
 672 757 l 2,21,22
 750 816 750 816 810 903 c 128,-1,23
 870 990 870 990 870 1067 c 259,0,1
EndSplineSet
Layer: 2
SplineSet
870 1067 m 3
 870 1186 774 1245 651 1245 c 3
 480 1245 328 1174 196 1095 c 1
 260 1422 l 1
 444 1479 618 1507 783 1507 c 3
 1057 1507 1269 1415 1269 1160 c 3
 1269 885 1076 747 828 559 c 2
 462 281 l 1
 1113 281 l 1
 1059 0 l 1
 -17 0 l 1
 35 281 l 1
 672 757 l 2
 765 827 870 957 870 1067 c 3
EndSplineSet
EndChar

StartChar: three
Encoding: 20 51 22
Width: 1414
VWidth: 3555
Flags: W
HStem: -28 259<165.624 651.03> 641 244<380 711.893> 1245 262<366.229 822.089>
VStem: 778 386<342.795 580.696> 869 402<1012.16 1308.5>
LayerCount: 3
Fore
SplineSet
540 885 m 2,0,1
 869 885 869 885 869 1105 c 259,2,3
 869 1245 869 1245 637 1245 c 259,4,5
 459 1245 459 1245 245 1167 c 1,6,-1
 302 1448 l 1,7,8
 538 1507 538 1507 757 1507 c 259,9,10
 1271 1507 1271 1507 1271 1209 c 259,11,12
 1271 1042 1271 1042 1178.5 939.5 c 128,-1,13
 1086 837 1086 837 920 800 c 1,14,15
 1164 731 1164 731 1164 509 c 259,16,17
 1164 245 1164 245 953.5 108.5 c 128,-1,18
 743 -28 743 -28 404 -28 c 259,19,20
 154 -28 154 -28 -31 47 c 1,21,-1
 24 342 l 1,22,23
 210 231 210 231 424 231 c 259,24,25
 592 231 592 231 685 291.5 c 128,-1,26
 778 352 778 352 778 476 c 259,27,28
 778 574 778 574 695.5 607.5 c 128,-1,29
 613 641 613 641 484 641 c 2,30,-1
 330 641 l 1,31,-1
 380 885 l 1,32,-1
 540 885 l 2,0,1
EndSplineSet
Layer: 2
SplineSet
869 1105 m 3xe8
 869 1217 761 1245 637 1245 c 3
 492 1245 363 1210 245 1167 c 1
 302 1448 l 1
 458 1487 610 1507 757 1507 c 3
 1099 1507 1271 1408 1271 1209 c 3xe8
 1271 979 1133 847 920 800 c 1
 1083 754 1164 657 1164 509 c 3
 1164 129 815 -28 404 -28 c 3
 241 -28 90 -2 -31 47 c 1
 24 342 l 1
 148 268 281 231 424 231 c 3
 640 231 778 306 778 476 c 3xf0
 778 610 645 641 484 641 c 2
 330 641 l 1
 380 885 l 1
 540 885 l 2
 740 885 869 950 869 1105 c 3xe8
EndSplineSet
EndChar

StartChar: four
Encoding: 21 52 23
Width: 1414
VWidth: 3555
Flags: W
HStem: 0 21G<573 935.616> 271 272<252 621 1035 1191> 1463 20G<779.641 1219>
DStem2: 28 597 252 543 0.655482 0.755211<106.047 936.801> 573 0 932 0 0.190809 0.981627<68.5004 275.18 621.177 1191.25>
LayerCount: 3
Fore
SplineSet
252 543 m 1,0,-1
 675 543 l 1,1,-1
 797 1170 l 1,2,-1
 252 543 l 1,0,-1
1219 1483 m 1,3,-1
 1035 543 l 1,4,-1
 1245 543 l 1,5,-1
 1191 271 l 1,6,-1
 981 271 l 1,7,-1
 932 0 l 1,8,-1
 573 0 l 1,9,-1
 621 271 l 1,10,-1
 -35 271 l 1,11,-1
 28 597 l 1,12,-1
 797 1483 l 1,13,-1
 1219 1483 l 1,3,-1
EndSplineSet
Layer: 2
SplineSet
252 543 m 1
 675 543 l 1
 797 1170 l 1
 252 543 l 1
1219 1483 m 1
 1035 543 l 1
 1245 543 l 1
 1191 271 l 1
 981 271 l 1
 932 0 l 1
 573 0 l 1
 621 271 l 1
 -35 271 l 1
 28 597 l 1
 797 1483 l 1
 1219 1483 l 1
EndSplineSet
EndChar

StartChar: five
Encoding: 22 53 24
Width: 1414
VWidth: 3555
Flags: W
HStem: -28 259<237.635 641.124> 736 262<534.688 728.853> 1201 282<576 1219>
VStem: 809 388<387.095 662.444>
LayerCount: 3
Fore
SplineSet
809 541 m 259,0,1
 809 639 809 639 739.5 687.5 c 128,-1,2
 670 736 670 736 554 736 c 259,3,4
 382 736 382 736 160 648 c 1,5,-1
 323 1483 l 1,6,-1
 1276 1483 l 1,7,-1
 1219 1201 l 1,8,-1
 576 1201 l 1,9,-1
 533 970 l 1,10,11
 635 998 635 998 712 998 c 259,12,13
 933 998 933 998 1065 906 c 128,-1,14
 1197 814 1197 814 1197 613 c 259,15,16
 1197 319 1197 319 990 145.5 c 128,-1,17
 783 -28 783 -28 465 -28 c 256,18,19
 202 -28 202 -28 -10 71 c 1,20,-1
 50 370 l 1,21,22
 270 231 270 231 455 231 c 259,23,24
 609 231 609 231 709 314.5 c 128,-1,25
 809 398 809 398 809 541 c 259,0,1
EndSplineSet
Layer: 2
SplineSet
809 541 m 3
 809 678 701 736 554 736 c 3
 411 736 281 696 160 648 c 1
 323 1483 l 1
 1276 1483 l 1
 1219 1201 l 1
 576 1201 l 1
 533 970 l 1
 584 984 648 998 712 998 c 3
 999 998 1197 884 1197 613 c 3
 1197 219 884 -28 465 -28 c 3
 280 -28 127 7 -10 71 c 1
 50 370 l 1
 197 277 332 231 455 231 c 3
 654 231 809 345 809 541 c 3
EndSplineSet
EndChar

StartChar: six
Encoding: 23 54 25
Width: 1414
VWidth: 3555
Flags: W
HStem: -28 238<474.18 726.075> 733 244<582.294 938.961> 1255 252<730.767 1167.06>
VStem: 62 372<249.152 578.89> 857 377<380.6 697.114>
LayerCount: 3
Fore
SplineSet
700 733 m 259,0,1
 585 733 585 733 509.5 634.5 c 128,-1,2
 434 536 434 536 434 377 c 259,3,4
 434 210 434 210 597 210 c 259,5,6
 713 210 713 210 785 310.5 c 128,-1,7
 857 411 857 411 857 570 c 259,8,9
 857 733 857 733 700 733 c 259,0,1
547 -28 m 259,10,11
 313 -28 313 -28 187.5 102.5 c 128,-1,12
 62 233 62 233 62 475 c 259,13,14
 62 808 62 808 209.5 1064.5 c 128,-1,15
 357 1321 357 1321 548 1414 c 128,-1,16
 739 1507 739 1507 936 1507 c 259,17,18
 1121 1507 1121 1507 1312 1448 c 1,19,-1
 1255 1170 l 1,20,21
 1095 1255 1095 1255 936 1255 c 259,22,23
 582 1255 582 1255 488 882 c 1,24,25
 634 977 634 977 811 977 c 259,26,27
 1001 977 1001 977 1117.5 878 c 128,-1,28
 1234 779 1234 779 1234 601 c 259,29,30
 1234 428 1234 428 1143 283.5 c 128,-1,31
 1052 139 1052 139 894 55.5 c 128,-1,32
 736 -28 736 -28 547 -28 c 259,10,11
EndSplineSet
Layer: 2
SplineSet
700 733 m 3
 548 733 434 591 434 377 c 3
 434 266 488 210 597 210 c 3
 753 210 857 359 857 570 c 3
 857 679 804 733 700 733 c 3
547 -28 m 3
 234 -28 62 153 62 475 c 3
 62 1006 376 1507 936 1507 c 3
 1061 1507 1186 1487 1312 1448 c 1
 1255 1170 l 1
 1161 1220 1062 1255 936 1255 c 3
 701 1255 551 1131 488 882 c 1
 585 945 693 977 811 977 c 3
 1058 977 1234 844 1234 601 c 3
 1234 250 931 -28 547 -28 c 3
EndSplineSet
EndChar

StartChar: seven
Encoding: 24 55 26
Width: 1414
VWidth: 3555
Flags: W
HStem: 0 21G<125 510.97> 1201 282<248 906>
VStem: 125 373<0 373>
DStem2: 125 0 498 0 0.544103 0.839019<202.95 1432.61>
LayerCount: 3
Fore
SplineSet
1361 1483 m 1,0,-1
 1319 1266 l 1,1,-1
 498 0 l 1,2,-1
 125 0 l 1,3,-1
 906 1201 l 1,4,-1
 193 1201 l 1,5,-1
 248 1483 l 1,6,-1
 1361 1483 l 1,0,-1
EndSplineSet
Layer: 2
SplineSet
1361 1483 m 1
 1319 1266 l 1
 498 0 l 1
 125 0 l 1
 906 1201 l 1
 193 1201 l 1
 248 1483 l 1
 1361 1483 l 1
EndSplineSet
EndChar

StartChar: eight
Encoding: 25 56 27
Width: 1414
VWidth: 3555
Flags: W
HStem: -28 238<428.708 721.473> 661 238<576.739 793.848> 1266 241<628.084 897.372>
VStem: 17 367<252.273 529.661> 189 356<933.49 1186.72> 839 359<331.568 617.732> 929 374<1009.97 1235.55>
LayerCount: 3
Fore
SplineSet
839 502 m 259,0,1
 839 581 839 581 791.5 621 c 128,-1,2
 744 661 744 661 658 661 c 259,3,4
 533 661 533 661 458.5 580.5 c 128,-1,5
 384 500 384 500 384 370 c 259,6,7
 384 210 384 210 569 210 c 259,8,9
 692 210 692 210 765.5 287 c 128,-1,10
 839 364 839 364 839 502 c 259,0,1
404 790 m 1,11,12
 189 862 189 862 189 1050 c 259,13,14
 189 1278 189 1278 369 1392.5 c 128,-1,15
 549 1507 549 1507 821 1507 c 259,16,17
 1303 1507 1303 1507 1303 1212 c 259,18,19
 1303 892 1303 892 957 790 c 1,20,21
 1198 719 1198 719 1198 513 c 259,22,23
 1198 260 1198 260 1013.5 116 c 128,-1,24
 829 -28 829 -28 523 -28 c 259,25,26
 17 -28 17 -28 17 313 c 259,27,28
 17 504 17 504 119 622.5 c 128,-1,29
 221 741 221 741 404 790 c 1,11,12
774 1266 m 259,30,31
 667 1266 667 1266 606 1207 c 128,-1,32
 545 1148 545 1148 545 1037 c 259,33,34
 545 899 545 899 705 899 c 259,35,36
 809 899 809 899 869 964.5 c 128,-1,37
 929 1030 929 1030 929 1138 c 259,38,39
 929 1266 929 1266 774 1266 c 259,30,31
EndSplineSet
Layer: 2
SplineSet
839 502 m 3xf4
 839 610 769 661 658 661 c 259
 489 661 384 542 384 370 c 3
 384 263 446 210 569 210 c 259
 730 210 839 315 839 502 c 3xf4
404 790 m 1
 260 838 189 925 189 1050 c 3
 189 1365 473 1507 821 1507 c 3
 1083 1507 1303 1445 1303 1212 c 3xea
 1303 984 1174 854 957 790 c 1
 1117 743 1198 651 1198 513 c 3
 1198 170 924 -28 523 -28 c 259
 186 -28 17 86 17 313 c 3
 17 576 170 727 404 790 c 1
774 1266 m 3
 634 1266 545 1187 545 1037 c 3
 545 942 605 899 705 899 c 259
 845 899 929 996 929 1138 c 3
 929 1223 877 1266 774 1266 c 3
EndSplineSet
EndChar

StartChar: nine
Encoding: 26 57 28
Width: 1414
VWidth: 3555
Flags: W
HStem: -28 248<176.439 608.597> 502 244<517.638 766.581> 1266 241<611.991 864.844>
VStem: 103 377<783.075 1103.6> 906 372<898.975 1222.57>
LayerCount: 3
Fore
SplineSet
790 1507 m 259,0,1
 1028 1507 1028 1507 1153 1377 c 128,-1,2
 1278 1247 1278 1247 1278 1003 c 259,3,4
 1278 672 1278 672 1131.5 416 c 128,-1,5
 985 160 985 160 791.5 66 c 128,-1,6
 598 -28 598 -28 404 -28 c 259,7,8
 197 -28 197 -28 28 31 c 1,9,-1
 82 306 l 1,10,11
 252 220 252 220 404 220 c 259,12,13
 753 220 753 220 854 597 c 1,14,15
 729 502 729 502 529 502 c 259,16,17
 341 502 341 502 222 597.5 c 128,-1,18
 103 693 103 693 103 866 c 259,19,20
 103 1147 103 1147 300 1327 c 128,-1,21
 497 1507 497 1507 790 1507 c 259,0,1
641 746 m 259,22,23
 756 746 756 746 831 843.5 c 128,-1,24
 906 941 906 941 906 1099 c 259,25,26
 906 1266 906 1266 743 1266 c 259,27,28
 625 1266 625 1266 552.5 1167 c 128,-1,29
 480 1068 480 1068 480 909 c 259,30,31
 480 746 480 746 641 746 c 259,22,23
EndSplineSet
Layer: 2
SplineSet
790 1507 m 3
 1108 1507 1278 1327 1278 1003 c 3
 1278 474 964 -28 404 -28 c 3
 265 -28 140 -8 28 31 c 1
 82 306 l 1
 195 249 303 220 404 220 c 3
 637 220 787 346 854 597 c 1
 771 534 664 502 529 502 c 3
 288 502 103 628 103 866 c 3
 103 1252 407 1507 790 1507 c 3
641 746 m 259
 793 746 906 886 906 1099 c 3
 906 1210 852 1266 743 1266 c 259
 586 1266 480 1121 480 909 c 3
 480 800 533 746 641 746 c 259
EndSplineSet
EndChar

StartChar: colon
Encoding: 27 58 29
Width: 812
VWidth: 3555
Flags: W
HStem: 0 384<122 410> 729 384<264 547>
VStem: 50 360<0 360> 122 357<27 384> 189 358<729 1087> 264 357<756 1113>
DStem2: 50 0 410 0 0.190809 0.981627<68.6912 390.683 810.438 1133.38>
LayerCount: 3
Fore
SplineSet
621 1113 m 1,0,-1
 547 729 l 1,1,-1
 189 729 l 1,2,-1
 264 1113 l 1,3,-1
 621 1113 l 1,0,-1
479 384 m 1,4,-1
 410 0 l 1,5,-1
 50 0 l 1,6,-1
 122 384 l 1,7,-1
 479 384 l 1,4,-1
EndSplineSet
Layer: 2
SplineSet
621 1113 m 1xc4
 547 729 l 1
 189 729 l 1xc8
 264 1113 l 1
 621 1113 l 1xc4
479 384 m 1xd0
 410 0 l 1
 50 0 l 1xe0
 122 384 l 1
 479 384 l 1xd0
EndSplineSet
EndChar

StartChar: semicolon
Encoding: 28 59 30
Width: 812
VWidth: 3555
Flags: W
HStem: 729 384<264 547>
VStem: 189 358<729 1087> 264 357<756 1113>
DStem2: -8.62357 -288 348.376 -288 0.190809 0.981627<445.751 684.578 1104.33 1427.28>
LayerCount: 3
Fore
SplineSet
479 384 m 1,0,-1
 424 82 l 1,1,-1
 106 -288 l 1,2,-1
 -102 -288 l 1,3,-1
 64 82 l 1,4,-1
 122 384 l 1,5,-1
 479 384 l 1,0,-1
621 1113 m 1,6,-1
 547 729 l 1,7,-1
 189 729 l 1,8,-1
 264 1113 l 1,9,-1
 621 1113 l 1,6,-1
EndSplineSet
Layer: 2
SplineSet
479 384 m 1x80
 424 82 l 1
 106 -288 l 1
 -102 -288 l 1
 64 82 l 1
 122 384 l 1
 479 384 l 1x80
621 1113 m 1xa0
 547 729 l 1
 189 729 l 1xc0
 264 1113 l 1
 621 1113 l 1xa0
EndSplineSet
EndChar

StartChar: less
Encoding: 29 60 31
Width: 1701
VWidth: 3555
Flags: W
HStem: 1195 20G<1484.04 1539.03>
DStem2: 472 637 135 523 0.932388 -0.361458<0 951.333> 181 753 472 637 0.947001 0.32123<238.315 1309.92>
LayerCount: 3
Fore
SplineSet
472 637 m 1,0,-1
 1364 306 l 1,1,-1
 1319 64 l 1,2,-1
 135 523 l 1,3,-1
 181 753 l 1,4,-1
 1543 1215 l 1,5,-1
 1493 963 l 1,6,-1
 472 637 l 1,0,-1
EndSplineSet
Layer: 2
SplineSet
472 637 m 1
 1364 306 l 1
 1319 64 l 1
 135 523 l 1
 181 753 l 1
 1543 1215 l 1
 1493 963 l 1
 472 637 l 1
EndSplineSet
EndChar

StartChar: equal
Encoding: 30 61 32
Width: 1701
VWidth: 3555
Flags: W
HStem: 292 237<135 1361> 746 231<224 1451>
LayerCount: 3
Fore
SplineSet
1496 977 m 1,0,-1
 1451 746 l 1,1,-1
 177 746 l 1,2,-1
 224 977 l 1,3,-1
 1496 977 l 1,0,-1
1408 529 m 1,4,-1
 1361 292 l 1,5,-1
 89 292 l 1,6,-1
 135 529 l 1,7,-1
 1408 529 l 1,4,-1
EndSplineSet
Layer: 2
SplineSet
1496 977 m 1
 1451 746 l 1
 177 746 l 1
 224 977 l 1
 1496 977 l 1
1408 529 m 1
 1361 292 l 1
 89 292 l 1
 135 529 l 1
 1408 529 l 1
EndSplineSet
EndChar

StartChar: greater
Encoding: 31 62 33
Width: 1701
VWidth: 3555
Flags: W
HStem: 1195 20G<266.952 322.255>
DStem2: 92 306 47 64 0.947563 0.319568<0 1076.08>
LayerCount: 3
Fore
SplineSet
271 1215 m 1,0,-1
 1455 753 l 1,1,-1
 1408 523 l 1,2,-1
 47 64 l 1,3,-1
 92 306 l 1,4,-1
 1116 637 l 1,5,-1
 220 963 l 1,6,-1
 271 1215 l 1,0,-1
EndSplineSet
Layer: 2
SplineSet
271 1215 m 1
 1455 753 l 1
 1408 523 l 1
 47 64 l 1
 92 306 l 1
 1116 637 l 1
 220 963 l 1
 271 1215 l 1
EndSplineSet
EndChar

StartChar: question
Encoding: 32 63 34
Width: 1178
VWidth: 3555
Flags: W
HStem: 0 356<234 526> 1116 21G<184.689 236> 1245 262<358.273 703.209>
VStem: 167 359<0 359> 234 360<-4 356> 730 365<1019.92 1313.83>
DStem2: 505 858 849 783 0.796162 0.605083<-74.5022 300.676>
LayerCount: 3
Fore
SplineSet
730 1133 m 259,0,1
 730 1190 730 1190 687.5 1217.5 c 128,-1,2
 645 1245 645 1245 576 1245 c 259,3,4
 384 1245 384 1245 181 1116 c 1,5,-1
 238 1425 l 1,6,7
 358 1466 358 1466 454 1486.5 c 128,-1,8
 550 1507 550 1507 661 1507 c 259,9,10
 1095 1507 1095 1507 1095 1217 c 259,11,12
 1095 969 1095 969 849 783 c 2,13,-1
 774 726 l 2,14,15
 701 671 701 671 669.5 634 c 128,-1,16
 638 597 638 597 628 540 c 2,17,-1
 621 502 l 1,18,-1
 264 502 l 1,19,-1
 271 543 l 2,20,21
 288 638 288 638 349 713.5 c 128,-1,22
 410 789 410 789 505 858 c 2,23,-1
 576 910 l 2,24,25
 730 1022 730 1022 730 1133 c 259,0,1
594 356 m 1,26,-1
 526 0 l 1,27,-1
 167 0 l 1,28,-1
 234 356 l 1,29,-1
 594 356 l 1,26,-1
EndSplineSet
Layer: 2
SplineSet
730 1133 m 3xe4
 730 1214 661 1245 576 1245 c 259
 425 1245 291 1186 181 1116 c 1
 238 1425 l 1
 378 1473 501 1507 661 1507 c 3
 950 1507 1095 1410 1095 1217 c 3
 1095 1024 987 887 849 783 c 2
 774 726 l 2
 687 660 643 621 628 540 c 2
 621 502 l 1
 264 502 l 1
 271 543 l 2
 295 681 396 779 505 858 c 2
 576 910 l 2
 672 980 730 1062 730 1133 c 3xe4
594 356 m 1xec
 526 0 l 1
 167 0 l 1xf4
 234 356 l 1
 594 356 l 1xec
EndSplineSet
EndChar

StartChar: at
Encoding: 33 64 35
Width: 2032
VWidth: 3555
Flags: W
HStem: -356 189<562.143 1064.19> 85 189<783.555 987.259 1316 1398.37> 797 180<865.748 1100.82> 1241 188<843.704 1353.18>
VStem: 39 189<167.195 626.208> 506 235<315.5 642.668> 1660 193<532.979 960.98>
DStem2: 964.196 -356 1193.54 -356 0.190809 0.981627<721.848 987.679 1214.03 1344.64>
LayerCount: 3
Fore
SplineSet
991 797 m 259,0,1
 877 797 877 797 809 692 c 128,-1,2
 741 587 741 587 741 449 c 259,3,4
 741 370 741 370 779.5 322 c 128,-1,5
 818 274 818 274 889 274 c 259,6,7
 986 274 986 274 1050.5 350.5 c 128,-1,8
 1115 427 1115 427 1137 533 c 256,9,10
 1146 578 1146 578 1146 616 c 259,11,12
 1146 699 1146 699 1106 748 c 128,-1,13
 1066 797 1066 797 991 797 c 259,0,1
814 -167 m 259,14,15
 952 -167 952 -167 1085.5 -118.5 c 128,-1,16
 1219 -70 1219 -70 1316 3 c 1,17,-1
 1391 -156 l 1,18,19
 1073 -356 1073 -356 783 -356 c 259,20,21
 460 -356 460 -356 249.5 -161.5 c 128,-1,22
 39 33 39 33 39 343 c 259,23,24
 39 781 39 781 374.5 1105 c 128,-1,25
 710 1429 710 1429 1130 1429 c 259,26,27
 1458 1429 1458 1429 1655.5 1252.5 c 128,-1,28
 1853 1076 1853 1076 1853 800 c 259,29,30
 1853 484 1853 484 1654 283 c 128,-1,31
 1455 82 1455 82 1106 82 c 2,32,-1
 1069 82 l 1,33,-1
 1099 234 l 1,34,35
 994 85 994 85 818 85 c 259,36,37
 678 85 678 85 592 175 c 128,-1,38
 506 265 506 265 506 411 c 259,39,40
 506 621 506 621 639 799 c 128,-1,41
 772 977 772 977 991 977 c 259,42,43
 1081 977 1081 977 1139 939.5 c 128,-1,44
 1197 902 1197 902 1215 832 c 1,45,-1
 1241 960 l 1,46,-1
 1451 960 l 1,47,-1
 1316 274 l 1,48,49
 1483 299 1483 299 1571.5 446 c 128,-1,50
 1660 593 1660 593 1660 755 c 259,51,52
 1660 960 1660 960 1515 1100.5 c 128,-1,53
 1370 1241 1370 1241 1106 1241 c 259,54,55
 752 1241 752 1241 490 985.5 c 128,-1,56
 228 730 228 730 228 400 c 259,57,58
 228 142 228 142 389 -12.5 c 128,-1,59
 550 -167 550 -167 814 -167 c 259,14,15
EndSplineSet
Layer: 2
SplineSet
991 797 m 259
 830 797 741 620 741 449 c 3
 741 346 792 274 889 274 c 259
 1028 274 1111 407 1137 533 c 0
 1143 563 1146 591 1146 616 c 3
 1146 724 1093 797 991 797 c 259
814 -167 m 3
 1009 -167 1197 -86 1316 3 c 1
 1391 -156 l 1
 1227 -259 1024 -356 783 -356 c 3
 376 -356 39 -95 39 343 c 3
 39 922 556 1429 1130 1429 c 3
 1533 1429 1853 1199 1853 800 c 3
 1853 353 1551 82 1106 82 c 2
 1069 82 l 1
 1099 234 l 1
 1042 153 950 85 818 85 c 3
 631 85 506 216 506 411 c 3
 506 708 707 977 991 977 c 3
 1111 977 1191 925 1215 832 c 1
 1241 960 l 1
 1451 960 l 1
 1316 274 l 1
 1521 304 1660 514 1660 755 c 3
 1660 1070 1416 1241 1106 1241 c 3
 624 1241 228 834 228 400 c 3
 228 54 463 -167 814 -167 c 3
EndSplineSet
EndChar

StartChar: A
Encoding: 34 65 36
Width: 1574
VWidth: 3555
Flags: W
HStem: 0 21G<-167 224.996 999.827 1387> 271 269<509 913> 1463 20G<656.739 1126.56>
DStem2: 1123 1483 832 1134 0.175262 -0.984522<292.597 891.599 1164.67 1404.99> 1387 0 913 540 0.175262 -0.984522<-1213.72 -614.716 -341.642 -67.3007>
LayerCount: 3
Fore
SplineSet
363 271 m 1,0,-1
 214 0 l 1,1,-1
 -167 0 l 1,2,-1
 668 1483 l 1,3,-1
 1123 1483 l 1,4,-1
 1387 0 l 1,5,-1
 1003 0 l 1,6,-1
 960 271 l 1,7,-1
 363 271 l 1,0,-1
913 540 m 1,8,-1
 832 1134 l 1,9,-1
 509 540 l 1,10,-1
 913 540 l 1,8,-1
EndSplineSet
Layer: 2
SplineSet
363 271 m 1
 214 0 l 1
 -167 0 l 1
 668 1483 l 1
 1123 1483 l 1
 1387 0 l 1
 1003 0 l 1
 960 271 l 1
 363 271 l 1
913 540 m 1
 832 1134 l 1
 509 540 l 1
 913 540 l 1
EndSplineSet
EndChar

StartChar: B
Encoding: 35 66 37
Width: 1548
VWidth: 3555
Flags: W
HStem: 0 260<441 833.106> 648 258<566 897.091> 1227 256<628 970.902>
VStem: 937 382<360.959 605.952> 995 391<979.28 1199.19>
DStem2: 7 0 390.461 0 0.190809 0.981627<338.034 733.216 996.016 1322.95>
LayerCount: 3
Fore
SplineSet
779 906 m 2,0,1
 881 906 881 906 938 957.5 c 128,-1,2
 995 1009 995 1009 995 1106 c 259,3,4
 995 1227 995 1227 842 1227 c 2,5,-1
 628 1227 l 1,6,-1
 566 906 l 1,7,-1
 779 906 l 2,0,1
665 260 m 2,8,9
 790 260 790 260 863.5 323.5 c 128,-1,10
 937 387 937 387 937 506 c 259,11,12
 937 648 937 648 740 648 c 2,13,-1
 516 648 l 1,14,-1
 441 260 l 1,15,-1
 665 260 l 2,8,9
1319 522 m 259,16,17
 1319 252 1319 252 1130.5 126 c 128,-1,18
 942 0 942 0 644 0 c 2,19,-1
 7 0 l 1,20,-1
 295 1483 l 1,21,-1
 871 1483 l 2,22,23
 1182 1483 1182 1483 1284 1411.5 c 128,-1,24
 1386 1340 1386 1340 1386 1186 c 259,25,26
 1386 896 1386 896 1127 793 c 1,27,28
 1216 764 1216 764 1267.5 695.5 c 128,-1,29
 1319 627 1319 627 1319 522 c 259,16,17
EndSplineSet
Layer: 2
SplineSet
779 906 m 2xe8
 912 906 995 974 995 1106 c 259
 995 1187 944 1227 842 1227 c 2
 628 1227 l 1
 566 906 l 1
 779 906 l 2xe8
665 260 m 2
 828 260 937 344 937 506 c 259xf0
 937 601 871 648 740 648 c 2
 516 648 l 1
 441 260 l 1
 665 260 l 2
1319 522 m 259
 1319 154 1029 0 644 0 c 2
 7 0 l 1
 295 1483 l 1
 871 1483 l 2
 1189 1483 1386 1442 1386 1186 c 259xe8
 1386 993 1300 862 1127 793 c 1
 1240 756 1319 668 1319 522 c 259
EndSplineSet
EndChar

StartChar: C
Encoding: 36 67 38
Width: 1492
VWidth: 3555
Flags: W
HStem: -28 273<609.108 1023.09> 1234 273<785.159 1234.95>
VStem: 44 403<412.388 855.546>
LayerCount: 3
Fore
SplineSet
447 600 m 259,0,1
 447 432 447 432 542 338.5 c 128,-1,2
 637 245 637 245 804 245 c 259,3,4
 937 245 937 245 1038.5 280 c 128,-1,5
 1140 315 1140 315 1259 387 c 1,6,-1
 1198 82 l 1,7,8
 966 -28 966 -28 719 -28 c 259,9,10
 413 -28 413 -28 228.5 116.5 c 128,-1,11
 44 261 44 261 44 553 c 259,12,13
 44 974 44 974 319 1240.5 c 128,-1,14
 594 1507 594 1507 1017 1507 c 259,15,16
 1265 1507 1265 1507 1455 1397 c 1,17,-1
 1394 1092 l 1,18,19
 1307 1163 1307 1163 1214 1198.5 c 128,-1,20
 1121 1234 1121 1234 995 1234 c 259,21,22
 754 1234 754 1234 600.5 1050.5 c 128,-1,23
 447 867 447 867 447 600 c 259,0,1
EndSplineSet
Layer: 2
SplineSet
447 600 m 3
 447 375 583 245 804 245 c 3
 996 245 1120 303 1259 387 c 1
 1198 82 l 1
 1044 9 884 -28 719 -28 c 3
 319 -28 44 157 44 553 c 3
 44 1121 455 1507 1017 1507 c 3
 1183 1507 1329 1470 1455 1397 c 1
 1394 1092 l 1
 1286 1180 1173 1234 995 1234 c 3
 660 1234 447 946 447 600 c 3
EndSplineSet
EndChar

StartChar: D
Encoding: 37 68 39
Width: 1687
VWidth: 3555
Flags: W
HStem: 0 288<444 828.883> 1194 289<621 988.758>
VStem: 1165 400<644.756 1041.01>
DStem2: 7 0 388.018 0 0.190809 0.981627<366.092 1289.22>
LayerCount: 3
Fore
SplineSet
1165 864 m 259,0,1
 1165 1194 1165 1194 760 1194 c 2,2,-1
 621 1194 l 1,3,-1
 444 288 l 1,4,-1
 583 288 l 2,5,6
 824 288 824 288 967 406.5 c 128,-1,7
 1110 525 1110 525 1153 743 c 256,8,9
 1165 809 1165 809 1165 864 c 259,0,1
700 1483 m 2,10,11
 1170 1483 1170 1483 1367.5 1348.5 c 128,-1,12
 1565 1214 1565 1214 1565 915 c 259,13,14
 1565 834 1565 834 1547 743 c 256,15,16
 1471 352 1471 352 1193.5 176 c 128,-1,17
 916 0 916 0 413 0 c 2,18,-1
 7 0 l 1,19,-1
 295 1483 l 1,20,-1
 700 1483 l 2,10,11
EndSplineSet
Layer: 2
SplineSet
1165 864 m 3
 1165 1100 1009 1194 760 1194 c 2
 621 1194 l 1
 444 288 l 1
 583 288 l 2
 912 288 1097 460 1153 743 c 256
 1161 787 1165 827 1165 864 c 3
700 1483 m 2
 1207 1483 1565 1382 1565 915 c 3
 1565 861 1559 804 1547 743 c 0
 1444 213 1071 0 413 0 c 2
 7 0 l 1
 295 1483 l 1
 700 1483 l 2
EndSplineSet
EndChar

StartChar: E
Encoding: 38 69 40
Width: 1385
VWidth: 3555
Flags: W
HStem: 0 288<444 1059> 628 285<566 1123> 1194 289<621 1276>
DStem2: 7 0 388.018 0 0.190809 0.981627<366.092 712.82 1002.89 1289.22>
LayerCount: 3
Fore
SplineSet
1333 1483 m 1,0,-1
 1276 1194 l 1,1,-1
 621 1194 l 1,2,-1
 566 913 l 1,3,-1
 1177 913 l 1,4,-1
 1123 628 l 1,5,-1
 512 628 l 1,6,-1
 444 288 l 1,7,-1
 1113 288 l 1,8,-1
 1059 0 l 1,9,-1
 7 0 l 1,10,-1
 295 1483 l 1,11,-1
 1333 1483 l 1,0,-1
EndSplineSet
Layer: 2
SplineSet
1333 1483 m 1
 1276 1194 l 1
 621 1194 l 1
 566 913 l 1
 1177 913 l 1
 1123 628 l 1
 512 628 l 1
 444 288 l 1
 1113 288 l 1
 1059 0 l 1
 7 0 l 1
 295 1483 l 1
 1333 1483 l 1
EndSplineSet
EndChar

StartChar: F
Encoding: 39 70 41
Width: 1385
VWidth: 3555
Flags: W
HStem: 0 21G<7 394.854> 628 285<566 1123> 1194 289<621 1276>
VStem: 7 384<0 384>
DStem2: 7 0 391 0 0.190809 0.981627<73.2707 712.82 1002.89 1289.22>
LayerCount: 3
Fore
SplineSet
1333 1483 m 1,0,-1
 1276 1194 l 1,1,-1
 621 1194 l 1,2,-1
 566 913 l 1,3,-1
 1177 913 l 1,4,-1
 1123 628 l 1,5,-1
 512 628 l 1,6,-1
 391 0 l 1,7,-1
 7 0 l 1,8,-1
 295 1483 l 1,9,-1
 1333 1483 l 1,0,-1
EndSplineSet
Layer: 2
SplineSet
1333 1483 m 1
 1276 1194 l 1
 621 1194 l 1
 566 913 l 1
 1177 913 l 1
 1123 628 l 1
 512 628 l 1
 391 0 l 1
 7 0 l 1
 295 1483 l 1
 1333 1483 l 1
EndSplineSet
EndChar

StartChar: G
Encoding: 40 71 42
Width: 1670
VWidth: 3555
Flags: W
HStem: -28 273<612.208 1032.53> 566 259<906 1088> 1234 273<802.91 1296.23>
VStem: 44 403<409.893 854.652>
LayerCount: 3
Fore
SplineSet
447 598 m 259,0,1
 447 425 447 425 545 335 c 128,-1,2
 643 245 643 245 821 245 c 259,3,4
 944 245 944 245 1035 281 c 1,5,-1
 1088 566 l 1,6,-1
 854 566 l 1,7,-1
 906 825 l 1,8,-1
 1503 825 l 1,9,-1
 1364 115 l 1,10,11
 1043 -28 1043 -28 719 -28 c 259,12,13
 413 -28 413 -28 228.5 116.5 c 128,-1,14
 44 261 44 261 44 553 c 259,15,16
 44 978 44 978 322 1242.5 c 128,-1,17
 600 1507 600 1507 1038 1507 c 259,18,19
 1339 1507 1339 1507 1557 1397 c 1,20,-1
 1496 1092 l 1,21,22
 1276 1234 1276 1234 1031 1234 c 259,23,24
 759 1234 759 1234 603 1052 c 128,-1,25
 447 870 447 870 447 598 c 259,0,1
EndSplineSet
Layer: 2
SplineSet
447 598 m 3
 447 365 586 245 821 245 c 3
 902 245 974 257 1035 281 c 1
 1088 566 l 1
 854 566 l 1
 906 825 l 1
 1503 825 l 1
 1364 115 l 1
 1151 20 936 -28 719 -28 c 3
 319.27337906 -28 44 157.206344606 44 553 c 3
 44 1132.57020916 460.560025998 1507 1038 1507 c 3
 1239 1507 1412 1470 1557 1397 c 1
 1496 1092 l 1
 1349 1187 1194 1234 1031 1234 c 3
 670.399506551 1234 447 967 447 598 c 3
EndSplineSet
EndChar

StartChar: H
Encoding: 41 72 43
Width: 1697
VWidth: 3555
Flags: W
HStem: 0 21G<7 394.854 957 1343.88> 628 285<566 1078> 1463 20G<291.116 679 1240.96 1628>
VStem: 7 384<0 384> 295 384<1099 1483> 957 383<0 383> 1245 383<1100 1483>
DStem2: 7 0 391 0 0.190809 0.981627<73.2707 712.82 1002.89 1510.71> 957 0 1340 0 0.190809 0.981627<73.0798 639.55 929.236 1510.71>
LayerCount: 3
Fore
SplineSet
679 1483 m 1,0,-1
 566 913 l 1,1,-1
 1130 913 l 1,2,-1
 1245 1483 l 1,3,-1
 1628 1483 l 1,4,-1
 1340 0 l 1,5,-1
 957 0 l 1,6,-1
 1078 628 l 1,7,-1
 512 628 l 1,8,-1
 391 0 l 1,9,-1
 7 0 l 1,10,-1
 295 1483 l 1,11,-1
 679 1483 l 1,0,-1
EndSplineSet
Layer: 2
SplineSet
679 1483 m 1xe8
 566 913 l 1
 1130 913 l 1
 1245 1483 l 1
 1628 1483 l 1xea
 1340 0 l 1
 957 0 l 1
 1078 628 l 1
 512 628 l 1
 391 0 l 1
 7 0 l 1xf4
 295 1483 l 1
 679 1483 l 1xe8
EndSplineSet
EndChar

StartChar: I
Encoding: 42 73 44
Width: 756
VWidth: 3555
Flags: W
HStem: 0 21G<7 394.884> 1463 20G<291.116 679>
VStem: 7 384<0 384> 295 384<1099 1483>
DStem2: 7 0 391 0 0.190809 0.981627<73.2707 1510.71>
LayerCount: 3
Fore
SplineSet
679 1483 m 1,0,-1
 391 0 l 1,1,-1
 7 0 l 1,2,-1
 295 1483 l 1,3,-1
 679 1483 l 1,0,-1
EndSplineSet
Layer: 2
SplineSet
679 1483 m 1xd0
 391 0 l 1
 7 0 l 1xe0
 295 1483 l 1
 679 1483 l 1xd0
EndSplineSet
EndChar

StartChar: J
Encoding: 43 74 45
Width: 756
VWidth: 3555
Flags: W
HStem: -410 288<-316 -101.909> 1463 20G<291.051 679>
VStem: 295 384<1099 1483>
DStem2: -77.0755 -410 308.925 -410 0.190809 0.981627<370.863 1929.22>
LayerCount: 3
Fore
SplineSet
679 1483 m 1,0,-1
 417 146 l 2,1,2
 309 -410 309 -410 -295 -410 c 2,3,-1
 -373 -410 l 1,4,-1
 -316 -122 l 1,5,-1
 -255 -122 l 2,6,7
 -17 -122 -17 -122 31 146 c 2,8,-1
 295 1483 l 1,9,-1
 679 1483 l 1,0,-1
EndSplineSet
Layer: 2
SplineSet
679 1483 m 1
 417 146 l 2
 345 -225 108 -410 -295 -410 c 2
 -373 -410 l 1
 -316 -122 l 1
 -255 -122 l 2
 -96 -122 -1 -33 31 146 c 1
 295 1483 l 1
 679 1483 l 1
EndSplineSet
EndChar

StartChar: K
Encoding: 44 75 46
Width: 1574
VWidth: 3555
Flags: W
HStem: 0 21G<7 394.808 964.568 1458> 1463 20G<291.116 679 1206.81 1675>
VStem: 7 384<0 384> 295 384<1099 1483> 981 477<0 477> 1231 444<1039 1483>
DStem2: 7 0 391 0 0.190809 0.981627<73.2707 666.739 1029.75 1510.71> 825 783 502 583 0.628684 -0.777661<0 706.983> 573 939 825 783 0.77193 0.635707<95.3561 853.755>
LayerCount: 3
Fore
SplineSet
679 1483 m 1,0,-1
 573 939 l 1,1,-1
 1231 1483 l 1,2,-1
 1675 1483 l 1,3,-1
 825 783 l 1,4,-1
 1458 0 l 1,5,-1
 981 0 l 1,6,-1
 502 583 l 1,7,-1
 391 0 l 1,8,-1
 7 0 l 1,9,-1
 295 1483 l 1,10,-1
 679 1483 l 1,0,-1
EndSplineSet
Layer: 2
SplineSet
679 1483 m 1xd0
 573 939 l 1
 1231 1483 l 1
 1675 1483 l 1xd4
 825 783 l 1
 1458 0 l 1
 981 0 l 1
 502 583 l 1
 391 0 l 1
 7 0 l 1xe8
 295 1483 l 1
 679 1483 l 1xd0
EndSplineSet
EndChar

StartChar: L
Encoding: 45 76 47
Width: 1296
VWidth: 3555
Flags: W
HStem: 0 288<444 1059> 1463 20G<291.116 679>
VStem: 295 384<1099 1483>
DStem2: 7 0 388.018 0 0.190809 0.981627<366.092 1510.71>
LayerCount: 3
Fore
SplineSet
679 1483 m 1,0,-1
 444 288 l 1,1,-1
 1113 288 l 1,2,-1
 1059 0 l 1,3,-1
 7 0 l 1,4,-1
 295 1483 l 1,5,-1
 679 1483 l 1,0,-1
EndSplineSet
Layer: 2
SplineSet
679 1483 m 1
 444 288 l 1
 1113 288 l 1
 1059 0 l 1
 7 0 l 1
 295 1483 l 1
 679 1483 l 1
EndSplineSet
EndChar

StartChar: M
Encoding: 46 77 48
Width: 2018
VWidth: 3555
Flags: W
HStem: 0 21G<7 369.871 1299 1663.88> 1463 20G<291.116 787.534 1445.53 1948>
VStem: 7 359<0 359> 1299 361<0 361>
DStem2: 7 0 366 0 0.190809 0.981627<68.5004 1173.64> 783 1483 576 1085 0.228768 -0.973481<340.09 814.122> 963 689 1010 285 0.527706 0.849427<0 623.445> 1299 0 1660 0 0.190809 0.981627<68.882 1104.75>
LayerCount: 3
Fore
SplineSet
783 1483 m 1,0,-1
 963 689 l 1,1,-1
 1458 1483 l 1,2,-1
 1948 1483 l 1,3,-1
 1660 0 l 1,4,-1
 1299 0 l 1,5,-1
 1507 1085 l 1,6,-1
 1010 285 l 1,7,-1
 764 285 l 1,8,-1
 576 1085 l 1,9,-1
 366 0 l 1,10,-1
 7 0 l 1,11,-1
 295 1483 l 1,12,-1
 783 1483 l 1,0,-1
EndSplineSet
Layer: 2
SplineSet
783 1483 m 1
 963 689 l 1
 1458 1483 l 1
 1948 1483 l 1
 1660 0 l 1
 1299 0 l 1
 1507 1085 l 1
 1010 285 l 1
 764 285 l 1
 576 1085 l 1
 366 0 l 1
 7 0 l 1
 295 1483 l 1
 783 1483 l 1
EndSplineSet
EndChar

StartChar: N
Encoding: 47 78 49
Width: 1697
VWidth: 3555
Flags: W
HStem: 0 21G<7 369.854 903.156 1343.88> 1463 20G<291.116 728.758 1262.07 1628>
VStem: 7 359<0 359> 1266 362<1121 1483>
DStem2: 7 0 366 0 0.190809 0.981627<68.5004 1104.21> 722 1483 562 1017 0.323753 -0.946141<389.101 1074.54> 975.613 0 1340 0 0.190809 0.981627<473.703 1511.16>
LayerCount: 3
Fore
SplineSet
722 1483 m 1,0,-1
 1066 465 l 1,1,-1
 1266 1483 l 1,2,-1
 1628 1483 l 1,3,-1
 1340 0 l 1,4,-1
 910 0 l 1,5,-1
 562 1017 l 1,6,-1
 366 0 l 1,7,-1
 7 0 l 1,8,-1
 295 1483 l 1,9,-1
 722 1483 l 1,0,-1
EndSplineSet
Layer: 2
SplineSet
722 1483 m 1
 1066 465 l 1
 1266 1483 l 1
 1628 1483 l 1
 1340 0 l 1
 910 0 l 1
 562 1017 l 1
 366 0 l 1
 7 0 l 1
 295 1483 l 1
 722 1483 l 1
EndSplineSet
EndChar

StartChar: O
Encoding: 48 79 50
Width: 1727
VWidth: 3555
Flags: W
HStem: -28 273<572.531 914.06> 1234 273<753.644 1087.99>
VStem: 42 402<370.923 850.069> 1216 395<634 1101.17>
LayerCount: 3
Fore
SplineSet
1216 907 m 259,0,1
 1216 1059 1216 1059 1141.5 1146.5 c 128,-1,2
 1067 1234 1067 1234 929 1234 c 259,3,4
 712 1234 712 1234 578 1038 c 128,-1,5
 444 842 444 842 444 570 c 259,6,7
 444 414 444 414 517 329.5 c 128,-1,8
 590 245 590 245 736 245 c 259,9,10
 956 245 956 245 1086 443.5 c 128,-1,11
 1216 642 1216 642 1216 907 c 259,0,1
682 -28 m 259,12,13
 383 -28 383 -28 212.5 114.5 c 128,-1,14
 42 257 42 257 42 594 c 128,-1,15
 42 931 42 931 295 1219 c 128,-1,16
 548 1507 548 1507 981 1507 c 259,17,18
 1278 1507 1278 1507 1444.5 1366.5 c 128,-1,19
 1611 1226 1611 1226 1611 951 c 259,20,21
 1611 526 1611 526 1350.5 249 c 128,-1,22
 1090 -28 1090 -28 682 -28 c 259,12,13
EndSplineSet
Layer: 2
SplineSet
1216 907 m 3
 1216 1106 1116 1234 929 1234 c 3
 607 1234 444 886 444 570 c 3
 444 366 538 245 736 245 c 3
 1048 245 1216 574 1216 907 c 3
682 -28 m 259
 295 -28 42 155 42 534 c 3
 42 1082 417 1507 981 1507 c 259
 1366 1507 1611 1327 1611 951 c 3
 1611 402 1248 -28 682 -28 c 259
EndSplineSet
EndChar

StartChar: P
Encoding: 49 80 51
Width: 1489
VWidth: 3555
Flags: W
HStem: 0 21G<7 394.876> 516 277<543 924.295> 1205 278<621 983.344>
VStem: 7 384<0 384> 1032 399<895.627 1156.87>
DStem2: 7 0 391 0 0.190809 0.981627<73.2707 598.871 880.704 1300.02>
LayerCount: 3
Fore
SplineSet
932 1483 m 2,0,1
 1431 1483 1431 1483 1431 1120 c 259,2,3
 1431 840 1431 840 1238.5 678 c 128,-1,4
 1046 516 1046 516 743 516 c 2,5,-1
 491 516 l 1,6,-1
 391 0 l 1,7,-1
 7 0 l 1,8,-1
 295 1483 l 1,9,-1
 932 1483 l 2,0,1
1032 1046 m 259,10,11
 1032 1127 1032 1127 979 1166 c 128,-1,12
 926 1205 926 1205 835 1205 c 2,13,-1
 621 1205 l 1,14,-1
 543 793 l 1,15,-1
 757 793 l 2,16,17
 881 793 881 793 956.5 859.5 c 128,-1,18
 1032 926 1032 926 1032 1046 c 259,10,11
EndSplineSet
Layer: 2
SplineSet
932 1483 m 2
 1224 1483 1431 1388 1431 1120 c 3
 1431 748 1151 516 743 516 c 2
 491 516 l 1
 391 0 l 1
 7 0 l 1
 295 1483 l 1
 932 1483 l 2
1032 1046 m 3
 1032 1158 951 1205 835 1205 c 2
 621 1205 l 1
 543 793 l 1
 757 793 l 2
 918 793 1032 883 1032 1046 c 3
EndSplineSet
EndChar

StartChar: Q
Encoding: 50 81 52
Width: 1727
VWidth: 3555
Flags: W
HStem: -24 269<569.607 719> 1234 273<753.827 1088.1>
VStem: 43 401<371.955 851.962> 1216 395<635.793 1102.28>
LayerCount: 3
Fore
SplineSet
981 1507 m 259,0,1
 1279 1507 1279 1507 1445 1368 c 128,-1,2
 1611 1229 1611 1229 1611 953 c 259,3,4
 1611 623 1611 623 1454.5 385.5 c 128,-1,5
 1298 148 1298 148 1042 40 c 1,6,-1
 1272 -295 l 1,7,-1
 910 -295 l 1,8,-1
 719 -24 l 1,9,-1
 693 -24 l 2,10,11
 356 -24 356 -24 199.5 131 c 128,-1,12
 43 286 43 286 43 537 c 259,13,14
 43 956 43 956 305.5 1231.5 c 128,-1,15
 568 1507 568 1507 981 1507 c 259,0,1
1216 907 m 259,16,17
 1216 1059 1216 1059 1141.5 1146.5 c 128,-1,18
 1067 1234 1067 1234 929 1234 c 259,19,20
 707 1234 707 1234 575.5 1034 c 128,-1,21
 444 834 444 834 444 570 c 259,22,23
 444 414 444 414 517 329.5 c 128,-1,24
 590 245 590 245 736 245 c 259,25,26
 954 245 954 245 1085 440.5 c 128,-1,27
 1216 636 1216 636 1216 907 c 259,16,17
EndSplineSet
Layer: 2
SplineSet
981 1507 m 259
 1367 1507 1611 1330 1611 953 c 3
 1611 497 1369 178 1042 40 c 1
 1272 -295 l 1
 910 -295 l 1
 719 -24 l 1
 693 -24 l 2
 302 -24 43 155 43 537 c 3
 43 1089 418 1507 981 1507 c 259
1216 907 m 3
 1216 1106 1116 1234 929 1234 c 3
 607 1234 444 885 444 570 c 3
 444 366 538 245 736 245 c 3
 1048 245 1216 574 1216 907 c 3
EndSplineSet
EndChar

StartChar: R
Encoding: 51 82 53
Width: 1564
VWidth: 3555
Flags: W
HStem: 0 21G<7 394.808 933 1351> 562 263<550 752.02> 1205 278<621 944.537>
VStem: 7 384<0 384> 975 397<947.634 1303>
DStem2: 7 0 391 0 0.190809 0.981627<73.2707 645.362 913.452 1300.02> 1219 424 828 370 0.297249 -0.9548<-241.724 321.605>
LayerCount: 3
Fore
SplineSet
975 1072 m 259,0,1
 975 1148 975 1148 928.5 1176.5 c 128,-1,2
 882 1205 882 1205 783 1205 c 2,3,-1
 621 1205 l 1,4,-1
 550 825 l 1,5,-1
 712 825 l 2,6,7
 847 825 847 825 911 883.5 c 128,-1,8
 975 942 975 942 975 1072 c 259,0,1
391 0 m 1,9,-1
 7 0 l 1,10,-1
 295 1483 l 1,11,-1
 878 1483 l 2,12,13
 1154 1483 1154 1483 1263 1407.5 c 128,-1,14
 1372 1332 1372 1332 1372 1179 c 259,15,16
 1372 799 1372 799 1003 693 c 1,17,18
 1095 673 1095 673 1139.5 603.5 c 128,-1,19
 1184 534 1184 534 1219 424 c 2,20,-1
 1351 0 l 1,21,-1
 939 0 l 1,22,-1
 828 370 l 2,23,24
 796 476 796 476 751.5 519 c 128,-1,25
 707 562 707 562 604 562 c 2,26,-1
 498 562 l 1,27,-1
 391 0 l 1,9,-1
EndSplineSet
Layer: 2
SplineSet
975 1072 m 3
 975 1179 907 1205 783 1205 c 2
 621 1205 l 1
 550 825 l 1
 712 825 l 2
 890 825 975 896 975 1072 c 3
391 0 m 1
 7 0 l 1
 295 1483 l 1
 878 1483 l 2
 1169 1483 1372 1427 1372 1179 c 3
 1372 903 1225 757 1003 693 c 1
 1129 666 1178 555 1219 424 c 2
 1351 0 l 1
 939 0 l 1
 828 370 l 2
 789 499 750 562 604 562 c 2
 498 562 l 1
 391 0 l 1
EndSplineSet
EndChar

StartChar: S
Encoding: 52 83 54
Width: 1463
VWidth: 3555
Flags: W
HStem: -28 273<287.684 747.055> 1123 21G<1195 1265.95> 1234 273<595.438 1095.46>
VStem: 163 359<844 1165.35> 850 386<335.255 677.5>
LayerCount: 3
Fore
SplineSet
57 398 m 1,0,1
 180 326 180 326 299.5 285.5 c 128,-1,2
 419 245 419 245 559 245 c 259,3,4
 685 245 685 245 767.5 296.5 c 128,-1,5
 850 348 850 348 850 450 c 259,6,7
 850 516 850 516 786 547 c 0,8,9
 760 560 760 560 654 583 c 2,10,-1
 512 615 l 2,11,12
 351 652 351 652 257 724 c 128,-1,13
 163 796 163 796 163 949 c 259,14,15
 163 1194 163 1194 330.5 1350.5 c 128,-1,16
 498 1507 498 1507 811 1507 c 259,17,18
 1070 1507 1070 1507 1323 1432 c 1,19,-1
 1262 1123 l 1,20,21
 1145 1177 1145 1177 1043 1205.5 c 128,-1,22
 941 1234 941 1234 821 1234 c 259,23,24
 686 1234 686 1234 604 1195.5 c 128,-1,25
 522 1157 522 1157 522 1048 c 259,26,27
 522 981 522 981 581.5 961 c 128,-1,28
 641 941 641 941 693 929 c 2,29,-1
 854 892 l 2,30,31
 1098 836 1098 836 1167 762.5 c 128,-1,32
 1236 689 1236 689 1236 565 c 259,33,34
 1236 285 1236 285 1046.5 128.5 c 128,-1,35
 857 -28 857 -28 540 -28 c 259,36,37
 258 -28 258 -28 -3 78 c 1,38,-1
 57 398 l 1,0,1
EndSplineSet
Layer: 2
SplineSet
57 398 m 1
 200 314 357 245 559 245 c 259
 714 245 850 306 850 450 c 3
 850 541 769 557 654 583 c 2
 512 615 l 2
 310 661 163 739 163 949 c 3
 163 1317 437 1507 811 1507 c 3
 1004 1507 1161 1480 1323 1432 c 1
 1262 1123 l 1
 1128 1185 996 1234 821 1234 c 3
 653 1234 522 1199 522 1048 c 3
 522 963 598 951 693 929 c 2
 854 892 l 2
 1078 841 1236 790 1236 565 c 3
 1236 186 956 -28 540 -28 c 3
 353 -28 172 7 -3 78 c 1
 57 398 l 1
EndSplineSet
EndChar

StartChar: T
Encoding: 53 84 55
Width: 1385
VWidth: 3555
Flags: W
HStem: 0 21G<326 708.869> 1194 289<122 559 936 1429>
VStem: 326 379<0 379>
DStem2: 326 0 705 0 0.190809 0.981627<72.3166 1216.52>
LayerCount: 3
Fore
SplineSet
1486 1483 m 1,0,-1
 1429 1194 l 1,1,-1
 936 1194 l 1,2,-1
 705 0 l 1,3,-1
 326 0 l 1,4,-1
 559 1194 l 1,5,-1
 64 1194 l 1,6,-1
 122 1483 l 1,7,-1
 1486 1483 l 1,0,-1
EndSplineSet
Layer: 2
SplineSet
1486 1483 m 1
 1429 1194 l 1
 936 1194 l 1
 705 0 l 1
 326 0 l 1
 559 1194 l 1
 64 1194 l 1
 122 1483 l 1
 1486 1483 l 1
EndSplineSet
EndChar

StartChar: U
Encoding: 54 85 56
Width: 1649
VWidth: 3555
Flags: W
HStem: -28 276<544.671 860.421> 1463 20G<291.108 679 1190.11 1575>
VStem: 102 387<306.472 719.016> 295 384<1099 1483> 1194 381<1102 1483>
DStem2: 1.09545 -28 384.095 -28 0.190809 0.981627<567.15 1539.32> 900.095 -28 1280.1 -28 0.190809 0.981627<399.197 1539.32>
LayerCount: 3
Fore
SplineSet
489 453 m 259,0,1
 489 348 489 348 538.5 298 c 128,-1,2
 588 248 588 248 693 248 c 259,3,4
 849 248 849 248 919 340.5 c 128,-1,5
 989 433 989 433 1021 594 c 2,6,-1
 1194 1483 l 1,7,-1
 1575 1483 l 1,8,-1
 1401 594 l 2,9,10
 1341 286 1341 286 1159 129 c 128,-1,11
 977 -28 977 -28 641 -28 c 259,12,13
 102 -28 102 -28 102 411 c 259,14,15
 102 492 102 492 122 594 c 2,16,-1
 295 1483 l 1,17,-1
 679 1483 l 1,18,-1
 505 594 l 2,19,20
 489 515 489 515 489 453 c 259,0,1
EndSplineSet
Layer: 2
SplineSet
489 453 m 3xe8
 489 314 552 248 693 248 c 259
 908 248 982 393 1021 594 c 2
 1194 1483 l 1
 1575 1483 l 1
 1401 594 l 2
 1324 197 1102 -28 641 -28 c 3
 282 -28 102 118 102 411 c 3xe8
 102 467 109 528 122 594 c 2
 295 1483 l 1
 679 1483 l 1xd8
 505 594 l 2
 494 540 489 494 489 453 c 3xe8
EndSplineSet
EndChar

StartChar: V
Encoding: 55 86 57
Width: 1574
VWidth: 3555
Flags: W
HStem: 0 21G<376.521 846.328> 1463 20G<122 505.358 1278.98 1675>
VStem: 122 380<1103 1483>
DStem2: 502 1483 122 1483 0.171397 -0.985202<0 1111.32> 686 387 835 0 0.49285 0.870114<0 1251.33>
LayerCount: 3
Fore
SplineSet
502 1483 m 1,0,-1
 686 387 l 1,1,-1
 1290 1483 l 1,2,-1
 1675 1483 l 1,3,-1
 835 0 l 1,4,-1
 380 0 l 1,5,-1
 122 1483 l 1,6,-1
 502 1483 l 1,0,-1
EndSplineSet
Layer: 2
SplineSet
502 1483 m 1
 686 387 l 1
 1290 1483 l 1
 1675 1483 l 1
 835 0 l 1
 380 0 l 1
 122 1483 l 1
 502 1483 l 1
EndSplineSet
EndChar

StartChar: W
Encoding: 56 87 58
Width: 2239
VWidth: 3555
Flags: W
HStem: 0 21G<237.137 687.536 1207.15 1661.54> 1463 20G<174 540.739 1036.4 1415.79 1918.33 2286>
VStem: 174 366<1150.81 1483>
DStem2: 580 401 679 0 0.39254 0.919735<0 895.401> 1458 401 1653 0 0.392572 0.919721<0 1179.25>
LayerCount: 3
Fore
SplineSet
540 1483 m 1,0,-1
 580 401 l 1,1,-1
 1045 1483 l 1,2,-1
 1415 1483 l 1,3,-1
 1458 401 l 1,4,-1
 1927 1483 l 1,5,-1
 2286 1483 l 1,6,-1
 1653 0 l 1,7,-1
 1208 0 l 1,8,-1
 1160 1127 l 1,9,-1
 679 0 l 1,10,-1
 238 0 l 1,11,-1
 174 1483 l 1,12,-1
 540 1483 l 1,0,-1
EndSplineSet
Layer: 2
SplineSet
540 1483 m 1
 580 401 l 1
 1045 1483 l 1
 1415 1483 l 1
 1458 401 l 1
 1927 1483 l 1
 2286 1483 l 1
 1653 0 l 1
 1208 0 l 1
 1160 1127 l 1
 679 0 l 1
 238 0 l 1
 174 1483 l 1
 540 1483 l 1
EndSplineSet
EndChar

StartChar: X
Encoding: 57 88 59
Width: 1567
VWidth: 3555
Flags: W
HStem: 0 21G<-139 281.132 940.177 1351> 1463 20G<170 578.706 1197.56 1618>
VStem: -139 403<0 403> 1215 403<1080 1483>
DStem2: -139 0 264 0 0.654322 0.756216<263.692 933.89> 569 1483 170 1483 0.430223 -0.902723<0 529.077> 981 757 700 509 0.439125 -0.898426<99.4155 666.496> 800 1007 981 757 0.65953 0.751678<0 631.504>
LayerCount: 3
Fore
SplineSet
1351 0 m 1,0,-1
 950 0 l 1,1,-1
 700 509 l 1,2,-1
 264 0 l 1,3,-1
 -139 0 l 1,4,-1
 516 757 l 1,5,-1
 170 1483 l 1,6,-1
 569 1483 l 1,7,-1
 800 1007 l 1,8,-1
 1215 1483 l 1,9,-1
 1618 1483 l 1,10,-1
 981 757 l 1,11,-1
 1351 0 l 1,0,-1
EndSplineSet
Layer: 2
SplineSet
1351 0 m 1
 950 0 l 1
 700 509 l 1
 264 0 l 1
 -139 0 l 1
 516 757 l 1
 170 1483 l 1
 569 1483 l 1
 800 1007 l 1
 1215 1483 l 1
 1618 1483 l 1
 981 757 l 1
 1351 0 l 1
EndSplineSet
EndChar

StartChar: Y
Encoding: 58 89 60
Width: 1470
VWidth: 3555
Flags: W
HStem: 0 21G<363 753.897> 1463 20G<92 517.83 1170.25 1604>
VStem: 363 387<0 387> 1187 417<1066 1483>
DStem2: 509 1483 92 1483 0.413962 -0.910294<0 579.323> 363 0 750 0 0.190809 0.981627<73.8431 632.678> 743 953 871 621 0.647802 0.761808<0 691.383>
LayerCount: 3
Fore
SplineSet
509 1483 m 1,0,-1
 743 953 l 1,1,-1
 1187 1483 l 1,2,-1
 1604 1483 l 1,3,-1
 871 621 l 1,4,-1
 750 0 l 1,5,-1
 363 0 l 1,6,-1
 484 621 l 1,7,-1
 92 1483 l 1,8,-1
 509 1483 l 1,0,-1
EndSplineSet
Layer: 2
SplineSet
509 1483 m 1
 743 953 l 1
 1187 1483 l 1
 1604 1483 l 1
 871 621 l 1
 750 0 l 1
 363 0 l 1
 484 621 l 1
 92 1483 l 1
 509 1483 l 1
EndSplineSet
EndChar

StartChar: Z
Encoding: 59 90 61
Width: 1473
VWidth: 3555
Flags: W
HStem: 0 288<441 1205> 1194 289<227 939>
DStem2: -43 231 441 288 0.71398 0.700166<385.476 1375.39>
LayerCount: 3
Fore
SplineSet
1469 1483 m 1,0,-1
 1422 1248 l 1,1,-1
 441 288 l 1,2,-1
 1259 288 l 1,3,-1
 1205 0 l 1,4,-1
 -85 0 l 1,5,-1
 -43 231 l 1,6,-1
 939 1194 l 1,7,-1
 170 1194 l 1,8,-1
 227 1483 l 1,9,-1
 1469 1483 l 1,0,-1
EndSplineSet
Layer: 2
SplineSet
1469 1483 m 1
 1422 1248 l 1
 441 288 l 1
 1259 288 l 1
 1205 0 l 1
 -85 0 l 1
 -43 231 l 1
 939 1194 l 1
 170 1194 l 1
 227 1483 l 1
 1469 1483 l 1
EndSplineSet
EndChar

StartChar: bracketleft
Encoding: 60 91 62
Width: 927
VWidth: 3555
Flags: W
HStem: -271 224<326 562> 1319 228<594 871>
DStem2: -57 -271 282.459 -271 0.190809 0.981627<292.964 1685>
LayerCount: 3
Fore
SplineSet
913 1547 m 1,0,-1
 871 1319 l 1,1,-1
 594 1319 l 1,2,-1
 326 -47 l 1,3,-1
 604 -47 l 1,4,-1
 562 -271 l 1,5,-1
 -57 -271 l 1,6,-1
 295 1547 l 1,7,-1
 913 1547 l 1,0,-1
EndSplineSet
Layer: 2
SplineSet
913 1547 m 1
 871 1319 l 1
 594 1319 l 1
 326 -47 l 1
 604 -47 l 1
 562 -271 l 1
 -57 -271 l 1
 295 1547 l 1
 913 1547 l 1
EndSplineSet
EndChar

StartChar: backslash
Encoding: 61 92 63
Width: 743
VWidth: 3555
Flags: W
HStem: 1463 20G<109 332.344>
VStem: 109 221<1262 1483> 306 220<-189 31>
DStem2: 330 1483 109 1483 0.117014 -0.99313<0 1657.71>
LayerCount: 3
Fore
SplineSet
109 1483 m 1,0,-1
 330 1483 l 1,1,-1
 526 -189 l 1,2,-1
 306 -189 l 1,3,-1
 109 1483 l 1,0,-1
EndSplineSet
Layer: 2
SplineSet
109 1483 m 1xc0
 330 1483 l 1xc0
 526 -189 l 1
 306 -189 l 1xa0
 109 1483 l 1xc0
EndSplineSet
EndChar

StartChar: bracketright
Encoding: 62 93 64
Width: 927
VWidth: 3555
Flags: W
HStem: -271 224<-50 231> 1319 228<260 498>
DStem2: 187.459 -271 523 -271 0.190809 0.981627<228.193 1620.04>
LayerCount: 3
Fore
SplineSet
-92 -271 m 1,0,-1
 -50 -47 l 1,1,-1
 231 -47 l 1,2,-1
 498 1319 l 1,3,-1
 217 1319 l 1,4,-1
 260 1547 l 1,5,-1
 875 1547 l 1,6,-1
 523 -271 l 1,7,-1
 -92 -271 l 1,0,-1
EndSplineSet
Layer: 2
SplineSet
-92 -271 m 1
 -50 -47 l 1
 231 -47 l 1
 498 1319 l 1
 217 1319 l 1
 260 1547 l 1
 875 1547 l 1
 523 -271 l 1
 -92 -271 l 1
EndSplineSet
EndChar

StartChar: asciicircum
Encoding: 63 94 65
Width: 1701
VWidth: 3555
Flags: W
HStem: 929 554
LayerCount: 3
Fore
SplineSet
1496 929 m 1,0,-1
 1255 929 l 1,1,-1
 913 1231 l 1,2,-1
 448 929 l 1,3,-1
 207 929 l 1,4,-1
 838 1483 l 1,5,-1
 1085 1483 l 1,6,-1
 1496 929 l 1,0,-1
EndSplineSet
Layer: 2
SplineSet
1496 929 m 1
 1255 929 l 1
 913 1231 l 1
 448 929 l 1
 207 929 l 1
 838 1483 l 1
 1085 1483 l 1
 1496 929 l 1
EndSplineSet
EndChar

StartChar: underscore
Encoding: 64 95 66
Width: 1015
VWidth: 3555
Flags: W
HStem: -484 192<-231 743>
LayerCount: 3
Fore
SplineSet
743 -484 m 1,0,-1
 -271 -484 l 1,1,-1
 -231 -292 l 1,2,-1
 783 -292 l 1,3,-1
 743 -484 l 1,0,-1
EndSplineSet
Layer: 2
SplineSet
743 -484 m 1
 -271 -484 l 1
 -231 -292 l 1
 783 -292 l 1
 743 -484 l 1
EndSplineSet
EndChar

StartChar: grave
Encoding: 65 96 67
Width: 1015
VWidth: 3555
Flags: W
HStem: 1252 373
VStem: 227 492
LayerCount: 3
Fore
SplineSet
719 1252 m 1,0,-1
 526 1252 l 1,1,-1
 227 1625 l 1,2,-1
 509 1625 l 1,3,-1
 719 1252 l 1,0,-1
EndSplineSet
Layer: 2
SplineSet
719 1252 m 1
 526 1252 l 1
 227 1625 l 1
 509 1625 l 1
 719 1252 l 1
EndSplineSet
EndChar

StartChar: a
Encoding: 66 97 68
Width: 1371
VWidth: 3555
Flags: W
HStem: -28 235<197.5 515.592> 0 21G<679 1038.82> 502 210<405.47 774> 899 238<265.76 786.438>
VStem: -37 371<233.102 434.807> 825 348<712.635 861.398>
LayerCount: 3
Fore
SplineSet
334 313 m 259,0,1
 334 207 334 207 476 207 c 259,2,3
 585 207 585 207 667 283 c 128,-1,4
 749 359 749 359 767 462 c 2,5,-1
 774 502 l 1,6,-1
 587 502 l 2,7,8
 334 502 334 502 334 313 c 259,0,1
288 -28 m 259,9,10
 147 -28 147 -28 55 46.5 c 128,-1,11
 -37 121 -37 121 -37 253 c 259,12,13
 -37 486 -37 486 129.5 599 c 128,-1,14
 296 712 296 712 601 712 c 2,15,-1
 814 712 l 1,16,-1
 821 740 l 2,17,18
 825 756 825 756 825 775 c 259,19,20
 825 835 825 835 773.5 867 c 128,-1,21
 722 899 722 899 576 899 c 259,22,23
 323 899 323 899 163 811 c 1,24,-1
 217 1085 l 1,25,26
 484 1137 484 1137 686 1137 c 259,27,28
 922 1137 922 1137 1047.5 1063 c 128,-1,29
 1173 989 1173 989 1173 789 c 259,30,31
 1173 722 1173 722 1156 634 c 2,32,-1
 1035 0 l 1,33,-1
 679 0 l 1,34,-1
 708 163 l 1,35,36
 618 67 618 67 523.5 19.5 c 128,-1,37
 429 -28 429 -28 288 -28 c 259,9,10
EndSplineSet
Layer: 2
SplineSet
334 313 m 3xbc
 334 237 394 207 476 207 c 3
 626 207 744 330 767 462 c 2
 774 502 l 1
 587 502 l 2
 428 502 334 443 334 313 c 3xbc
288 -28 m 3
 107 -28 -37 72 -37 253 c 3
 -37 590 233 712 601 712 c 2
 814 712 l 1
 821 740 l 2
 824 753 825 764 825 775 c 3
 825 884 709 899 576 899 c 3
 406 899 282 872 163 811 c 1
 217 1085 l 1
 366 1114 518 1137 686 1137 c 3
 992 1137 1173 1062 1173 789 c 3
 1173 742 1167 691 1156 634 c 2
 1035 0 l 1
 679 0 l 1x7c
 708 163 l 1
 600 48 489 -28 288 -28 c 3
EndSplineSet
Substitution2: "Single Substitution lookup 22 subtable" uni0E38
EndChar

StartChar: b
Encoding: 67 98 69
Width: 1456
VWidth: 3555
Flags: W
HStem: -28 255<514.793 762.521> 0 21G<-7 355.5> 882 255<724 1051.5>
VStem: 292 359<1188 1547> 941 366<447.234 826.409>
DStem2: -12.4426 -28 346.557 -28 0.190809 0.981627<97.0245 259.427 536.422 904.237 1064.11 1604.15>
LayerCount: 3
Fore
SplineSet
625 227 m 259,0,1
 763 227 763 227 852 351 c 128,-1,2
 941 475 941 475 941 672 c 259,3,4
 941 882 941 882 753 882 c 259,5,6
 519 882 519 882 458 554 c 0,7,8
 444 481 444 481 444 428 c 259,9,10
 444 227 444 227 625 227 c 259,0,1
533 950 m 1,11,12
 699 1137 699 1137 936 1137 c 259,13,14
 1107 1137 1107 1137 1207 1020.5 c 128,-1,15
 1307 904 1307 904 1307 717 c 259,16,17
 1307 432 1307 432 1136.5 202 c 128,-1,18
 966 -28 966 -28 708 -28 c 259,19,20
 476 -28 476 -28 380 160 c 1,21,-1
 352 0 l 1,22,-1
 -7 0 l 1,23,-1
 292 1547 l 1,24,-1
 651 1547 l 1,25,-1
 533 950 l 1,11,12
EndSplineSet
Layer: 2
SplineSet
625 227 m 3xb8
 808 227 941 407 941 672 c 3
 941 812 878 882 753 882 c 259
 597 882 499 773 458 554 c 0
 449 507 444 465 444 428 c 3
 444 294 504 227 625 227 c 3xb8
533 950 m 1
 644 1075 779 1137 936 1137 c 3
 1167 1137 1307 963 1307 717 c 3
 1307 366 1080 -28 708 -28 c 3xb8
 553 -28 444 35 380 160 c 1
 352 0 l 1
 -7 0 l 1x78
 292 1547 l 1
 651 1547 l 1
 533 950 l 1
EndSplineSet
Substitution2: "Single Substitution lookup 22 subtable" uni0E39
EndChar

StartChar: c
Encoding: 68 99 70
Width: 1204
VWidth: 3555
Flags: W
HStem: -28 252<466.987 847.363> 882 255<575.451 968.864>
VStem: -1 378<312.816 665.356>
LayerCount: 3
Fore
SplineSet
543 -28 m 259,0,1
 289 -28 289 -28 144 83.5 c 128,-1,2
 -1 195 -1 195 -1 410 c 259,3,4
 -1 734 -1 734 218.5 935.5 c 128,-1,5
 438 1137 438 1137 771 1137 c 259,6,7
 952 1137 952 1137 1099 1082 c 1,8,-1
 1042 790 l 1,9,10
 926 882 926 882 764 882 c 259,11,12
 583 882 583 882 480 766 c 128,-1,13
 377 650 377 650 377 458 c 259,14,15
 377 341 377 341 444.5 282.5 c 128,-1,16
 512 224 512 224 637 224 c 259,17,18
 804 224 804 224 950 319 c 1,19,-1
 892 31 l 1,20,21
 726 -28 726 -28 543 -28 c 259,0,1
EndSplineSet
Layer: 2
SplineSet
543 -28 m 3
 226 -28 -1 105 -1 410 c 3
 -1 862 341 1137 771 1137 c 3
 890 1137 1000 1119 1099 1082 c 1
 1042 790 l 1
 969 848 886 882 764 882 c 3
 519 882 377 710 377 458 c 3
 377 299 474 224 637 224 c 3
 748 224 853 256 950 319 c 1
 892 31 l 1
 788 -6 674 -28 543 -28 c 3
EndSplineSet
Substitution2: "Single Substitution lookup 22 subtable" uni0E3A
EndChar

StartChar: d
Encoding: 69 100 71
Width: 1456
VWidth: 3555
Flags: W
HStem: -28 255<253.5 581.763> 0 21G<750 1109.85> 882 255<551.419 793.736>
VStem: 6 371<279.511 661.967> 1049 355<1192 1547>
DStem2: 744.557 -28 1100.56 -28 0.190809 0.981627<96.4521 191.118 356.527 711.423 995.797 1604.15>
LayerCount: 3
Fore
SplineSet
1049 1547 m 1,0,-1
 1404 1547 l 1,1,-1
 1106 0 l 1,2,-1
 750 0 l 1,3,-1
 779 160 l 1,4,5
 600 -28 600 -28 377 -28 c 259,6,7
 197 -28 197 -28 101.5 89.5 c 128,-1,8
 6 207 6 207 6 400 c 259,9,10
 6 688 6 688 183 912.5 c 128,-1,11
 360 1137 360 1137 604 1137 c 259,12,13
 829 1137 829 1137 932 950 c 1,14,-1
 1049 1547 l 1,0,-1
559 227 m 259,15,16
 794 227 794 227 858 554 c 256,17,18
 870 620 870 620 870 674 c 259,19,20
 870 882 870 882 686 882 c 259,21,22
 549 882 549 882 463 754 c 128,-1,23
 377 626 377 626 377 427 c 259,24,25
 377 227 377 227 559 227 c 259,15,16
EndSplineSet
Layer: 2
SplineSet
1049 1547 m 1xb8
 1404 1547 l 1
 1106 0 l 1
 750 0 l 1x78
 779 160 l 1
 660 35 526 -28 377 -28 c 3
 130 -28 6 152 6 400 c 3
 6 772 263 1137 604 1137 c 3
 753 1137 863 1075 932 950 c 1
 1049 1547 l 1xb8
559 227 m 3xb8
 715 227 815 336 858 554 c 0
 866 598 870 639 870 674 c 3
 870 813 809 882 686 882 c 3
 502 882 377 690 377 427 c 3
 377 294 438 227 559 227 c 3xb8
EndSplineSet
EndChar

StartChar: e
Encoding: 70 101 72
Width: 1378
VWidth: 3555
Flags: W
HStem: -28 235<436.154 897.23> 458 217<404 870.525> 899 238<533.782 825.387>
VStem: -1 361<278.475 453.282> 871 352<675.207 851.201>
LayerCount: 3
Fore
SplineSet
746 1137 m 259,0,1
 963 1137 963 1137 1093 1023.5 c 128,-1,2
 1223 910 1223 910 1223 703 c 259,3,4
 1223 644 1223 644 1208 559 c 2,5,-1
 1191 458 l 1,6,-1
 363 458 l 1,7,8
 360 432 360 432 360 409 c 259,9,10
 360 207 360 207 618 207 c 259,11,12
 753 207 753 207 865 241 c 128,-1,13
 977 275 977 275 1116 342 c 1,14,-1
 1062 68 l 1,15,16
 811 -28 811 -28 540 -28 c 259,17,18
 293 -28 293 -28 146 81 c 128,-1,19
 -1 190 -1 190 -1 409 c 259,20,21
 -1 720 -1 720 204.5 928.5 c 128,-1,22
 410 1137 410 1137 746 1137 c 259,0,1
871 736 m 259,23,24
 871 814 871 814 825.5 856.5 c 128,-1,25
 780 899 780 899 700 899 c 259,26,27
 479 899 479 899 404 675 c 1,28,-1
 865 675 l 1,29,30
 871 708 871 708 871 736 c 259,23,24
EndSplineSet
Layer: 2
SplineSet
746 1137 m 3
 1029 1137 1223 985 1223 703 c 3
 1223 658 1217 610 1208 559 c 2
 1191 458 l 1
 363 458 l 1
 361 441 360 424 360 409 c 3
 360 274 446 207 618 207 c 3
 816 207 962 268 1116 342 c 1
 1062 68 l 1
 905 8 739 -28 540 -28 c 3
 223 -28 -1 105 -1 409 c 3
 -1 844 309 1137 746 1137 c 3
871 736 m 3
 871 842 805 899 700 899 c 3
 553 899 454 824 404 675 c 1
 865 675 l 1
 869 697 871 717 871 736 c 3
EndSplineSet
EndChar

StartChar: f
Encoding: 71 102 73
Width: 880
VWidth: 3555
Flags: W
HStem: 0 21G<216 575.902> 861 252<256 384 785 1049> 1312 235<844.656 1155>
VStem: 216 356<0 356>
DStem2: 216 0 572 0 0.190809 0.981627<67.928 877.237 1201.12 1394.38>
LayerCount: 3
Fore
SplineSet
1155 1312 m 1,0,-1
 964 1312 l 2,1,2
 886 1312 886 1312 850.5 1283.5 c 128,-1,3
 815 1255 815 1255 802 1191 c 2,4,-1
 785 1113 l 1,5,-1
 1094 1113 l 1,6,-1
 1049 861 l 1,7,-1
 740 861 l 1,8,-1
 572 0 l 1,9,-1
 216 0 l 1,10,-1
 384 861 l 1,11,-1
 209 861 l 1,12,-1
 256 1113 l 1,13,-1
 429 1113 l 1,14,-1
 448 1191 l 2,15,16
 516 1547 516 1547 931 1547 c 2,17,-1
 1202 1547 l 1,18,-1
 1155 1312 l 1,0,-1
EndSplineSet
Layer: 2
SplineSet
1155 1312 m 1
 964 1312 l 2
 860 1312 821 1277 802 1191 c 2
 785 1113 l 1
 1094 1113 l 1
 1049 861 l 1
 740 861 l 1
 572 0 l 1
 216 0 l 1
 384 861 l 1
 209 861 l 1
 256 1113 l 1
 429 1113 l 1
 448 1191 l 2
 505 1425 654 1547 931 1547 c 2
 1202 1547 l 1
 1155 1312 l 1
EndSplineSet
EndChar

StartChar: g
Encoding: 72 103 74
Width: 1456
VWidth: 3555
Flags: W
HStem: -441 238<140.396 587.774> 0 260<269.5 590.19> 882 255<551.07 792.589> 1093 20G<959.287 1319>
VStem: 7 375<313.06 679.429>
DStem2: 662.925 -441 1018.92 -441 0.190809 0.981627<382.581 641.909 805.25 1133.91 1412.86 1582.71>
LayerCount: 3
Fore
SplineSet
28 -95 m 1,0,1
 179 -203 179 -203 370 -203 c 259,2,3
 552 -203 552 -203 644.5 -126.5 c 128,-1,4
 737 -50 737 -50 771 115 c 2,5,-1
 786 189 l 1,6,7
 608 0 608 0 384 0 c 259,8,9
 213 0 213 0 110 114 c 128,-1,10
 7 228 7 228 7 412 c 259,11,12
 7 692 7 692 178.5 914.5 c 128,-1,13
 350 1137 350 1137 604 1137 c 259,14,15
 828 1137 828 1137 932 946 c 1,16,-1
 963 1113 l 1,17,-1
 1319 1113 l 1,18,-1
 1127 115 l 2,19,20
 1075 -156 1075 -156 877 -298.5 c 128,-1,21
 679 -441 679 -441 356 -441 c 259,22,23
 154 -441 154 -441 -24 -373 c 1,24,-1
 28 -95 l 1,0,1
872 675 m 259,25,26
 872 774 872 774 825 828 c 128,-1,27
 778 882 778 882 686 882 c 259,28,29
 561 882 561 882 471.5 767 c 128,-1,30
 382 652 382 652 382 456 c 259,31,32
 382 260 382 260 566 260 c 259,33,34
 799 260 799 260 861 569 c 256,35,36
 872 630 872 630 872 675 c 259,25,26
EndSplineSet
Layer: 2
SplineSet
28 -95 m 1xd8
 120 -161 227 -203 370 -203 c 3
 618 -203 727 -100 771 115 c 2
 786 189 l 1
 667 63 533 0 384 0 c 3
 155 0 7 169 7 412 c 3
 7 784 254 1137 604 1137 c 3xe8
 753 1137 863 1073 932 946 c 1
 963 1113 l 1
 1319 1113 l 1
 1127 115 l 2
 1058 -246 787 -441 356 -441 c 3
 221 -441 94 -418 -24 -373 c 1
 28 -95 l 1xd8
872 675 m 3
 872 805 811 882 686 882 c 3
 485 882 382 671 382 456 c 3
 382 325 443 260 566 260 c 3
 744 260 829 404 861 569 c 256
 868 608 872 643 872 675 c 3
EndSplineSet
EndChar

StartChar: h
Encoding: 73 104 75
Width: 1449
VWidth: 3555
Flags: W
HStem: 0 21G<-7 355.794 753 1112.82> 871 266<735.28 1041.5>
VStem: -7 359<0 359> 292 359<1188 1547> 753 356<0 356> 885 370<533.731 846.58>
DStem2: -7 0 352 0 0.190809 0.981627<68.5004 854.081 1035.58 1575.63> 753 0 1109 0 0.190809 0.981627<67.928 735.434>
LayerCount: 3
Fore
SplineSet
939 1137 m 259,0,1
 1093 1137 1093 1137 1174 1058.5 c 128,-1,2
 1255 980 1255 980 1255 827 c 259,3,4
 1255 760 1255 760 1238 675 c 2,5,-1
 1109 0 l 1,6,-1
 753 0 l 1,7,-1
 854 519 l 2,8,9
 856 531 856 531 870.5 596 c 128,-1,10
 885 661 885 661 885 727 c 259,11,12
 885 800 885 800 854 835.5 c 128,-1,13
 823 871 823 871 753 871 c 259,14,15
 626 871 626 871 552.5 772 c 128,-1,16
 479 673 479 673 455 543 c 2,17,-1
 352 0 l 1,18,-1
 -7 0 l 1,19,-1
 292 1547 l 1,20,-1
 651 1547 l 1,21,-1
 533 950 l 1,22,23
 719 1137 719 1137 939 1137 c 259,0,1
EndSplineSet
Layer: 2
SplineSet
939 1137 m 3xd0
 1144 1137 1255 1032 1255 827 c 3xd4
 1255 781 1249 730 1238 675 c 2
 1109 0 l 1
 753 0 l 1xc8
 854 519 l 2
 869 595 885 653 885 727 c 3xc4
 885 823 848 871 753 871 c 3
 578 871 486 707 455 543 c 2
 352 0 l 1
 -7 0 l 1xe8
 292 1547 l 1
 651 1547 l 1
 533 950 l 1
 657 1075 792 1137 939 1137 c 3xd0
EndSplineSet
EndChar

StartChar: i
Encoding: 74 105 76
Width: 692
VWidth: 3555
Flags: W
HStem: 0 21G<-7 355.845> 1093 20G<203.155 566> 1252 295<292 594>
VStem: -7 359<0 359> 207 359<754 1113>
DStem2: -7 0 352 0 0.190809 0.981627<68.5004 1133.38 1343.67 1575.63>
LayerCount: 3
Fore
SplineSet
566 1113 m 1,0,-1
 352 0 l 1,1,-1
 -7 0 l 1,2,-1
 207 1113 l 1,3,-1
 566 1113 l 1,0,-1
651 1547 m 1,4,-1
 594 1252 l 1,5,-1
 234 1252 l 1,6,-1
 292 1547 l 1,7,-1
 651 1547 l 1,4,-1
EndSplineSet
Layer: 2
SplineSet
566 1113 m 1xe8
 352 0 l 1
 -7 0 l 1xf0
 207 1113 l 1
 566 1113 l 1xe8
651 1547 m 1
 594 1252 l 1
 234 1252 l 1
 292 1547 l 1
 651 1547 l 1
EndSplineSet
EndChar

StartChar: j
Encoding: 75 106 77
Width: 692
VWidth: 3555
Flags: W
HStem: -441 234<-285 -79.29> 1093 20G<203.095 566> 1252 295<292 594>
VStem: 207 359<754 1113>
DStem2: -96.0262 -441 262.974 -441 0.190809 0.981627<278.54 1583.27 1793.56 2025.51>
LayerCount: 3
Fore
SplineSet
566 1113 m 1,0,-1
 352 17 l 2,1,2
 309 -207 309 -207 176 -324 c 128,-1,3
 43 -441 43 -441 -160 -441 c 2,4,-1
 -330 -441 l 1,5,-1
 -285 -207 l 1,6,-1
 -220 -207 l 2,7,8
 -125 -207 -125 -207 -78 -162.5 c 128,-1,9
 -31 -118 -31 -118 -7 17 c 2,10,-1
 207 1113 l 1,11,-1
 566 1113 l 1,0,-1
651 1547 m 1,12,-1
 594 1252 l 1,13,-1
 234 1252 l 1,14,-1
 292 1547 l 1,15,-1
 651 1547 l 1,12,-1
EndSplineSet
Layer: 2
SplineSet
566 1113 m 1
 352 17 l 2
 300 -251 140 -441 -160 -441 c 2
 -330 -441 l 1
 -285 -207 l 1
 -220 -207 l 2
 -65 -207 -37 -133 -7 17 c 2
 207 1113 l 1
 566 1113 l 1
651 1547 m 1
 594 1252 l 1
 234 1252 l 1
 292 1547 l 1
 651 1547 l 1
EndSplineSet
EndChar

StartChar: k
Encoding: 76 107 78
Width: 1350
VWidth: 3555
Flags: W
HStem: 0 21G<-7 355.853 768.195 1212> 1093 20G<946.373 1384>
VStem: -7 359<0 359> 292 359<1188 1547> 783 429<0 429> 970 414<699 1113>
DStem2: -7 0 352 0 0.190809 0.981627<68.5004 538.994 786.498 1575.63> 743 601 441 462 0.615211 -0.788362<0 498.414> 488 705 743 601 0.781344 0.6241<134.336 631.241>
LayerCount: 3
Fore
SplineSet
651 1547 m 1,0,-1
 488 705 l 1,1,-1
 970 1113 l 1,2,-1
 1384 1113 l 1,3,-1
 743 601 l 1,4,-1
 1212 0 l 1,5,-1
 783 0 l 1,6,-1
 441 462 l 1,7,-1
 352 0 l 1,8,-1
 -7 0 l 1,9,-1
 292 1547 l 1,10,-1
 651 1547 l 1,0,-1
EndSplineSet
Layer: 2
SplineSet
651 1547 m 1xd0
 488 705 l 1
 970 1113 l 1
 1384 1113 l 1xd4
 743 601 l 1
 1212 0 l 1
 783 0 l 1
 441 462 l 1
 352 0 l 1
 -7 0 l 1xe8
 292 1547 l 1
 651 1547 l 1xd0
EndSplineSet
EndChar

StartChar: l
Encoding: 77 108 79
Width: 692
VWidth: 3555
Flags: W
HStem: 0 21G<-7 355.866>
VStem: -7 359<0 359> 292 359<1188 1547>
DStem2: -7 0 352 0 0.190809 0.981627<68.5004 1575.63>
LayerCount: 3
Fore
SplineSet
651 1547 m 1,0,-1
 352 0 l 1,1,-1
 -7 0 l 1,2,-1
 292 1547 l 1,3,-1
 651 1547 l 1,0,-1
EndSplineSet
Layer: 2
SplineSet
651 1547 m 1xa0
 352 0 l 1
 -7 0 l 1xc0
 292 1547 l 1
 651 1547 l 1xa0
EndSplineSet
EndChar

StartChar: m
Encoding: 78 109 80
Width: 2117
VWidth: 3555
Flags: W
HStem: 0 21G<-7 355.794 705 1065.87 1422 1784.82> 871 266<714.58 986.5 1409.96 1711.5> 1093 20G<203.155 566>
VStem: -7 359<0 359> 705 357<0 357> 1422 359<0 359> 1560 367<536.289 855.587>
DStem2: -7 0 352 0 0.190809 0.981627<68.5004 869.855 1035.58 1133.38> 705 0 1062 0 0.190809 0.981627<68.1188 771.665> 1422 0 1781 0 0.190809 0.981627<68.5004 755.412>
LayerCount: 3
Fore
SplineSet
910 1137 m 259,0,1
 1023 1137 1023 1137 1100 1081 c 128,-1,2
 1177 1025 1177 1025 1201 929 c 1,3,4
 1277 1021 1277 1021 1380.5 1079 c 128,-1,5
 1484 1137 1484 1137 1608 1137 c 259,6,7
 1764 1137 1764 1137 1845.5 1059 c 128,-1,8
 1927 981 1927 981 1927 827 c 259,9,10
 1927 760 1927 760 1910 675 c 2,11,-1
 1781 0 l 1,12,-1
 1422 0 l 1,13,-1
 1533 580 l 2,14,15
 1560 721 1560 721 1560 745 c 259,16,17
 1560 809 1560 809 1534 840 c 128,-1,18
 1508 871 1508 871 1448 871 c 259,19,20
 1231 871 1231 871 1167 543 c 2,21,-1
 1062 0 l 1,22,-1
 705 0 l 1,23,-1
 814 580 l 2,24,25
 839 710 839 710 839 763 c 259,26,27
 839 823 839 823 814 847 c 128,-1,28
 789 871 789 871 729 871 c 259,29,30
 517 871 517 871 455 543 c 2,31,-1
 352 0 l 1,32,-1
 -7 0 l 1,33,-1
 207 1113 l 1,34,-1
 566 1113 l 1,35,-1
 533 950 l 1,36,37
 693 1137 693 1137 910 1137 c 259,0,1
EndSplineSet
Layer: 2
SplineSet
910 1137 m 3xda
 1063 1137 1170 1055 1201 929 c 1
 1292 1039 1430 1137 1608 1137 c 3
 1815 1137 1927 1033 1927 827 c 3xda
 1927 781 1921 730 1910 675 c 2
 1781 0 l 1
 1422 0 l 1xdc
 1533 580 l 2
 1541 620 1560 697 1560 745 c 3
 1560 828 1530 871 1448 871 c 3
 1303 871 1210 762 1167 543 c 2
 1062 0 l 1
 705 0 l 1
 814 580 l 2
 829 658 839 700 839 763 c 3
 839 843 808 871 729 871 c 3xda
 589 871 496 762 455 543 c 2
 352 0 l 1
 -7 0 l 1
 207 1113 l 1
 566 1113 l 1xba
 533 950 l 1
 640 1075 765 1137 910 1137 c 3xda
EndSplineSet
EndChar

StartChar: n
Encoding: 79 110 81
Width: 1449
VWidth: 3555
Flags: W
HStem: 0 21G<-7 355.794 753 1112.82> 871 266<735.28 1041.5> 1093 20G<203.155 566>
VStem: -7 359<0 359> 753 356<0 356> 885 370<533.731 846.58>
DStem2: -7 0 352 0 0.190809 0.981627<68.5004 854.081 1035.58 1133.38> 753 0 1109 0 0.190809 0.981627<67.928 735.434>
LayerCount: 3
Fore
SplineSet
939 1137 m 259,0,1
 1093 1137 1093 1137 1174 1058.5 c 128,-1,2
 1255 980 1255 980 1255 827 c 259,3,4
 1255 760 1255 760 1238 675 c 2,5,-1
 1109 0 l 1,6,-1
 753 0 l 1,7,-1
 854 519 l 2,8,9
 856 530 856 530 870.5 596 c 128,-1,10
 885 662 885 662 885 727 c 259,11,12
 885 800 885 800 854 835.5 c 128,-1,13
 823 871 823 871 753 871 c 259,14,15
 626 871 626 871 552.5 772 c 128,-1,16
 479 673 479 673 455 543 c 2,17,-1
 352 0 l 1,18,-1
 -7 0 l 1,19,-1
 207 1113 l 1,20,-1
 566 1113 l 1,21,-1
 533 950 l 1,22,23
 719 1137 719 1137 939 1137 c 259,0,1
EndSplineSet
Layer: 2
SplineSet
939 1137 m 3xd8
 1144 1137 1255 1032 1255 827 c 3xd4
 1255 781 1249 730 1238 675 c 2
 1109 0 l 1
 753 0 l 1xd8
 854 519 l 2
 869 595 885 653 885 727 c 3xd4
 885 823 848 871 753 871 c 3xd8
 578 871 486 707 455 543 c 2
 352 0 l 1
 -7 0 l 1
 207 1113 l 1
 566 1113 l 1xb8
 533 950 l 1
 657 1075 792 1137 939 1137 c 3xd8
EndSplineSet
EndChar

StartChar: o
Encoding: 80 111 82
Width: 1395
VWidth: 3555
Flags: W
HStem: -28 252<437.352 708.12> 882 255<546.055 823.487>
VStem: -2 376<285.999 670.654> 880 373<432.453 822.425>
LayerCount: 3
Fore
SplineSet
374 435 m 259,0,1
 374 224 374 224 562 224 c 259,2,3
 704 224 704 224 792 349.5 c 128,-1,4
 880 475 880 475 880 673 c 259,5,6
 880 882 880 882 689 882 c 259,7,8
 550 882 550 882 462 757.5 c 128,-1,9
 374 633 374 633 374 435 c 259,0,1
512 -28 m 259,10,11
 274 -28 274 -28 136 80.5 c 128,-1,12
 -2 189 -2 189 -2 404 c 259,13,14
 -2 729 -2 729 203.5 933 c 128,-1,15
 409 1137 409 1137 740 1137 c 259,16,17
 979 1137 979 1137 1116 1028 c 128,-1,18
 1253 919 1253 919 1253 702 c 259,19,20
 1253 372 1253 372 1046.5 172 c 128,-1,21
 840 -28 840 -28 512 -28 c 259,10,11
EndSplineSet
Layer: 2
SplineSet
374 435 m 3
 374 303 434 224 562 224 c 3
 777 224 880 443 880 673 c 3
 880 812 817 882 689 882 c 3
 504 882 374 699 374 435 c 3
512 -28 m 259
 207 -28 -2 108 -2 404 c 3
 -2 836 300 1137 740 1137 c 259
 1048 1137 1253 1001 1253 702 c 3
 1253 259 949 -28 512 -28 c 259
EndSplineSet
EndChar

StartChar: p
Encoding: 81 112 83
Width: 1456
VWidth: 3555
Flags: W
HStem: -424 21G<-92 270.87> -28 255<514.793 762.521> 882 255<724 1051.5> 1093 20G<203.109 566>
VStem: -92 359<-424 -65> 941 366<436.706 826.409>
DStem2: -92 -424 267 -424 0.190809 0.981627<68.5004 663.332 940.327 1301.74 1468.01 1565.81>
LayerCount: 3
Fore
SplineSet
267 -424 m 1,0,-1
 -92 -424 l 1,1,-1
 207 1113 l 1,2,-1
 566 1113 l 1,3,-1
 533 950 l 1,4,5
 699 1137 699 1137 936 1137 c 259,6,7
 1107 1137 1107 1137 1207 1020.5 c 128,-1,8
 1307 904 1307 904 1307 717 c 259,9,10
 1307 420 1307 420 1140.5 196 c 128,-1,11
 974 -28 974 -28 708 -28 c 259,12,13
 476 -28 476 -28 380 160 c 1,14,-1
 267 -424 l 1,0,-1
753 882 m 259,15,16
 519 882 519 882 458 554 c 256,17,18
 444 481 444 481 444 428 c 259,19,20
 444 227 444 227 625 227 c 259,21,22
 763 227 763 227 852 351 c 128,-1,23
 941 475 941 475 941 672 c 259,24,25
 941 882 941 882 753 882 c 259,15,16
EndSplineSet
Layer: 2
SplineSet
267 -424 m 1xec
 -92 -424 l 1
 207 1113 l 1
 566 1113 l 1xdc
 533 950 l 1
 644 1075 779 1137 936 1137 c 3
 1167 1137 1307 963 1307 717 c 3
 1307 338 1080 -28 708 -28 c 3
 553 -28 444 35 380 160 c 1
 267 -424 l 1xec
753 882 m 259xec
 597 882 499 773 458 554 c 0
 449 507 444 465 444 428 c 3
 444 294 504 227 625 227 c 3
 808 227 941 407 941 672 c 3
 941 812 878 882 753 882 c 259xec
EndSplineSet
EndChar

StartChar: q
Encoding: 82 113 84
Width: 1456
VWidth: 3555
Flags: W
HStem: -424 21G<665 1024.88> -28 255<253.5 581.763> 882 255<549.758 791.872> 1093 20G<959.287 1319>
VStem: 6 371<279.511 666.95> 665 356<-424 -68>
DStem2: 665 -424 1021 -424 0.190809 0.981627<67.928 595.023 760.431 1115.33 1395.78 1565.62>
LayerCount: 3
Fore
SplineSet
686 882 m 259,0,1
 549 882 549 882 463 754 c 128,-1,2
 377 626 377 626 377 427 c 259,3,4
 377 227 377 227 559 227 c 259,5,6
 794 227 794 227 858 554 c 256,7,8
 870 620 870 620 870 674 c 259,9,10
 870 882 870 882 686 882 c 259,0,1
779 160 m 1,11,12
 600 -28 600 -28 377 -28 c 259,13,14
 197 -28 197 -28 101.5 89.5 c 128,-1,15
 6 207 6 207 6 400 c 259,16,17
 6 679 6 679 170.5 908 c 128,-1,18
 335 1137 335 1137 604 1137 c 259,19,20
 828 1137 828 1137 932 946 c 1,21,-1
 963 1113 l 1,22,-1
 1319 1113 l 1,23,-1
 1021 -424 l 1,24,-1
 665 -424 l 1,25,-1
 779 160 l 1,11,12
EndSplineSet
Layer: 2
SplineSet
686 882 m 3xec
 502 882 377 690 377 427 c 0
 377 294 438 227 559 227 c 3
 715 227 815 336 858 554 c 0
 866 598 870 639 870 674 c 3
 870 813 809 882 686 882 c 3xec
779 160 m 1
 660 35 526 -28 377 -28 c 3
 130 -28 6 152 6 400 c 0
 6 757 237 1137 604 1137 c 3xec
 753 1137 863 1073 932 946 c 1
 963 1113 l 1
 1319 1113 l 1xdc
 1021 -424 l 1
 665 -424 l 1
 779 160 l 1
EndSplineSet
EndChar

StartChar: r
Encoding: 83 114 85
Width: 1001
VWidth: 3555
Flags: W
HStem: 0 21G<-7 355.837> 854 283<723.065 983.73> 1093 20G<203.155 566>
VStem: -7 359<0 359>
DStem2: -7 0 352 0 0.190809 0.981627<68.5004 814.583 1014.21 1133.38>
LayerCount: 3
Fore
SplineSet
977 811 m 1,0,1
 879 854 879 854 797 854 c 259,2,3
 658 854 658 854 568.5 764.5 c 128,-1,4
 479 675 479 675 451 516 c 1,5,-1
 352 0 l 1,6,-1
 -7 0 l 1,7,-1
 207 1113 l 1,8,-1
 566 1113 l 1,9,-1
 529 929 l 1,10,11
 615 1038 615 1038 714.5 1087.5 c 128,-1,12
 814 1137 814 1137 939 1137 c 259,13,14
 968 1137 968 1137 1038 1130 c 1,15,-1
 977 811 l 1,0,1
EndSplineSet
Layer: 2
SplineSet
529 929 m 1xb0
 627 1053 741 1137 939 1137 c 3
 977 1137 994 1134 1038 1130 c 1
 977 811 l 1
 920 836 872 854 797 854 c 3xd0
 591 854 487 702 451 516 c 2
 352 0 l 1
 -7 0 l 1
 207 1113 l 1
 566 1113 l 1
 529 929 l 1xb0
EndSplineSet
EndChar

StartChar: s
Encoding: 84 115 86
Width: 1208
VWidth: 3555
Flags: W
HStem: -28 235<143.166 619.775> 899 238<426.662 899.276>
VStem: 69 324<609.5 858.231> 664 342<251.388 526.5>
LayerCount: 3
Fore
SplineSet
611 899 m 259,0,1
 393 899 393 899 393 786 c 259,2,3
 393 740 393 740 436.5 722 c 128,-1,4
 480 704 480 704 547 696 c 2,5,-1
 604 689 l 2,6,7
 845 659 845 659 925.5 606.5 c 128,-1,8
 1006 554 1006 554 1006 423 c 259,9,10
 1006 -28 1006 -28 404 -28 c 259,11,12
 152 -28 152 -28 -47 43 c 1,13,-1
 3 309 l 1,14,15
 200 207 200 207 427 207 c 259,16,17
 664 207 664 207 664 342 c 259,18,19
 664 391 664 391 620 407 c 128,-1,20
 576 423 576 423 498 431 c 2,21,-1
 434 437 l 2,22,23
 262 453 262 453 165.5 509.5 c 128,-1,24
 69 566 69 566 69 707 c 259,25,26
 69 919 69 919 219 1028 c 128,-1,27
 369 1137 369 1137 641 1137 c 259,28,29
 834 1137 834 1137 1069 1082 c 1,30,-1
 1017 807 l 1,31,32
 824 899 824 899 611 899 c 259,0,1
EndSplineSet
Layer: 2
SplineSet
427 207 m 3
 577 207 664 245 664 342 c 3
 664 411 589 422 498 431 c 2
 434 437 l 2
 217 457 69 512 69 707 c 3
 69 994 284 1137 641 1137 c 3
 768 1137 911 1119 1069 1082 c 1
 1017 807 l 1
 893 866 775 899 611 899 c 3
 483 899 393 866 393 786 c 3
 393 721 467 706 547 696 c 2
 604 689 l 2
 857 658 1006 630 1006 423 c 3
 1006 110 788 -28 404 -28 c 3
 241 -28 82 -3 -47 43 c 1
 3 309 l 1
 134 241 276 207 427 207 c 3
EndSplineSet
EndChar

StartChar: t
Encoding: 85 116 87
Width: 970
VWidth: 3555
Flags: W
HStem: 0 252<452.337 715> 861 252<61 193 594 913>
VStem: 82 364<251 445.606>
DStem2: 20.358 0 376.358 0 0.190809 0.981627<410.708 878.123 1202.01 1451.99>
LayerCount: 3
Fore
SplineSet
446 335 m 259,0,1
 446 283 446 283 476 267.5 c 128,-1,2
 506 252 506 252 580 252 c 2,3,-1
 760 252 l 1,4,-1
 715 0 l 1,5,-1
 413 0 l 2,6,7
 238 0 238 0 160 53.5 c 128,-1,8
 82 107 82 107 82 251 c 259,9,10
 82 319 82 319 95 384 c 2,11,-1
 193 861 l 1,12,-1
 14 861 l 1,13,-1
 61 1113 l 1,14,-1
 238 1113 l 1,15,-1
 299 1425 l 1,16,-1
 654 1425 l 1,17,-1
 594 1113 l 1,18,-1
 960 1113 l 1,19,-1
 913 861 l 1,20,-1
 547 861 l 1,21,-1
 451 384 l 1,22,23
 446 354 446 354 446 335 c 259,0,1
EndSplineSet
Layer: 2
SplineSet
446 335 m 3
 446 261 490 252 580 252 c 2
 760 252 l 1
 715 0 l 1
 413 0 l 2
 192 0 82 51 82 251 c 3
 82 290 85 334 95 384 c 2
 193 861 l 1
 14 861 l 1
 61 1113 l 1
 238 1113 l 1
 299 1425 l 1
 654 1425 l 1
 594 1113 l 1
 960 1113 l 1
 913 861 l 1
 547 861 l 1
 451 384 l 2
 448 366 446 349 446 335 c 3
EndSplineSet
EndChar

StartChar: u
Encoding: 86 117 88
Width: 1449
VWidth: 3555
Flags: W
HStem: -28 266<261.5 567.051> 0 21G<740 1098.85> 1093 20G<192.112 554 949.08 1309>
VStem: 49 370<263.648 583.461> 196 358<755 1113> 953 356<757 1113>
DStem2: -25.8037 -28 330.873 -28 0.190809 0.981627<455.122 1162.36> 734.557 -28 1089.56 -28 0.190809 0.981627<96.2613 190.736 382.419 1161.72>
LayerCount: 3
Fore
SplineSet
363 -28 m 259,0,1
 210 -28 210 -28 129.5 52 c 128,-1,2
 49 132 49 132 49 286 c 259,3,4
 49 353 49 353 64 434 c 2,5,-1
 196 1113 l 1,6,-1
 554 1113 l 1,7,-1
 451 590 l 2,8,9
 419 430 419 430 419 345 c 259,10,11
 419 292 419 292 456 265 c 128,-1,12
 493 238 493 238 550 238 c 259,13,14
 677 238 677 238 748 333.5 c 128,-1,15
 819 429 819 429 845 562 c 2,16,-1
 953 1113 l 1,17,-1
 1309 1113 l 1,18,-1
 1095 0 l 1,19,-1
 740 0 l 1,20,-1
 767 160 l 1,21,22
 582 -28 582 -28 363 -28 c 259,0,1
EndSplineSet
Layer: 2
SplineSet
363 -28 m 3xb4
 160 -28 49 80 49 286 c 3xb4
 49 331 54 380 64 434 c 2
 196 1113 l 1
 554 1113 l 1xac
 451 590 l 2
 427 469 419 435 419 345 c 3
 419 266 486 238 550 238 c 3xb4
 728 238 813 397 845 562 c 2
 953 1113 l 1
 1309 1113 l 1
 1095 0 l 1
 740 0 l 1x74
 767 160 l 1
 644 35 510 -28 363 -28 c 3xb4
EndSplineSet
EndChar

StartChar: v
Encoding: 87 118 89
Width: 1321
VWidth: 3555
Flags: W
HStem: 0 21G<283.975 693.698> 1093 20G<64 423.307 962.88 1333>
VStem: 64 356<757 1113>
DStem2: 547 345 682 0 0.504883 0.863188<0 878.513>
LayerCount: 3
Fore
SplineSet
420 1113 m 1,0,-1
 547 345 l 1,1,-1
 974 1113 l 1,2,-1
 1333 1113 l 1,3,-1
 682 0 l 1,4,-1
 288 0 l 1,5,-1
 64 1113 l 1,6,-1
 420 1113 l 1,0,-1
EndSplineSet
Layer: 2
SplineSet
420 1113 m 1
 547 345 l 1
 974 1113 l 1
 1333 1113 l 1
 682 0 l 1
 288 0 l 1
 64 1113 l 1
 420 1113 l 1
EndSplineSet
EndChar

StartChar: w
Encoding: 88 119 90
Width: 1876
VWidth: 3555
Flags: W
HStem: 0 21G<187.562 584.639 948.848 1349.02> 1093 20G<109 455.859 819.146 1124.06 1491.1 1842>
VStem: 109 346<913.55 1113>
DStem2: 488 345 576 0 0.404812 0.9144<0 552.345> 1123 1113 906 764 0.0574964 -0.998346<335.946 758.048> 1163 356 1340 0 0.411148 0.911569<0 828.614>
LayerCount: 3
Fore
SplineSet
455 1113 m 1,0,-1
 488 345 l 1,1,-1
 828 1113 l 1,2,-1
 1123 1113 l 1,3,-1
 1163 356 l 1,4,-1
 1500 1113 l 1,5,-1
 1842 1113 l 1,6,-1
 1340 0 l 1,7,-1
 950 0 l 1,8,-1
 906 764 l 1,9,-1
 576 0 l 1,10,-1
 189 0 l 1,11,-1
 109 1113 l 1,12,-1
 455 1113 l 1,0,-1
EndSplineSet
Layer: 2
SplineSet
455 1113 m 1
 488 345 l 1
 828 1113 l 1
 1123 1113 l 1
 1163 356 l 1
 1500 1113 l 1
 1842 1113 l 1
 1340 0 l 1
 950 0 l 1
 906 764 l 1
 576 0 l 1
 189 0 l 1
 109 1113 l 1
 455 1113 l 1
EndSplineSet
EndChar

StartChar: x
Encoding: 89 120 91
Width: 1310
VWidth: 3555
Flags: W
HStem: 0 21G<-149 248.727 715.602 1102> 1093 20G<89 474.697 899.303 1293>
VStem: -149 380<0 380> 917 376<737 1113>
DStem2: -149 0 231 0 0.683642 0.729817<259.784 729.976> 625 783 793 569 0.676705 0.736255<0 440.562>
LayerCount: 3
Fore
SplineSet
89 1113 m 1,0,-1
 465 1113 l 1,1,-1
 625 783 l 1,2,-1
 917 1113 l 1,3,-1
 1293 1113 l 1,4,-1
 793 569 l 1,5,-1
 1102 0 l 1,6,-1
 726 0 l 1,7,-1
 543 352 l 1,8,-1
 231 0 l 1,9,-1
 -149 0 l 1,10,-1
 384 569 l 1,11,-1
 89 1113 l 1,0,-1
EndSplineSet
Layer: 2
SplineSet
89 1113 m 1
 465 1113 l 1
 625 783 l 1
 917 1113 l 1
 1293 1113 l 1
 793 569 l 1
 1102 0 l 1
 726 0 l 1
 543 352 l 1
 231 0 l 1
 -149 0 l 1
 384 569 l 1
 89 1113 l 1
EndSplineSet
EndChar

StartChar: y
Encoding: 90 121 92
Width: 1321
VWidth: 3555
Flags: W
HStem: -441 234<-17 244.178> 1093 20G<61 421.032 956.443 1323>
VStem: 61 356<757 1113>
DStem2: 417 1113 61 1113 0.229881 -0.973219<0 768.749> 319 -75 621 -102 0.500278 0.865865<-159.039 32.2487 500.855 1183.06>
LayerCount: 3
Fore
SplineSet
417 1113 m 1,0,-1
 569 359 l 1,1,-1
 967 1113 l 1,2,-1
 1323 1113 l 1,3,-1
 621 -102 l 2,4,5
 512 -292 512 -292 403.5 -366.5 c 128,-1,6
 295 -441 295 -441 146 -441 c 2,7,-1
 -64 -441 l 1,8,-1
 -17 -207 l 1,9,-1
 92 -207 l 2,10,11
 181 -207 181 -207 231 -178 c 128,-1,12
 281 -149 281 -149 316 -75 c 2,13,-1
 335 -47 l 1,14,-1
 61 1113 l 1,15,-1
 417 1113 l 1,0,-1
EndSplineSet
Layer: 2
SplineSet
417 1113 m 1
 569 359 l 1
 967 1113 l 1
 1323 1113 l 1
 621 -102 l 2
 518 -280 396 -441 146 -441 c 2
 -64 -441 l 1
 -17 -207 l 1
 92 -207 l 2
 228 -207 268 -163 319 -75 c 2
 335 -47 l 1
 61 1113 l 1
 417 1113 l 1
EndSplineSet
EndChar

StartChar: z
Encoding: 91 122 93
Width: 1182
VWidth: 3555
Flags: W
HStem: 0 252<370 910> 861 252<153 665>
DStem2: -40 245 370 252 0.754422 0.65639<313.908 936.204>
LayerCount: 3
Fore
SplineSet
1123 1113 m 1,0,-1
 1078 868 l 1,1,-1
 370 252 l 1,2,-1
 957 252 l 1,3,-1
 910 0 l 1,4,-1
 -85 0 l 1,5,-1
 -40 245 l 1,6,-1
 665 861 l 1,7,-1
 106 861 l 1,8,-1
 153 1113 l 1,9,-1
 1123 1113 l 1,0,-1
EndSplineSet
Layer: 2
SplineSet
1123 1113 m 1
 1078 868 l 1
 370 252 l 1
 957 252 l 1
 910 0 l 1
 -85 0 l 1
 -40 245 l 1
 665 861 l 1
 106 861 l 1
 153 1113 l 1
 1123 1113 l 1
EndSplineSet
EndChar

StartChar: braceleft
Encoding: 92 123 94
Width: 1449
VWidth: 3555
Flags: W
HStem: -335 229<751.996 950> 495 217<210 400.031> 1319 228<1019.2 1272>
VStem: 375 356<-180.315 188.906> 438 353<142.539 454.758>
DStem2: 315.857 -335 653.585 -335 0.190809 0.981627<426.041 674.658 1123.08 1704.92>
LayerCount: 3
Fore
SplineSet
644 608 m 1,0,1
 721 587 721 587 756 545.5 c 128,-1,2
 791 504 791 504 791 424 c 259,3,4
 791 368 791 368 774 285 c 2,5,-1
 743 125 l 2,6,7
 731 59 731 59 731 17 c 259,8,9
 731 -46 731 -46 764.5 -76 c 128,-1,10
 798 -106 798 -106 924 -106 c 2,11,-1
 995 -106 l 1,12,-1
 950 -335 l 1,13,-1
 733 -335 l 2,14,15
 563 -335 563 -335 469 -280 c 128,-1,16
 375 -225 375 -225 375 -78 c 259,17,18
 375 -29 375 -29 387 31 c 2,19,-1
 427 224 l 2,20,21
 438 279 438 279 438 330 c 259,22,23
 438 424 438 424 390.5 459.5 c 128,-1,24
 343 495 343 495 231 495 c 2,25,-1
 170 495 l 1,26,-1
 210 712 l 1,27,-1
 271 712 l 2,28,29
 420 712 420 712 483.5 771 c 128,-1,30
 547 830 547 830 573 974 c 2,31,-1
 611 1180 l 2,32,33
 646 1371 646 1371 761.5 1459 c 128,-1,34
 877 1547 877 1547 1099 1547 c 2,35,-1
 1316 1547 l 1,36,-1
 1272 1319 l 1,37,-1
 1201 1319 l 2,38,39
 1042 1319 1042 1319 997 1258.5 c 128,-1,40
 952 1198 952 1198 932 1095 c 2,41,-1
 899 929 l 2,42,43
 869 777 869 777 816.5 707 c 128,-1,44
 764 637 764 637 644 608 c 1,0,1
EndSplineSet
Layer: 2
SplineSet
644 608 m 1xe8
 742 581 791 535 791 424 c 3xe8
 791 386 785 339 774 285 c 2
 743 125 l 2
 735 81 731 45 731 17 c 3
 731 -98 806 -106 924 -106 c 2
 995 -106 l 1
 950 -335 l 1
 733 -335 l 2
 512 -335 375 -278 375 -78 c 3xf0
 375 -45 379 -9 387 31 c 2
 427 224 l 2
 435 264 438 299 438 330 c 3
 438 459 375 495 231 495 c 2
 170 495 l 1
 210 712 l 1
 271 712 l 2
 476 712 540 790 573 974 c 2
 611 1180 l 2
 657 1432 801 1547 1099 1547 c 2
 1316 1547 l 1
 1272 1319 l 1
 1201 1319 l 2
 1011 1319 964 1257 932 1095 c 2
 899 929 l 2
 861 736 811 648 644 608 c 1xe8
EndSplineSet
EndChar

StartChar: bar
Encoding: 93 124 95
Width: 743
VWidth: 3555
Flags: W
VStem: -14 228<-484 -256> 380 228<1326 1554>
DStem2: -14 -484 214 -484 0.190809 0.981627<43.5045 2075.73>
LayerCount: 3
Fore
SplineSet
214 -484 m 1,0,-1
 -14 -484 l 1,1,-1
 380 1554 l 1,2,-1
 608 1554 l 1,3,-1
 214 -484 l 1,0,-1
EndSplineSet
Layer: 2
SplineSet
214 -484 m 1
 -14 -484 l 1
 380 1554 l 1
 608 1554 l 1
 214 -484 l 1
EndSplineSet
EndChar

StartChar: braceright
Encoding: 94 125 96
Width: 1449
VWidth: 3555
Flags: W
HStem: -335 229<54 303.397> 495 217<914.631 1113> 1319 228<373 571.572>
VStem: 531 350<745.364 1094.04>
DStem2: 297.585 -335 636.857 -335 0.190809 0.981627<276.94 844.191 1293.6 1571.11>
LayerCount: 3
Fore
SplineSet
590 1210 m 259,0,1
 590 1266 590 1266 554 1292.5 c 128,-1,2
 518 1319 518 1319 398 1319 c 2,3,-1
 330 1319 l 1,4,-1
 373 1547 l 1,5,-1
 590 1547 l 2,6,7
 767 1547 767 1547 855.5 1490 c 128,-1,8
 944 1433 944 1433 944 1292 c 259,9,10
 944 1242 944 1242 932 1180 c 2,11,-1
 892 974 l 2,12,13
 881 917 881 917 881 868 c 259,14,15
 881 775 881 775 927.5 743.5 c 128,-1,16
 974 712 974 712 1092 712 c 2,17,-1
 1153 712 l 1,18,-1
 1113 495 l 1,19,-1
 1052 495 l 2,20,21
 902 495 902 495 838.5 433.5 c 128,-1,22
 775 372 775 372 746 224 c 2,23,-1
 708 31 l 2,24,25
 671 -159 671 -159 557.5 -247 c 128,-1,26
 444 -335 444 -335 224 -335 c 2,27,-1
 7 -335 l 1,28,-1
 54 -106 l 1,29,-1
 122 -106 l 2,30,31
 249 -106 249 -106 302 -67 c 128,-1,32
 355 -28 355 -28 387 125 c 2,33,-1
 420 285 l 2,34,35
 450 433 450 433 506.5 505.5 c 128,-1,36
 563 578 563 578 686 608 c 1,37,38
 602 628 602 628 566.5 670 c 128,-1,39
 531 712 531 712 531 801 c 259,40,41
 531 870 531 870 543 929 c 2,42,-1
 576 1095 l 2,43,44
 590 1170 590 1170 590 1210 c 259,0,1
EndSplineSet
Layer: 2
SplineSet
590 1210 m 3
 590 1312 507 1319 398 1319 c 2
 330 1319 l 1
 373 1547 l 1
 590 1547 l 2
 811 1547 944 1490 944 1292 c 3
 944 1258 940 1221 932 1180 c 2
 892 974 l 2
 885 933 881 898 881 868 c 3
 881 739 942 712 1092 712 c 2
 1153 712 l 1
 1113 495 l 1
 1052 495 l 2
 843 495 783 410 746 224 c 2
 708 31 l 2
 659 -219 521 -335 224 -335 c 2
 7 -335 l 1
 54 -106 l 1
 122 -106 l 2
 319 -106 352 -44 387 125 c 2
 420 285 l 2
 459 475 517 566 686 608 c 1
 577 634 531 679 531 801 c 3
 531 837 533 880 543 929 c 2
 576 1095 l 2
 585 1143 590 1182 590 1210 c 3
EndSplineSet
EndChar

StartChar: asciitilde
Encoding: 95 126 97
Width: 1701
VWidth: 3555
Flags: W
HStem: 455 231<891.064 1241.06> 590 231<358.038 695.839>
LayerCount: 3
Fore
SplineSet
1422 601 m 1,0,1
 1310 526 1310 526 1222 490.5 c 128,-1,2
 1134 455 1134 455 1017 455 c 259,3,4
 935 455 935 455 872 478 c 128,-1,5
 809 501 809 501 754 523 c 256,6,7
 590 590 590 590 505 590 c 259,8,9
 331 590 331 590 118 434 c 1,10,-1
 163 672 l 1,11,12
 273 744 273 744 370.5 782.5 c 128,-1,13
 468 821 468 821 573 821 c 259,14,15
 650 821 650 821 712.5 798.5 c 128,-1,16
 775 776 775 776 831 754 c 256,17,18
 1002 686 1002 686 1088 686 c 259,19,20
 1206 686 1206 686 1291.5 729.5 c 128,-1,21
 1377 773 1377 773 1472 845 c 1,22,-1
 1422 601 l 1,0,1
EndSplineSet
Layer: 2
SplineSet
1422 601 m 1x80
 1297 518 1189 455 1017 455 c 3x80
 926 455 839 489 754 523 c 0
 670 557 587 590 505 590 c 3
 363 590 230 516 118 434 c 1
 163 672 l 1
 293 757 422 821 573 821 c 3x40
 663 821 748 787 831 754 c 0
 916 720 1000 686 1088 686 c 259
 1253 686 1355 757 1472 845 c 1
 1422 601 l 1x80
EndSplineSet
EndChar

StartChar: Adieresis
Encoding: 132 196 98
Width: 1574
VWidth: 3555
Flags: W
HStem: 0 21G<-167 224.996 999.827 1387> 271 269<509 913> 1463 20G<656.739 1126.56> 1639 248<637 821 1028 1212>
VStem: 587 234<1639 1873> 637 234<1653 1887> 977 235<1639 1874> 1028 234<1653 1887>
DStem2: 1123 1483 832 1134 0.175262 -0.984522<292.597 891.599 1164.67 1404.99> 1387 0 913 540 0.175262 -0.984522<-1213.72 -614.716 -341.642 -67.3007>
LayerCount: 3
Fore
SplineSet
363 271 m 1,0,-1
 214 0 l 1,1,-1
 -167 0 l 1,2,-1
 668 1483 l 1,3,-1
 1123 1483 l 1,4,-1
 1387 0 l 1,5,-1
 1003 0 l 1,6,-1
 960 271 l 1,7,-1
 363 271 l 1,0,-1
913 540 m 1,8,-1
 832 1134 l 1,9,-1
 509 540 l 1,10,-1
 913 540 l 1,8,-1
871 1887 m 1,11,-1
 821 1639 l 1,12,-1
 587 1639 l 1,13,-1
 637 1887 l 1,14,-1
 871 1887 l 1,11,-1
1262 1887 m 1,15,-1
 1212 1639 l 1,16,-1
 977 1639 l 1,17,-1
 1028 1887 l 1,18,-1
 1262 1887 l 1,15,-1
EndSplineSet
Layer: 2
SplineSet
363 271 m 1xf0
 214 0 l 1
 -167 0 l 1
 668 1483 l 1
 1123 1483 l 1
 1387 0 l 1
 1003 0 l 1
 960 271 l 1
 363 271 l 1xf0
913 540 m 1
 832 1134 l 1
 509 540 l 1
 913 540 l 1
871 1887 m 1xf4
 821 1639 l 1
 587 1639 l 1xf8
 637 1887 l 1
 871 1887 l 1xf4
1262 1887 m 1xf1
 1212 1639 l 1
 977 1639 l 1xf2
 1028 1887 l 1
 1262 1887 l 1xf1
EndSplineSet
EndChar

StartChar: Aring
Encoding: 133 197 99
Width: 1574
VWidth: 3555
Flags: W
HStem: 0 21G<-167 224.996 999.827 1387> 271 269<509 913> 1731 161<838.468 1027.85>
VStem: 632 155<1493.61 1679.6> 1048 155<1523.1 1710.75>
DStem2: 1127 1455 832 1134 0.175908 -0.984407<264.102 863.088 1136.16 1370.67> 1387 0 913 540 0.175908 -0.984407<-1213.95 -614.96 -341.887 -67.5486>
LayerCount: 3
Fore
SplineSet
1203 1654 m 259,0,1
 1203 1534 1203 1534 1127 1455 c 1,2,-1
 1387 0 l 1,3,-1
 1003 0 l 1,4,-1
 960 271 l 1,5,-1
 363 271 l 1,6,-1
 214 0 l 1,7,-1
 -167 0 l 1,8,-1
 648 1455 l 1,9,10
 632 1532 632 1532 632 1556 c 259,11,12
 632 1690 632 1690 736.5 1791 c 128,-1,13
 841 1892 841 1892 977 1892 c 259,14,15
 1077 1892 1077 1892 1140 1824.5 c 128,-1,16
 1203 1757 1203 1757 1203 1654 c 259,0,1
946 1731 m 259,17,18
 882 1731 882 1731 834.5 1685 c 128,-1,19
 787 1639 787 1639 787 1576 c 259,20,21
 787 1530 787 1530 817.5 1503 c 128,-1,22
 848 1476 848 1476 896 1476 c 259,23,24
 958 1476 958 1476 1003 1521.5 c 128,-1,25
 1048 1567 1048 1567 1048 1629 c 259,26,27
 1048 1672 1048 1672 1018 1701.5 c 128,-1,28
 988 1731 988 1731 946 1731 c 259,17,18
913 540 m 1,29,-1
 832 1134 l 1,30,-1
 509 540 l 1,31,-1
 913 540 l 1,29,-1
EndSplineSet
Layer: 2
SplineSet
1203 1654 m 3
 1203 1568 1173 1503 1127 1455 c 1
 1387 0 l 1
 1003 0 l 1
 960 271 l 1
 363 271 l 1
 214 0 l 1
 -167 0 l 1
 648 1455 l 1
 642 1484 632 1520 632 1556 c 3
 632 1735 797 1892 977 1892 c 3
 1112 1892 1203 1789 1203 1654 c 3
946 1731 m 3
 861 1731 787 1661 787 1576 c 3
 787 1514 834 1476 896 1476 c 3
 978 1476 1048 1546 1048 1629 c 3
 1048 1687 1001 1731 946 1731 c 3
913 540 m 1
 832 1134 l 1
 509 540 l 1
 913 540 l 1
EndSplineSet
EndChar

StartChar: Ccedilla
Encoding: 135 199 100
Width: 1492
VWidth: 3555
Flags: W
HStem: -398 150<400.165 684.541> 1234 273<785.159 1234.95>
VStem: 44 403<415.322 843.111> 702 161<-227.726 -47.0732>
LayerCount: 3
Back
SplineSet
447 600 m 3
 447 375 583 245 804 245 c 3
 996 245 1120 303 1259 387 c 1
 1198 82 l 1
 1044 9 884 -28 719 -28 c 3
 319.27337906 -28 44 157.206344606 44 553 c 3
 44 1092.05936593 454.940784794 1507 1017 1507 c 3
 1183 1507 1329 1470 1455 1397 c 1
 1394 1092 l 1
 1286 1180 1173 1234 995 1234 c 3
 660.32305521 1234 447 945.778062795 447 600 c 3
569 -248 m 3
 648 -248 702 -217 702 -148 c 3
 702 -114 686 -65 654 0 c 1
 790 0 l 1
 839 -73 863 -136 863 -189 c 3
 863 -332.416852178 740.453669619 -398 576 -398 c 3
 511 -398 434 -386 380 -373 c 1
 404 -220 l 1
 474 -239 529 -248 569 -248 c 3
EndSplineSet
Fore
SplineSet
569 -248 m 259,0,1
 702 -248 702 -248 702 -148 c 259,2,3
 702 -103 702 -103 667 -27 c 1,4,5
 384 -16 384 -16 214 128.5 c 128,-1,6
 44 273 44 273 44 553 c 259,7,8
 44 959 44 959 321 1233 c 128,-1,9
 598 1507 598 1507 1017 1507 c 259,10,11
 1265 1507 1265 1507 1455 1397 c 1,12,-1
 1394 1092 l 1,13,14
 1307 1163 1307 1163 1214 1198.5 c 128,-1,15
 1121 1234 1121 1234 995 1234 c 259,16,17
 753 1234 753 1234 600 1050 c 128,-1,18
 447 866 447 866 447 600 c 259,19,20
 447 432 447 432 542 338.5 c 128,-1,21
 637 245 637 245 804 245 c 259,22,23
 937 245 937 245 1038.5 280 c 128,-1,24
 1140 315 1140 315 1259 387 c 1,25,-1
 1198 82 l 1,26,27
 1006 -9 1006 -9 806 -25 c 1,28,29
 863 -119 863 -119 863 -189 c 259,30,31
 863 -292 863 -292 784 -345 c 128,-1,32
 705 -398 705 -398 576 -398 c 259,33,34
 484 -398 484 -398 380 -373 c 1,35,-1
 404 -220 l 1,36,37
 507 -248 507 -248 569 -248 c 259,0,1
EndSplineSet
Layer: 2
SplineSet
569 -248 m 3
 648 -248 702 -217 702 -148 c 3
 702 -119 691 -79 667 -27 c 1
 296 -11 44 175 44 553 c 0
 44 1092 455 1507 1017 1507 c 3
 1183 1507 1329 1470 1455 1397 c 1
 1394 1092 l 1
 1286 1180 1173 1234 995 1234 c 3
 660 1234 447 946 447 600 c 3
 447 375 583 245 804 245 c 3
 996 245 1120 303 1259 387 c 1
 1198 82 l 1
 1071 22 940 -14 806 -25 c 1
 844 -88 863 -142 863 -189 c 0
 863 -332 740 -398 576 -398 c 3
 511 -398 434 -386 380 -373 c 1
 404 -220 l 1
 474 -239 529 -248 569 -248 c 3
EndSplineSet
EndChar

StartChar: Eacute
Encoding: 137 201 101
Width: 1385
VWidth: 3555
Flags: W
HStem: 0 288<444 1059> 628 285<566 1123> 1194 289<621 1276>
DStem2: 7 0 388.018 0 0.190809 0.981627<366.092 712.82 1002.89 1289.22>
LayerCount: 3
Fore
SplineSet
1333 1483 m 1,0,-1
 1276 1194 l 1,1,-1
 621 1194 l 1,2,-1
 566 913 l 1,3,-1
 1177 913 l 1,4,-1
 1123 628 l 1,5,-1
 512 628 l 1,6,-1
 444 288 l 1,7,-1
 1113 288 l 1,8,-1
 1059 0 l 1,9,-1
 7 0 l 1,10,-1
 295 1483 l 1,11,-1
 1333 1483 l 1,0,-1
1205 1887 m 1,12,-1
 871 1621 l 1,13,-1
 675 1621 l 1,14,-1
 924 1887 l 1,15,-1
 1205 1887 l 1,12,-1
EndSplineSet
Layer: 2
SplineSet
1333 1483 m 1
 1276 1194 l 1
 621 1194 l 1
 566 913 l 1
 1177 913 l 1
 1123 628 l 1
 512 628 l 1
 444 288 l 1
 1113 288 l 1
 1059 0 l 1
 7 0 l 1
 295 1483 l 1
 1333 1483 l 1
1205 1887 m 1
 871 1621 l 1
 675 1621 l 1
 924 1887 l 1
 1205 1887 l 1
EndSplineSet
EndChar

StartChar: Ntilde
Encoding: 145 209 102
Width: 1697
VWidth: 3555
Flags: W
HStem: 0 21G<7 369.854 903.156 1343.88> 1463 20G<291.116 728.758 1262.07 1628> 1621 150<1020.33 1184.35> 1738 149<769.132 929.798>
VStem: 7 359<0 359> 604 139<1621 1716.14> 1214 139<1748 1887> 1266 362<1121 1483>
DStem2: 7 0 366 0 0.190809 0.981627<68.5004 1104.21> 722 1483 562 1017 0.323753 -0.946141<389.101 1074.54> 975.613 0 1340 0 0.190809 0.981627<473.703 1511.16>
LayerCount: 3
Fore
SplineSet
722 1483 m 1,0,-1
 1066 465 l 1,1,-1
 1266 1483 l 1,2,-1
 1628 1483 l 1,3,-1
 1340 0 l 1,4,-1
 910 0 l 1,5,-1
 562 1017 l 1,6,-1
 366 0 l 1,7,-1
 7 0 l 1,8,-1
 295 1483 l 1,9,-1
 722 1483 l 1,0,-1
913 1703 m 2,10,11
 910 1706 910 1706 908 1706 c 128,-1,12
 906 1706 906 1706 903 1710 c 0,13,14
 858 1738 858 1738 838 1738 c 0,15,16
 807 1738 807 1738 780 1708.5 c 128,-1,17
 753 1679 753 1679 743 1625 c 1,18,-1
 743 1621 l 1,19,-1
 604 1621 l 1,20,-1
 611 1649 l 2,21,22
 628 1757 628 1757 696 1822 c 128,-1,23
 764 1887 764 1887 854 1887 c 0,24,25
 913 1887 913 1887 991 1838 c 2,26,-1
 1042 1798 l 2,27,28
 1082 1771 1082 1771 1109 1771 c 0,29,30
 1144 1771 1144 1771 1172.5 1801 c 128,-1,31
 1201 1831 1201 1831 1212 1887 c 1,32,-1
 1351 1887 l 1,33,34
 1347 1880 1347 1880 1343.5 1869.5 c 128,-1,35
 1340 1859 1340 1859 1340 1856 c 0,36,37
 1319 1753 1319 1753 1253 1687 c 128,-1,38
 1187 1621 1187 1621 1099 1621 c 0,39,40
 1059 1621 1059 1621 1025 1631.5 c 128,-1,41
 991 1642 991 1642 963 1672 c 1,42,-1
 913 1703 l 2,10,11
EndSplineSet
Layer: 2
SplineSet
1099 1621 m 3xee
 1038 1621 1005 1646 964 1672 c 2
 915 1703 l 2
 892 1718 854 1738 840 1738 c 3xde
 784 1738 754 1680 743 1625 c 1
 743 1621 l 1
 604 1621 l 1xee
 621 1748 700 1887 854 1887 c 3xde
 895 1887 955 1869 993 1838 c 2
 1042 1798 l 2
 1062 1782 1091 1771 1109 1771 c 3xee
 1170 1771 1202 1828 1214 1887 c 1
 1353 1887 l 1xde
 1328 1787 1267 1621 1099 1621 c 3xee
722 1483 m 1
 1066 465 l 1
 1266 1483 l 1
 1628 1483 l 1xcd
 1340 0 l 1
 910 0 l 1
 562 1017 l 1
 366 0 l 1
 7 0 l 1
 295 1483 l 1
 722 1483 l 1
EndSplineSet
EndChar

StartChar: Odieresis
Encoding: 150 214 103
Width: 1727
VWidth: 3555
Flags: W
HStem: -28 273<572.531 914.06> 1234 273<753.644 1087.99> 1639 248<719 903 1109 1293>
VStem: 42 402<370.923 850.069> 668 235<1639 1874> 719 234<1653 1887> 1059 234<1639 1873> 1109 235<1652 1887> 1216 395<634 1101.17>
LayerCount: 3
Fore
SplineSet
929 1234 m 0,0,1
 746 1234 746 1234 627.5 1104 c 128,-1,2
 509 974 509 974 462 740 c 256,3,4
 417 505 417 505 485.5 375 c 128,-1,5
 554 245 554 245 736 245 c 0,6,7
 906 245 906 245 1029.5 375 c 128,-1,8
 1153 505 1153 505 1198 740 c 256,9,10
 1245 974 1245 974 1172 1104 c 128,-1,11
 1099 1234 1099 1234 929 1234 c 0,0,1
981 1507 m 256,12,13
 1344 1507 1344 1507 1502 1304.5 c 128,-1,14
 1660 1102 1660 1102 1588 740 c 256,15,16
 1517 377 1517 377 1281 174.5 c 128,-1,17
 1045 -28 1045 -28 682 -28 c 256,18,19
 319 -28 319 -28 156 174.5 c 128,-1,20
 -7 377 -7 377 64 740 c 256,21,22
 135 1102 135 1102 376.5 1304.5 c 128,-1,23
 618 1507 618 1507 981 1507 c 256,12,13
953 1887 m 1,24,-1
 903 1639 l 1,25,-1
 668 1639 l 1,26,-1
 719 1887 l 1,27,-1
 953 1887 l 1,24,-1
1344 1887 m 1,28,-1
 1293 1639 l 1,29,-1
 1059 1639 l 1,30,-1
 1109 1887 l 1,31,-1
 1344 1887 l 1,28,-1
EndSplineSet
Layer: 2
SplineSet
1216 907 m 3xf080
 1216 1106 1116 1234 929 1234 c 3
 607 1234 444 886 444 570 c 3
 444 366 538 245 736 245 c 3
 1048 245 1216 574 1216 907 c 3xf080
682 -28 m 259
 295 -28 42 155 42 534 c 3
 42 1082 417 1507 981 1507 c 259
 1366 1507 1611 1327 1611 951 c 3
 1611 402 1248 -28 682 -28 c 259
953 1887 m 1xf4
 903 1639 l 1
 668 1639 l 1xf8
 719 1887 l 1
 953 1887 l 1xf4
1344 1887 m 1xf1
 1293 1639 l 1
 1059 1639 l 1xf2
 1109 1887 l 1
 1344 1887 l 1xf1
EndSplineSet
EndChar

StartChar: Udieresis
Encoding: 156 220 104
Width: 1649
VWidth: 3555
Flags: W
HStem: -28 276<544.671 860.421> 1463 20G<291.108 679 1190.11 1575> 1639 248<675 861 1066 1252>
VStem: 102 387<306.472 719.016> 295 384<1099 1483> 625 236<1639 1875> 675 235<1652 1887> 1017 235<1639 1874> 1066 236<1651 1887> 1194 381<1102 1483>
DStem2: 1.09545 -28 384.095 -28 0.190809 0.981627<567.15 1539.32> 900.095 -28 1280.1 -28 0.190809 0.981627<399.197 1539.32>
LayerCount: 3
Fore
SplineSet
679 1483 m 1,0,-1
 505 594 l 2,1,2
 469 413 469 413 514 330.5 c 128,-1,3
 559 248 559 248 693 248 c 256,4,5
 828 248 828 248 906 330.5 c 128,-1,6
 984 413 984 413 1021 594 c 2,7,-1
 1194 1483 l 1,8,-1
 1575 1483 l 1,9,-1
 1401 594 l 2,10,11
 1340 281 1340 281 1155 126.5 c 128,-1,12
 970 -28 970 -28 641 -28 c 0,13,14
 0 -28 0 -28 122 594 c 2,15,-1
 295 1483 l 1,16,-1
 679 1483 l 1,0,-1
910 1887 m 1,17,-1
 861 1639 l 1,18,-1
 625 1639 l 1,19,-1
 675 1887 l 1,20,-1
 910 1887 l 1,17,-1
1302 1887 m 1,21,-1
 1252 1639 l 1,22,-1
 1017 1639 l 1,23,-1
 1066 1887 l 1,24,-1
 1302 1887 l 1,21,-1
EndSplineSet
Layer: 2
SplineSet
489 453 m 3xf0
 489 314 552 248 693 248 c 259
 908 248 982 393 1021 594 c 2
 1194 1483 l 1
 1575 1483 l 1
 1401 594 l 2
 1324 197 1102 -28 641 -28 c 3
 282 -28 102 118 102 411 c 3xf040
 102 467 109 528 122 594 c 2
 295 1483 l 1
 679 1483 l 1xe8
 505 594 l 2
 494 540 489 494 489 453 c 3xf0
910 1887 m 1xe2
 861 1639 l 1
 625 1639 l 1xe4
 675 1887 l 1
 910 1887 l 1xe2
1302 1887 m 1xe080
 1252 1639 l 1
 1017 1639 l 1xe1
 1066 1887 l 1
 1302 1887 l 1xe080
EndSplineSet
EndChar

StartChar: aacute
Encoding: 161 225 105
Width: 1371
VWidth: 3555
Flags: W
HStem: -28 235<197.5 515.592> 0 21G<679 1038.82> 502 210<405.47 774> 899 238<265.76 786.438>
VStem: -37 371<233.102 434.807> 825 348<712.635 861.398>
LayerCount: 3
Fore
SplineSet
587 502 m 1,0,1
 366 502 366 502 339 352 c 0,2,3
 323 285 323 285 358.5 246 c 128,-1,4
 394 207 394 207 476 207 c 0,5,6
 580 207 580 207 663 279.5 c 128,-1,7
 746 352 746 352 767 462 c 2,8,-1
 774 502 l 1,9,-1
 587 502 l 1,0,1
1035 0 m 1,10,-1
 679 0 l 1,11,-1
 708 163 l 1,12,13
 615 64 615 64 516 18 c 128,-1,14
 417 -28 417 -28 288 -28 c 0,15,16
 118 -28 118 -28 28.5 73 c 128,-1,17
 -61 174 -61 174 -28 335 c 0,18,19
 10 529 10 529 161 620.5 c 128,-1,20
 312 712 312 712 601 712 c 2,21,-1
 814 712 l 1,22,-1
 821 740 l 2,23,24
 838 825 838 825 778.5 862 c 128,-1,25
 719 899 719 899 576 899 c 0,26,27
 462 899 462 899 361 880 c 128,-1,28
 260 861 260 861 163 811 c 1,29,-1
 217 1085 l 1,30,31
 339 1109 339 1109 456 1123 c 128,-1,32
 573 1137 573 1137 686 1137 c 0,33,34
 988 1137 988 1137 1098 1018 c 128,-1,35
 1208 899 1208 899 1156 634 c 2,36,-1
 1035 0 l 1,10,-1
1245 1625 m 1,37,-1
 807 1252 l 1,38,-1
 611 1252 l 1,39,-1
 963 1625 l 1,40,-1
 1245 1625 l 1,37,-1
EndSplineSet
Layer: 2
SplineSet
334 313 m 3xbc
 334 237 394 207 476 207 c 3
 626 207 744 330 767 462 c 2
 774 502 l 1
 587 502 l 2
 428 502 334 443 334 313 c 3xbc
288 -28 m 3
 107 -28 -37 72 -37 253 c 3
 -37 590 233 712 601 712 c 2
 814 712 l 1
 821 740 l 2
 824 753 825 764 825 775 c 3
 825 884 709 899 576 899 c 3
 406 899 282 872 163 811 c 1
 217 1085 l 1
 366 1114 518 1137 686 1137 c 3
 992 1137 1173 1062 1173 789 c 3
 1173 742 1167 691 1156 634 c 2
 1035 0 l 1
 679 0 l 1x7c
 708 163 l 1
 600 48 489 -28 288 -28 c 3
1245 1625 m 1
 807 1252 l 1
 611 1252 l 1
 963 1625 l 1
 1245 1625 l 1
EndSplineSet
EndChar

StartChar: agrave
Encoding: 160 224 106
Width: 1371
VWidth: 3555
Flags: W
HStem: -28 235<197.5 515.592> 0 21G<679 1038.82> 502 210<405.47 774> 899 238<265.76 786.438>
VStem: -37 371<233.102 434.807> 825 348<712.635 861.398>
LayerCount: 3
Fore
SplineSet
587 502 m 1,0,1
 366 502 366 502 339 352 c 0,2,3
 323 285 323 285 358.5 246 c 128,-1,4
 394 207 394 207 476 207 c 0,5,6
 580 207 580 207 663 279.5 c 128,-1,7
 746 352 746 352 767 462 c 2,8,-1
 774 502 l 1,9,-1
 587 502 l 1,0,1
1035 0 m 1,10,-1
 679 0 l 1,11,-1
 708 163 l 1,12,13
 615 64 615 64 516 18 c 128,-1,14
 417 -28 417 -28 288 -28 c 0,15,16
 118 -28 118 -28 28.5 73 c 128,-1,17
 -61 174 -61 174 -28 335 c 0,18,19
 10 529 10 529 161 620.5 c 128,-1,20
 312 712 312 712 601 712 c 2,21,-1
 814 712 l 1,22,-1
 821 740 l 2,23,24
 838 825 838 825 778.5 862 c 128,-1,25
 719 899 719 899 576 899 c 0,26,27
 462 899 462 899 361 880 c 128,-1,28
 260 861 260 861 163 811 c 1,29,-1
 217 1085 l 1,30,31
 339 1109 339 1109 456 1123 c 128,-1,32
 573 1137 573 1137 686 1137 c 0,33,34
 988 1137 988 1137 1098 1018 c 128,-1,35
 1208 899 1208 899 1156 634 c 2,36,-1
 1035 0 l 1,10,-1
903 1252 m 1,37,-1
 712 1252 l 1,38,-1
 413 1625 l 1,39,-1
 693 1625 l 1,40,-1
 903 1252 l 1,37,-1
EndSplineSet
Layer: 2
SplineSet
334 313 m 3xbc
 334 237 394 207 476 207 c 3
 626 207 744 330 767 462 c 2
 774 502 l 1
 587 502 l 2
 428 502 334 443 334 313 c 3xbc
288 -28 m 3
 107 -28 -37 72 -37 253 c 3
 -37 590 233 712 601 712 c 2
 814 712 l 1
 821 740 l 2
 824 753 825 764 825 775 c 3
 825 884 709 899 576 899 c 3
 406 899 282 872 163 811 c 1
 217 1085 l 1
 366 1114 518 1137 686 1137 c 3
 992 1137 1173 1062 1173 789 c 3
 1173 742 1167 691 1156 634 c 2
 1035 0 l 1
 679 0 l 1x7c
 708 163 l 1
 600 48 489 -28 288 -28 c 3
903 1252 m 1
 712 1252 l 1
 413 1625 l 1
 693 1625 l 1
 903 1252 l 1
EndSplineSet
EndChar

StartChar: acircumflex
Encoding: 162 226 107
Width: 1371
VWidth: 3555
Flags: W
HStem: -28 235<197.5 515.592> 0 21G<679 1038.82> 502 210<405.47 774> 899 238<265.76 786.438>
VStem: -37 371<233.102 434.807> 825 348<712.635 861.398>
LayerCount: 3
Fore
SplineSet
587 502 m 1,0,1
 366 502 366 502 339 352 c 0,2,3
 323 285 323 285 358.5 246 c 128,-1,4
 394 207 394 207 476 207 c 0,5,6
 580 207 580 207 663 279.5 c 128,-1,7
 746 352 746 352 767 462 c 2,8,-1
 774 502 l 1,9,-1
 587 502 l 1,0,1
1035 0 m 1,10,-1
 679 0 l 1,11,-1
 708 163 l 1,12,13
 615 64 615 64 516 18 c 128,-1,14
 417 -28 417 -28 288 -28 c 0,15,16
 118 -28 118 -28 28.5 73 c 128,-1,17
 -61 174 -61 174 -28 335 c 0,18,19
 10 529 10 529 161 620.5 c 128,-1,20
 312 712 312 712 601 712 c 2,21,-1
 814 712 l 1,22,-1
 821 740 l 2,23,24
 838 825 838 825 778.5 862 c 128,-1,25
 719 899 719 899 576 899 c 0,26,27
 462 899 462 899 361 880 c 128,-1,28
 260 861 260 861 163 811 c 1,29,-1
 217 1085 l 1,30,31
 339 1109 339 1109 456 1123 c 128,-1,32
 573 1137 573 1137 686 1137 c 0,33,34
 988 1137 988 1137 1098 1018 c 128,-1,35
 1208 899 1208 899 1156 634 c 2,36,-1
 1035 0 l 1,10,-1
950 1625 m 1,37,-1
 1130 1252 l 1,38,-1
 957 1252 l 1,39,-1
 804 1476 l 1,40,-1
 559 1252 l 1,41,-1
 384 1252 l 1,42,-1
 708 1625 l 1,43,-1
 950 1625 l 1,37,-1
EndSplineSet
Layer: 2
SplineSet
334 313 m 3xbc
 334 237 394 207 476 207 c 3
 626 207 744 330 767 462 c 2
 774 502 l 1
 587 502 l 2
 428 502 334 443 334 313 c 3xbc
288 -28 m 3
 107 -28 -37 72 -37 253 c 3
 -37 590 233 712 601 712 c 2
 814 712 l 1
 821 740 l 2
 824 753 825 764 825 775 c 3
 825 884 709 899 576 899 c 3
 406 899 282 872 163 811 c 1
 217 1085 l 1
 366 1114 518 1137 686 1137 c 3
 992 1137 1173 1062 1173 789 c 3
 1173 742 1167 691 1156 634 c 2
 1035 0 l 1
 679 0 l 1x7c
 708 163 l 1
 600 48 489 -28 288 -28 c 3
950 1625 m 1
 1130 1252 l 1
 957 1252 l 1
 804 1476 l 1
 559 1252 l 1
 384 1252 l 1
 708 1625 l 1
 950 1625 l 1
EndSplineSet
EndChar

StartChar: adieresis
Encoding: 164 228 108
Width: 1371
VWidth: 3555
Flags: W
HStem: -28 235<197.5 515.592> 0 21G<679 1038.82> 502 210<405.47 774> 899 238<265.76 786.438> 1326 249<509 693 899 1085>
VStem: -37 371<233.102 434.807> 458 235<1326 1561> 509 234<1341 1575> 825 348<712.635 861.398> 849 236<1326 1562> 899 235<1340 1575>
LayerCount: 3
Fore
SplineSet
587 502 m 1,0,1
 366 502 366 502 339 352 c 0,2,3
 323 285 323 285 358.5 246 c 128,-1,4
 394 207 394 207 476 207 c 0,5,6
 580 207 580 207 663 279.5 c 128,-1,7
 746 352 746 352 767 462 c 2,8,-1
 774 502 l 1,9,-1
 587 502 l 1,0,1
1035 0 m 1,10,-1
 679 0 l 1,11,-1
 708 163 l 1,12,13
 615 64 615 64 516 18 c 128,-1,14
 417 -28 417 -28 288 -28 c 0,15,16
 118 -28 118 -28 28.5 73 c 128,-1,17
 -61 174 -61 174 -28 335 c 0,18,19
 10 529 10 529 161 620.5 c 128,-1,20
 312 712 312 712 601 712 c 2,21,-1
 814 712 l 1,22,-1
 821 740 l 2,23,24
 838 825 838 825 778.5 862 c 128,-1,25
 719 899 719 899 576 899 c 0,26,27
 462 899 462 899 361 880 c 128,-1,28
 260 861 260 861 163 811 c 1,29,-1
 217 1085 l 1,30,31
 339 1109 339 1109 456 1123 c 128,-1,32
 573 1137 573 1137 686 1137 c 0,33,34
 988 1137 988 1137 1098 1018 c 128,-1,35
 1208 899 1208 899 1156 634 c 2,36,-1
 1035 0 l 1,10,-1
743 1575 m 1,37,-1
 693 1326 l 1,38,-1
 458 1326 l 1,39,-1
 509 1575 l 1,40,-1
 743 1575 l 1,37,-1
1134 1575 m 1,41,-1
 1085 1326 l 1,42,-1
 849 1326 l 1,43,-1
 899 1575 l 1,44,-1
 1134 1575 l 1,41,-1
EndSplineSet
Layer: 2
SplineSet
334 313 m 3xbc
 334 237 394 207 476 207 c 3
 626 207 744 330 767 462 c 2
 774 502 l 1
 587 502 l 2
 428 502 334 443 334 313 c 3xbc
288 -28 m 3
 107 -28 -37 72 -37 253 c 3
 -37 590 233 712 601 712 c 2
 814 712 l 1
 821 740 l 2
 824 753 825 764 825 775 c 3
 825 884 709 899 576 899 c 3
 406 899 282 872 163 811 c 1
 217 1085 l 1
 366 1114 518 1137 686 1137 c 3
 992 1137 1173 1062 1173 789 c 3
 1173 742 1167 691 1156 634 c 2
 1035 0 l 1
 679 0 l 1x7c80
 708 163 l 1
 600 48 489 -28 288 -28 c 3
743 1575 m 1x3d
 693 1326 l 1
 458 1326 l 1x3e
 509 1575 l 1
 743 1575 l 1x3d
1134 1575 m 1x3c20
 1085 1326 l 1
 849 1326 l 1x3c40
 899 1575 l 1
 1134 1575 l 1x3c20
EndSplineSet
EndChar

StartChar: atilde
Encoding: 163 227 109
Width: 1371
VWidth: 3555
Flags: W
HStem: -28 235<197.5 515.592> 0 21G<679 1038.82> 502 210<405.47 774> 899 238<265.76 786.438> 1299 156<843.035 1001.66> 1425 156<589.567 744.961>
VStem: -37 371<233.102 434.807> 424 138<1302 1404.23> 825 348<712.635 861.398>
LayerCount: 3
Fore
SplineSet
587 502 m 1,0,1
 366 502 366 502 339 352 c 0,2,3
 323 285 323 285 358.5 246 c 128,-1,4
 394 207 394 207 476 207 c 0,5,6
 580 207 580 207 663 279.5 c 128,-1,7
 746 352 746 352 767 462 c 2,8,-1
 774 502 l 1,9,-1
 587 502 l 1,0,1
1035 0 m 1,10,-1
 679 0 l 1,11,-1
 708 163 l 1,12,13
 615 64 615 64 516 18 c 128,-1,14
 417 -28 417 -28 288 -28 c 0,15,16
 118 -28 118 -28 28.5 73 c 128,-1,17
 -61 174 -61 174 -28 335 c 0,18,19
 10 529 10 529 161 620.5 c 128,-1,20
 312 712 312 712 601 712 c 2,21,-1
 814 712 l 1,22,-1
 821 740 l 2,23,24
 838 825 838 825 778.5 862 c 128,-1,25
 719 899 719 899 576 899 c 0,26,27
 462 899 462 899 361 880 c 128,-1,28
 260 861 260 861 163 811 c 1,29,-1
 217 1085 l 1,30,31
 339 1109 339 1109 456 1123 c 128,-1,32
 573 1137 573 1137 686 1137 c 0,33,34
 988 1137 988 1137 1098 1018 c 128,-1,35
 1208 899 1208 899 1156 634 c 2,36,-1
 1035 0 l 1,10,-1
733 1391 m 1,37,-1
 726 1397 l 1,38,39
 679 1425 679 1425 654 1425 c 0,40,41
 587 1425 587 1425 562 1309 c 1,42,-1
 562 1302 l 1,43,-1
 424 1302 l 1,44,45
 448 1432 448 1432 514 1506.5 c 128,-1,46
 580 1581 580 1581 672 1581 c 0,47,48
 729 1581 729 1581 811 1529 c 1,49,-1
 861 1483 l 2,50,51
 899 1455 899 1455 929 1455 c 0,52,53
 963 1455 963 1455 992 1486 c 128,-1,54
 1021 1517 1021 1517 1028 1571 c 1,55,-1
 1031 1578 l 1,56,-1
 1170 1578 l 1,57,58
 1141 1448 1141 1448 1074 1373.5 c 128,-1,59
 1007 1299 1007 1299 913 1299 c 0,60,61
 875 1299 875 1299 846.5 1309 c 128,-1,62
 818 1319 818 1319 779 1351 c 2,63,-1
 733 1391 l 1,37,-1
EndSplineSet
Layer: 2
SplineSet
334 313 m 3xb380
 334 237 394 207 476 207 c 3
 626 207 744 330 767 462 c 2
 774 502 l 1
 587 502 l 2
 428 502 334 443 334 313 c 3xb380
288 -28 m 3
 107 -28 -37 72 -37 253 c 3
 -37 590 233 712 601 712 c 2
 814 712 l 1
 821 740 l 2
 824 753 825 764 825 775 c 3
 825 884 709 899 576 899 c 3
 406 899 282 872 163 811 c 1
 217 1085 l 1
 366 1114 518 1137 686 1137 c 3
 992 1137 1173 1062 1173 789 c 3
 1173 742 1167 691 1156 634 c 2
 1035 0 l 1
 679 0 l 1x7380
 708 163 l 1
 600 48 489 -28 288 -28 c 3
1170 1578 m 1
 1139 1439 1064 1299 913 1299 c 3x3b80
 847 1299 816 1319 779 1351 c 2
 726 1397 l 2
 710 1411 671 1425 654 1425 c 3
 609 1425 579 1386 562 1309 c 1
 562 1302 l 1
 424 1302 l 1
 450 1441 525 1581 672 1581 c 3x3780
 710 1581 782 1556 811 1529 c 2
 861 1483 l 2
 881 1465 909 1455 929 1455 c 3x3b80
 986 1455 1021 1514 1028 1571 c 1
 1031 1578 l 1
 1170 1578 l 1
EndSplineSet
EndChar

StartChar: aring
Encoding: 165 229 110
Width: 1371
VWidth: 3555
Flags: W
HStem: -28 235<197.5 515.592> 0 21G<679 1038.82> 502 210<405.47 774> 899 238<265.76 786.438> 1238 156<697.797 893.645> 1649 153<730.414 924.799>
VStem: -37 371<233.102 434.807> 520 160<1414.65 1599.31> 825 348<712.635 861.398> 945 155<1445.87 1629.13>
LayerCount: 3
Fore
SplineSet
587 502 m 1,0,1
 366 502 366 502 339 352 c 0,2,3
 323 285 323 285 358.5 246 c 128,-1,4
 394 207 394 207 476 207 c 0,5,6
 580 207 580 207 663 279.5 c 128,-1,7
 746 352 746 352 767 462 c 2,8,-1
 774 502 l 1,9,-1
 587 502 l 1,0,1
1035 0 m 1,10,-1
 679 0 l 1,11,-1
 708 163 l 1,12,13
 615 64 615 64 516 18 c 128,-1,14
 417 -28 417 -28 288 -28 c 0,15,16
 118 -28 118 -28 28.5 73 c 128,-1,17
 -61 174 -61 174 -28 335 c 0,18,19
 10 529 10 529 161 620.5 c 128,-1,20
 312 712 312 712 601 712 c 2,21,-1
 814 712 l 1,22,-1
 821 740 l 2,23,24
 838 825 838 825 778.5 862 c 128,-1,25
 719 899 719 899 576 899 c 0,26,27
 462 899 462 899 361 880 c 128,-1,28
 260 861 260 861 163 811 c 1,29,-1
 217 1085 l 1,30,31
 339 1109 339 1109 456 1123 c 128,-1,32
 573 1137 573 1137 686 1137 c 0,33,34
 988 1137 988 1137 1098 1018 c 128,-1,35
 1208 899 1208 899 1156 634 c 2,36,-1
 1035 0 l 1,10,-1
682 1526 m 0,37,38
 672 1469 672 1469 702.5 1431.5 c 128,-1,39
 733 1394 733 1394 790 1394 c 0,40,41
 838 1394 838 1394 885 1431.5 c 128,-1,42
 932 1469 932 1469 943 1526 c 0,43,44
 953 1575 953 1575 921 1612 c 128,-1,45
 889 1649 889 1649 838 1649 c 0,46,47
 783 1649 783 1649 738 1612 c 128,-1,48
 693 1575 693 1575 682 1526 c 0,37,38
526 1526 m 0,49,50
 536 1581 536 1581 568.5 1633.5 c 128,-1,51
 601 1686 601 1686 647 1723 c 128,-1,52
 693 1760 693 1760 750 1781 c 128,-1,53
 807 1802 807 1802 868 1802 c 0,54,55
 920 1802 920 1802 967 1781 c 128,-1,56
 1014 1760 1014 1760 1046 1723 c 128,-1,57
 1078 1686 1078 1686 1092 1633.5 c 128,-1,58
 1106 1581 1106 1581 1095 1526 c 0,59,60
 1085 1465 1085 1465 1051 1413 c 128,-1,61
 1017 1361 1017 1361 968.5 1322 c 128,-1,62
 920 1283 920 1283 865.5 1260.5 c 128,-1,63
 811 1238 811 1238 757 1238 c 0,64,65
 637 1238 637 1238 569.5 1321 c 128,-1,66
 502 1404 502 1404 526 1526 c 0,49,50
EndSplineSet
Layer: 2
SplineSet
334 313 m 3xbf
 334 237 394 207 476 207 c 3
 626 207 744 330 767 462 c 2
 774 502 l 1
 587 502 l 2
 428 502 334 443 334 313 c 3xbf
288 -28 m 3
 107 -28 -37 72 -37 253 c 3
 -37 590 233 712 601 712 c 2
 814 712 l 1
 821 740 l 2
 824 753 825 764 825 775 c 3
 825 884 709 899 576 899 c 3
 406 899 282 872 163 811 c 1
 217 1085 l 1
 366 1114 518 1137 686 1137 c 3
 992 1137 1173 1062 1173 789 c 3
 1173 742 1167 691 1156 634 c 2
 1035 0 l 1
 679 0 l 1x7f80
 708 163 l 1
 600 48 489 -28 288 -28 c 3
838 1649 m 3
 757 1649 680 1580 680 1499 c 3
 680 1435 727 1394 790 1394 c 3
 867 1394 945 1468 945 1549 c 3x3f40
 945 1607 894 1649 838 1649 c 3
868 1802 m 3
 1002 1802 1100 1709 1100 1574 c 3
 1100 1393 936 1238 757 1238 c 3
 625 1238 520 1329 520 1465 c 3
 520 1659 675 1802 868 1802 c 3
EndSplineSet
EndChar

StartChar: ccedilla
Encoding: 167 231 111
Width: 1204
VWidth: 3555
Flags: W
HStem: -398 150<210.533 493.524> 882 255<581.67 968.864>
VStem: -1 378<310.313 669.84> 510 160<-228.034 -45.8717>
LayerCount: 3
Back
SplineSet
543 -28 m 3
 226 -28 -1 105 -1 410 c 3
 -1 862 321 1137 771 1137 c 3
 890 1137 1000 1119 1099 1082 c 1
 1042 790 l 1
 969 848 886 882 764 882 c 3
 519 882 377 710 377 458 c 3
 377 299 474 224 637 224 c 3
 748 224 853 256 950 319 c 1
 892 31 l 1
 788 -6 674 -28 543 -28 c 3
377 -248 m 3
 455 -248 510 -218 510 -151 c 3
 510 -117 494 -67 462 0 c 1
 597 0 l 1
 646 -73 670 -136 670 -189 c 3
 670 -332 550 -398 384 -398 c 3
 322 -398 239 -386 189 -373 c 1
 214 -220 l 1
 282 -239 336 -248 377 -248 c 3
EndSplineSet
Fore
SplineSet
377 -248 m 259,0,1
 438 -248 438 -248 474 -223.5 c 128,-1,2
 510 -199 510 -199 510 -151 c 259,3,4
 510 -107 510 -107 474 -26 c 1,5,6
 254 -12 254 -12 126.5 97 c 128,-1,7
 -1 206 -1 206 -1 410 c 259,8,9
 -1 741 -1 741 213 939 c 128,-1,10
 427 1137 427 1137 771 1137 c 259,11,12
 952 1137 952 1137 1099 1082 c 1,13,-1
 1042 790 l 1,14,15
 926 882 926 882 764 882 c 259,16,17
 583 882 583 882 480 766 c 128,-1,18
 377 650 377 650 377 458 c 259,19,20
 377 341 377 341 444.5 282.5 c 128,-1,21
 512 224 512 224 637 224 c 259,22,23
 804 224 804 224 950 319 c 1,24,-1
 892 31 l 1,25,26
 754 -18 754 -18 614 -26 c 1,27,28
 670 -117 670 -117 670 -189 c 259,29,30
 670 -292 670 -292 592 -345 c 128,-1,31
 514 -398 514 -398 384 -398 c 259,32,33
 285 -398 285 -398 189 -373 c 1,34,-1
 214 -220 l 1,35,36
 314 -248 314 -248 377 -248 c 259,0,1
EndSplineSet
Layer: 2
SplineSet
377 -248 m 3
 455 -248 510 -218 510 -151 c 3
 510 -122 498 -80 474 -26 c 1
 194 -8 -1 128 -1 410 c 3
 -1 862 321 1137 771 1137 c 3
 890 1137 1000 1119 1099 1082 c 1
 1042 790 l 1
 969 848 886 882 764 882 c 3
 519 882 377 710 377 458 c 3
 377 299 474 224 637 224 c 3
 748 224 853 256 950 319 c 1
 892 31 l 1
 807 1 716 -20 614 -26 c 1
 652 -88 670 -142 670 -189 c 3
 670 -332 550 -398 384 -398 c 3
 322 -398 239 -386 189 -373 c 1
 214 -220 l 1
 282 -239 336 -248 377 -248 c 3
EndSplineSet
EndChar

StartChar: eacute
Encoding: 169 233 112
Width: 1378
VWidth: 3555
Flags: W
HStem: -28 235<436.154 897.23> 458 217<404 870.525> 899 238<533.782 825.387>
VStem: -1 361<278.475 453.282> 871 352<675.207 851.201>
LayerCount: 3
Fore
SplineSet
1191 458 m 1,0,-1
 363 458 l 1,1,2
 330 207 330 207 618 207 c 0,3,4
 733 207 733 207 855 240.5 c 128,-1,5
 977 274 977 274 1116 342 c 1,6,-1
 1062 68 l 1,7,8
 929 17 929 17 798.5 -5.5 c 128,-1,9
 668 -28 668 -28 540 -28 c 0,10,11
 238 -28 238 -28 99 125 c 128,-1,12
 -40 278 -40 278 14 554 c 256,13,14
 68 832 68 832 263 984.5 c 128,-1,15
 458 1137 458 1137 746 1137 c 0,16,17
 1007 1137 1007 1137 1133 981 c 128,-1,18
 1259 825 1259 825 1208 559 c 2,19,-1
 1191 458 l 1,0,-1
865 675 m 1,20,21
 885 779 885 779 841 839 c 128,-1,22
 797 899 797 899 700 899 c 0,23,24
 479 899 479 899 404 675 c 1,25,-1
 865 675 l 1,20,21
1272 1625 m 1,26,-1
 835 1252 l 1,27,-1
 641 1252 l 1,28,-1
 991 1625 l 1,29,-1
 1272 1625 l 1,26,-1
EndSplineSet
Layer: 2
SplineSet
746 1137 m 3
 1029 1137 1223 985 1223 703 c 3
 1223 658 1217 610 1208 559 c 2
 1191 458 l 1
 363 458 l 1
 361 441 360 424 360 409 c 3
 360 274 446 207 618 207 c 3
 816 207 962 268 1116 342 c 1
 1062 68 l 1
 905 8 739 -28 540 -28 c 3
 223 -28 -1 105 -1 409 c 3
 -1 844 309 1137 746 1137 c 3
871 736 m 3
 871 842 805 899 700 899 c 3
 553 899 454 824 404 675 c 1
 865 675 l 1
 869 697 871 717 871 736 c 3
1272 1625 m 1
 835 1252 l 1
 641 1252 l 1
 991 1625 l 1
 1272 1625 l 1
EndSplineSet
EndChar

StartChar: egrave
Encoding: 168 232 113
Width: 1378
VWidth: 3555
Flags: W
HStem: -28 235<436.154 897.23> 458 217<404 870.525> 899 238<533.782 825.387>
VStem: -1 361<278.475 453.282> 871 352<675.207 851.201>
LayerCount: 3
Fore
SplineSet
1191 458 m 1,0,-1
 363 458 l 1,1,2
 330 207 330 207 618 207 c 0,3,4
 733 207 733 207 855 240.5 c 128,-1,5
 977 274 977 274 1116 342 c 1,6,-1
 1062 68 l 1,7,8
 929 17 929 17 798.5 -5.5 c 128,-1,9
 668 -28 668 -28 540 -28 c 0,10,11
 238 -28 238 -28 99 125 c 128,-1,12
 -40 278 -40 278 14 554 c 256,13,14
 68 832 68 832 263 984.5 c 128,-1,15
 458 1137 458 1137 746 1137 c 0,16,17
 1007 1137 1007 1137 1133 981 c 128,-1,18
 1259 825 1259 825 1208 559 c 2,19,-1
 1191 458 l 1,0,-1
865 675 m 1,20,21
 885 779 885 779 841 839 c 128,-1,22
 797 899 797 899 700 899 c 0,23,24
 479 899 479 899 404 675 c 1,25,-1
 865 675 l 1,20,21
932 1252 m 1,26,-1
 740 1252 l 1,27,-1
 441 1625 l 1,28,-1
 722 1625 l 1,29,-1
 932 1252 l 1,26,-1
EndSplineSet
Layer: 2
SplineSet
746 1137 m 3
 1029 1137 1223 985 1223 703 c 3
 1223 658 1217 610 1208 559 c 2
 1191 458 l 1
 363 458 l 1
 361 441 360 424 360 409 c 3
 360 274 446 207 618 207 c 3
 816 207 962 268 1116 342 c 1
 1062 68 l 1
 905 8 739 -28 540 -28 c 3
 223 -28 -1 105 -1 409 c 3
 -1 844 309 1137 746 1137 c 3
871 736 m 3
 871 842 805 899 700 899 c 3
 553 899 454 824 404 675 c 1
 865 675 l 1
 869 697 871 717 871 736 c 3
932 1252 m 1
 740 1252 l 1
 441 1625 l 1
 722 1625 l 1
 932 1252 l 1
EndSplineSet
EndChar

StartChar: ecircumflex
Encoding: 170 234 114
Width: 1378
VWidth: 3555
Flags: W
HStem: -28 235<436.154 897.23> 458 217<404 870.525> 899 238<533.782 825.387>
VStem: -1 361<278.475 453.282> 871 352<675.207 851.201>
LayerCount: 3
Fore
SplineSet
1191 458 m 1,0,-1
 363 458 l 1,1,2
 330 207 330 207 618 207 c 0,3,4
 733 207 733 207 855 240.5 c 128,-1,5
 977 274 977 274 1116 342 c 1,6,-1
 1062 68 l 1,7,8
 929 17 929 17 798.5 -5.5 c 128,-1,9
 668 -28 668 -28 540 -28 c 0,10,11
 238 -28 238 -28 99 125 c 128,-1,12
 -40 278 -40 278 14 554 c 256,13,14
 68 832 68 832 263 984.5 c 128,-1,15
 458 1137 458 1137 746 1137 c 0,16,17
 1007 1137 1007 1137 1133 981 c 128,-1,18
 1259 825 1259 825 1208 559 c 2,19,-1
 1191 458 l 1,0,-1
865 675 m 1,20,21
 885 779 885 779 841 839 c 128,-1,22
 797 899 797 899 700 899 c 0,23,24
 479 899 479 899 404 675 c 1,25,-1
 865 675 l 1,20,21
977 1625 m 1,26,-1
 1160 1252 l 1,27,-1
 984 1252 l 1,28,-1
 832 1476 l 1,29,-1
 587 1252 l 1,30,-1
 413 1252 l 1,31,-1
 736 1625 l 1,32,-1
 977 1625 l 1,26,-1
EndSplineSet
Layer: 2
SplineSet
746 1137 m 3
 1029 1137 1223 985 1223 703 c 3
 1223 658 1217 610 1208 559 c 2
 1191 458 l 1
 363 458 l 1
 361 441 360 424 360 409 c 3
 360 274 446 207 618 207 c 3
 816 207 962 268 1116 342 c 1
 1062 68 l 1
 905 8 739 -28 540 -28 c 3
 223 -28 -1 105 -1 409 c 3
 -1 844 309 1137 746 1137 c 3
871 736 m 3
 871 842 805 899 700 899 c 3
 553 899 454 824 404 675 c 1
 865 675 l 1
 869 697 871 717 871 736 c 3
977 1625 m 1
 1160 1252 l 1
 984 1252 l 1
 832 1476 l 1
 587 1252 l 1
 413 1252 l 1
 736 1625 l 1
 977 1625 l 1
EndSplineSet
EndChar

StartChar: edieresis
Encoding: 171 235 115
Width: 1378
VWidth: 3555
Flags: W
HStem: -28 235<436.154 897.23> 458 217<404 870.525> 899 238<533.782 825.387> 1326 249<536 722 929 1113>
VStem: -1 361<278.475 453.282> 488 234<1326 1560> 536 235<1340 1575> 871 352<675.207 851.201> 878 235<1326 1561> 929 234<1341 1575>
LayerCount: 3
Fore
SplineSet
1191 458 m 1,0,-1
 363 458 l 1,1,2
 330 207 330 207 618 207 c 0,3,4
 733 207 733 207 855 240.5 c 128,-1,5
 977 274 977 274 1116 342 c 1,6,-1
 1062 68 l 1,7,8
 929 17 929 17 798.5 -5.5 c 128,-1,9
 668 -28 668 -28 540 -28 c 0,10,11
 238 -28 238 -28 99 125 c 128,-1,12
 -40 278 -40 278 14 554 c 256,13,14
 68 832 68 832 263 984.5 c 128,-1,15
 458 1137 458 1137 746 1137 c 0,16,17
 1007 1137 1007 1137 1133 981 c 128,-1,18
 1259 825 1259 825 1208 559 c 2,19,-1
 1191 458 l 1,0,-1
865 675 m 1,20,21
 885 779 885 779 841 839 c 128,-1,22
 797 899 797 899 700 899 c 0,23,24
 479 899 479 899 404 675 c 1,25,-1
 865 675 l 1,20,21
771 1575 m 1,26,-1
 722 1326 l 1,27,-1
 488 1326 l 1,28,-1
 536 1575 l 1,29,-1
 771 1575 l 1,26,-1
1163 1575 m 1,30,-1
 1113 1326 l 1,31,-1
 878 1326 l 1,32,-1
 929 1575 l 1,33,-1
 1163 1575 l 1,30,-1
EndSplineSet
Layer: 2
SplineSet
746 1137 m 3xf9
 1029 1137 1223 985 1223 703 c 3
 1223 658 1217 610 1208 559 c 2
 1191 458 l 1
 363 458 l 1
 361 441 360 424 360 409 c 3
 360 274 446 207 618 207 c 3
 816 207 962 268 1116 342 c 1
 1062 68 l 1
 905 8 739 -28 540 -28 c 3
 223 -28 -1 105 -1 409 c 3
 -1 844 309 1137 746 1137 c 3xf9
871 736 m 3
 871 842 805 899 700 899 c 3
 553 899 454 824 404 675 c 1
 865 675 l 1
 869 697 871 717 871 736 c 3
771 1575 m 1xfa
 722 1326 l 1
 488 1326 l 1xfc
 536 1575 l 1
 771 1575 l 1xfa
1163 1575 m 1xf840
 1113 1326 l 1
 878 1326 l 1xf880
 929 1575 l 1
 1163 1575 l 1xf840
EndSplineSet
EndChar

StartChar: iacute
Encoding: 173 237 116
Width: 692
VWidth: 3555
Flags: W
HStem: 0 21G<-7 355.845> 1093 20G<203.155 566>
VStem: -7 359<0 359> 207 359<754 1113>
DStem2: -7 0 352 0 0.190809 0.981627<68.5004 1133.38>
LayerCount: 3
Fore
SplineSet
566 1113 m 1,0,-1
 352 0 l 1,1,-1
 -7 0 l 1,2,-1
 207 1113 l 1,3,-1
 566 1113 l 1,0,-1
936 1625 m 1,4,-1
 498 1252 l 1,5,-1
 302 1252 l 1,6,-1
 654 1625 l 1,7,-1
 936 1625 l 1,4,-1
EndSplineSet
Layer: 2
SplineSet
566 1113 m 1xd0
 352 0 l 1
 -7 0 l 1xe0
 207 1113 l 1
 566 1113 l 1xd0
936 1625 m 1
 498 1252 l 1
 302 1252 l 1
 654 1625 l 1
 936 1625 l 1
EndSplineSet
EndChar

StartChar: igrave
Encoding: 172 236 117
Width: 692
VWidth: 3555
Flags: W
HStem: 0 21G<-7 355.845> 1093 20G<203.155 566>
VStem: -7 359<0 359> 207 359<754 1113>
DStem2: -7 0 352 0 0.190809 0.981627<68.5004 1133.38>
LayerCount: 3
Fore
SplineSet
566 1113 m 1,0,-1
 352 0 l 1,1,-1
 -7 0 l 1,2,-1
 207 1113 l 1,3,-1
 566 1113 l 1,0,-1
594 1252 m 1,4,-1
 401 1252 l 1,5,-1
 102 1625 l 1,6,-1
 384 1625 l 1,7,-1
 594 1252 l 1,4,-1
EndSplineSet
Layer: 2
SplineSet
566 1113 m 1xd0
 352 0 l 1
 -7 0 l 1xe0
 207 1113 l 1
 566 1113 l 1xd0
594 1252 m 1
 401 1252 l 1
 102 1625 l 1
 384 1625 l 1
 594 1252 l 1
EndSplineSet
EndChar

StartChar: icircumflex
Encoding: 174 238 118
Width: 692
VWidth: 3555
Flags: W
HStem: 0 21G<-7 355.845> 1093 20G<203.155 566>
VStem: -7 359<0 359> 207 359<754 1113>
DStem2: -7 0 352 0 0.190809 0.981627<68.5004 1133.38>
LayerCount: 3
Fore
SplineSet
566 1113 m 1,0,-1
 352 0 l 1,1,-1
 -7 0 l 1,2,-1
 207 1113 l 1,3,-1
 566 1113 l 1,0,-1
641 1625 m 1,4,-1
 821 1252 l 1,5,-1
 648 1252 l 1,6,-1
 495 1476 l 1,7,-1
 248 1252 l 1,8,-1
 75 1252 l 1,9,-1
 398 1625 l 1,10,-1
 641 1625 l 1,4,-1
EndSplineSet
Layer: 2
SplineSet
566 1113 m 1xd0
 352 0 l 1
 -7 0 l 1xe0
 207 1113 l 1
 566 1113 l 1xd0
641 1625 m 1
 821 1252 l 1
 648 1252 l 1
 495 1476 l 1
 248 1252 l 1
 75 1252 l 1
 398 1625 l 1
 641 1625 l 1
EndSplineSet
EndChar

StartChar: idieresis
Encoding: 175 239 119
Width: 692
VWidth: 3555
Flags: W
HStem: 0 21G<-7 355.845> 1093 20G<203.155 566> 1326 249<200 384 590 774>
VStem: -7 359<0 359> 149 235<1326 1561> 200 234<1341 1575> 207 359<754 1113> 540 234<1326 1560> 590 235<1340 1575>
DStem2: -7 0 352 0 0.190809 0.981627<68.5004 1133.38>
LayerCount: 3
Fore
SplineSet
566 1113 m 1,0,-1
 352 0 l 1,1,-1
 -7 0 l 1,2,-1
 207 1113 l 1,3,-1
 566 1113 l 1,0,-1
434 1575 m 1,4,-1
 384 1326 l 1,5,-1
 149 1326 l 1,6,-1
 200 1575 l 1,7,-1
 434 1575 l 1,4,-1
825 1575 m 1,8,-1
 774 1326 l 1,9,-1
 540 1326 l 1,10,-1
 590 1575 l 1,11,-1
 825 1575 l 1,8,-1
EndSplineSet
Layer: 2
SplineSet
566 1113 m 1xe2
 352 0 l 1
 -7 0 l 1xf0
 207 1113 l 1
 566 1113 l 1xe2
434 1575 m 1xe4
 384 1326 l 1
 149 1326 l 1xe8
 200 1575 l 1
 434 1575 l 1xe4
825 1575 m 1xe080
 774 1326 l 1
 540 1326 l 1xe1
 590 1575 l 1
 825 1575 l 1xe080
EndSplineSet
EndChar

StartChar: ntilde
Encoding: 177 241 120
Width: 1449
VWidth: 3555
Flags: W
HStem: 0 21G<-7 355.794 753 1112.82> 871 266<735.28 1041.5> 1093 20G<203.155 566> 1299 156<895.035 1053.66> 1425 156<641.567 796.961>
VStem: -7 359<0 359> 476 138<1302 1404.23> 753 356<0 356> 885 370<533.731 846.58>
DStem2: -7 0 352 0 0.190809 0.981627<68.5004 854.081 1035.58 1133.38> 753 0 1109 0 0.190809 0.981627<67.928 735.434>
LayerCount: 3
Fore
SplineSet
1109 0 m 1,0,-1
 753 0 l 1,1,-1
 774 115 l 1,2,-1
 854 519 l 2,3,4
 868 590 868 590 875 636 c 128,-1,5
 882 682 882 682 883.5 714 c 128,-1,6
 885 746 885 746 883.5 766 c 128,-1,7
 882 786 882 786 875 800 c 0,8,9
 849 871 849 871 753 871 c 0,10,11
 644 871 644 871 564 783.5 c 128,-1,12
 484 696 484 696 455 543 c 2,13,-1
 352 0 l 1,14,-1
 -7 0 l 1,15,-1
 207 1113 l 1,16,-1
 566 1113 l 1,17,-1
 533 950 l 1,18,19
 719 1137 719 1137 939 1137 c 0,20,21
 1130 1137 1130 1137 1206.5 1018 c 128,-1,22
 1283 899 1283 899 1238 675 c 2,23,-1
 1109 0 l 1,0,-1
786 1391 m 1,24,-1
 779 1397 l 1,25,26
 733 1425 733 1425 708 1425 c 0,27,28
 641 1425 641 1425 615 1309 c 1,29,-1
 615 1302 l 1,30,-1
 476 1302 l 1,31,32
 502 1432 502 1432 568 1506.5 c 128,-1,33
 634 1581 634 1581 726 1581 c 0,34,35
 783 1581 783 1581 865 1529 c 1,36,-1
 913 1483 l 2,37,38
 953 1455 953 1455 981 1455 c 0,39,40
 1017 1455 1017 1455 1045 1486 c 128,-1,41
 1073 1517 1073 1517 1082 1571 c 1,42,-1
 1085 1578 l 1,43,-1
 1224 1578 l 1,44,45
 1194 1448 1194 1448 1126.5 1373.5 c 128,-1,46
 1059 1299 1059 1299 967 1299 c 0,47,48
 929 1299 929 1299 900 1309 c 128,-1,49
 871 1319 871 1319 832 1351 c 2,50,-1
 786 1391 l 1,24,-1
EndSplineSet
Layer: 2
SplineSet
1222 1578 m 1x96
 1191 1439 1116 1299 965 1299 c 3x96
 899 1299 868 1319 831 1351 c 2
 778 1397 l 2
 762 1411 723 1425 706 1425 c 3
 661 1425 631 1386 614 1309 c 1
 614 1302 l 1
 476 1302 l 1
 502 1441 577 1581 724 1581 c 3x8e
 762 1581 834 1556 863 1529 c 2
 913 1483 l 2
 933 1465 961 1455 981 1455 c 3
 1038 1455 1073 1514 1080 1571 c 1
 1083 1578 l 1
 1222 1578 l 1x96
939 1137 m 3xc7
 1144 1137 1255 1032 1255 827 c 3xc680
 1255 781 1249 730 1238 675 c 2
 1109 0 l 1
 753 0 l 1xc7
 854 519 l 2
 869 595 885 653 885 727 c 3xc680
 885 823 848 871 753 871 c 3xc7
 578 871 486 707 455 543 c 2
 352 0 l 1
 -7 0 l 1
 207 1113 l 1
 566 1113 l 1xa7
 533 950 l 1
 657 1075 792 1137 939 1137 c 3xc7
EndSplineSet
EndChar

StartChar: oacute
Encoding: 179 243 121
Width: 1395
VWidth: 3555
Flags: W
HStem: -28 252<437.352 708.12> 882 255<546.055 823.487>
VStem: -2 376<285.999 670.654> 880 373<432.453 822.425>
LayerCount: 3
Fore
SplineSet
689 882 m 0,0,1
 448 882 448 882 387 554 c 0,2,3
 356 394 356 394 400 309 c 128,-1,4
 444 224 444 224 562 224 c 0,5,6
 682 224 682 224 758.5 309 c 128,-1,7
 835 394 835 394 868 554 c 0,8,9
 929 882 929 882 689 882 c 0,0,1
740 1137 m 256,10,11
 1028 1137 1028 1137 1159 984.5 c 128,-1,12
 1290 832 1290 832 1238 554 c 256,13,14
 1184 278 1184 278 992 125 c 128,-1,15
 800 -28 800 -28 512 -28 c 256,16,17
 224 -28 224 -28 92 125 c 128,-1,18
 -40 278 -40 278 14 554 c 256,19,20
 68 832 68 832 259.5 984.5 c 128,-1,21
 451 1137 451 1137 740 1137 c 256,10,11
1272 1625 m 1,22,-1
 835 1252 l 1,23,-1
 641 1252 l 1,24,-1
 991 1625 l 1,25,-1
 1272 1625 l 1,22,-1
EndSplineSet
Layer: 2
SplineSet
374 435 m 3
 374 303 434 224 562 224 c 3
 777 224 880 443 880 673 c 3
 880 812 817 882 689 882 c 3
 504 882 374 699 374 435 c 3
512 -28 m 259
 207 -28 -2 108 -2 404 c 3
 -2 836 300 1137 740 1137 c 259
 1048 1137 1253 1001 1253 702 c 3
 1253 259 949 -28 512 -28 c 259
1272 1625 m 1
 835 1252 l 1
 641 1252 l 1
 991 1625 l 1
 1272 1625 l 1
EndSplineSet
EndChar

StartChar: ograve
Encoding: 178 242 122
Width: 1395
VWidth: 3555
Flags: W
HStem: -28 252<437.352 708.12> 882 255<546.055 823.487>
VStem: -2 376<285.999 670.654> 880 373<432.453 822.425>
LayerCount: 3
Fore
SplineSet
689 882 m 0,0,1
 448 882 448 882 387 554 c 0,2,3
 356 394 356 394 400 309 c 128,-1,4
 444 224 444 224 562 224 c 0,5,6
 682 224 682 224 758.5 309 c 128,-1,7
 835 394 835 394 868 554 c 0,8,9
 929 882 929 882 689 882 c 0,0,1
740 1137 m 256,10,11
 1028 1137 1028 1137 1159 984.5 c 128,-1,12
 1290 832 1290 832 1238 554 c 256,13,14
 1184 278 1184 278 992 125 c 128,-1,15
 800 -28 800 -28 512 -28 c 256,16,17
 224 -28 224 -28 92 125 c 128,-1,18
 -40 278 -40 278 14 554 c 256,19,20
 68 832 68 832 259.5 984.5 c 128,-1,21
 451 1137 451 1137 740 1137 c 256,10,11
932 1252 m 1,22,-1
 740 1252 l 1,23,-1
 441 1625 l 1,24,-1
 722 1625 l 1,25,-1
 932 1252 l 1,22,-1
EndSplineSet
Layer: 2
SplineSet
374 435 m 3
 374 303 434 224 562 224 c 3
 777 224 880 443 880 673 c 3
 880 812 817 882 689 882 c 3
 504 882 374 699 374 435 c 3
512 -28 m 259
 207 -28 -2 108 -2 404 c 3
 -2 836 300 1137 740 1137 c 259
 1048 1137 1253 1001 1253 702 c 3
 1253 259 949 -28 512 -28 c 259
932 1252 m 1
 740 1252 l 1
 441 1625 l 1
 722 1625 l 1
 932 1252 l 1
EndSplineSet
EndChar

StartChar: ocircumflex
Encoding: 180 244 123
Width: 1395
VWidth: 3555
Flags: W
HStem: -28 252<437.352 708.12> 882 255<546.055 823.487>
VStem: -2 376<285.999 670.654> 880 373<432.453 822.425>
LayerCount: 3
Fore
SplineSet
689 882 m 0,0,1
 448 882 448 882 387 554 c 0,2,3
 356 394 356 394 400 309 c 128,-1,4
 444 224 444 224 562 224 c 0,5,6
 682 224 682 224 758.5 309 c 128,-1,7
 835 394 835 394 868 554 c 0,8,9
 929 882 929 882 689 882 c 0,0,1
740 1137 m 256,10,11
 1028 1137 1028 1137 1159 984.5 c 128,-1,12
 1290 832 1290 832 1238 554 c 256,13,14
 1184 278 1184 278 992 125 c 128,-1,15
 800 -28 800 -28 512 -28 c 256,16,17
 224 -28 224 -28 92 125 c 128,-1,18
 -40 278 -40 278 14 554 c 256,19,20
 68 832 68 832 259.5 984.5 c 128,-1,21
 451 1137 451 1137 740 1137 c 256,10,11
977 1625 m 1,22,-1
 1160 1252 l 1,23,-1
 984 1252 l 1,24,-1
 832 1476 l 1,25,-1
 587 1252 l 1,26,-1
 413 1252 l 1,27,-1
 736 1625 l 1,28,-1
 977 1625 l 1,22,-1
EndSplineSet
Layer: 2
SplineSet
374 435 m 3
 374 303 434 224 562 224 c 3
 777 224 880 443 880 673 c 3
 880 812 817 882 689 882 c 3
 504 882 374 699 374 435 c 3
512 -28 m 259
 207 -28 -2 108 -2 404 c 3
 -2 836 300 1137 740 1137 c 259
 1048 1137 1253 1001 1253 702 c 3
 1253 259 949 -28 512 -28 c 259
977 1625 m 1
 1160 1252 l 1
 984 1252 l 1
 832 1476 l 1
 587 1252 l 1
 413 1252 l 1
 736 1625 l 1
 977 1625 l 1
EndSplineSet
EndChar

StartChar: odieresis
Encoding: 182 246 124
Width: 1395
VWidth: 3555
Flags: W
HStem: -28 252<437.352 708.12> 882 255<546.055 823.487> 1326 249<536 722 929 1113>
VStem: -2 376<285.999 670.654> 488 234<1326 1560> 536 235<1340 1575> 878 235<1326 1561> 880 373<432.453 822.425> 929 234<1341 1575>
LayerCount: 3
Fore
SplineSet
689 882 m 0,0,1
 448 882 448 882 387 554 c 0,2,3
 356 394 356 394 400 309 c 128,-1,4
 444 224 444 224 562 224 c 0,5,6
 682 224 682 224 758.5 309 c 128,-1,7
 835 394 835 394 868 554 c 0,8,9
 929 882 929 882 689 882 c 0,0,1
740 1137 m 256,10,11
 1028 1137 1028 1137 1159 984.5 c 128,-1,12
 1290 832 1290 832 1238 554 c 256,13,14
 1184 278 1184 278 992 125 c 128,-1,15
 800 -28 800 -28 512 -28 c 256,16,17
 224 -28 224 -28 92 125 c 128,-1,18
 -40 278 -40 278 14 554 c 256,19,20
 68 832 68 832 259.5 984.5 c 128,-1,21
 451 1137 451 1137 740 1137 c 256,10,11
771 1575 m 1,22,-1
 722 1326 l 1,23,-1
 488 1326 l 1,24,-1
 536 1575 l 1,25,-1
 771 1575 l 1,22,-1
1163 1575 m 1,26,-1
 1113 1326 l 1,27,-1
 878 1326 l 1,28,-1
 929 1575 l 1,29,-1
 1163 1575 l 1,26,-1
EndSplineSet
Layer: 2
SplineSet
374 435 m 3xf1
 374 303 434 224 562 224 c 3
 777 224 880 443 880 673 c 3
 880 812 817 882 689 882 c 3
 504 882 374 699 374 435 c 3xf1
512 -28 m 259
 207 -28 -2 108 -2 404 c 3
 -2 836 300 1137 740 1137 c 259
 1048 1137 1253 1001 1253 702 c 3
 1253 259 949 -28 512 -28 c 259
771 1575 m 1xf4
 722 1326 l 1
 488 1326 l 1xf8
 536 1575 l 1
 771 1575 l 1xf4
1163 1575 m 1xf080
 1113 1326 l 1
 878 1326 l 1xf2
 929 1575 l 1
 1163 1575 l 1xf080
EndSplineSet
EndChar

StartChar: otilde
Encoding: 181 245 125
Width: 1395
VWidth: 3555
Flags: W
HStem: -28 252<437.352 708.12> 882 255<546.055 823.487> 1299 156<870.035 1028.66> 1425 156<616.567 771.961>
VStem: -2 376<285.999 670.654> 451 138<1302 1404.23> 880 373<432.453 822.425>
LayerCount: 3
Fore
SplineSet
689 882 m 0,0,1
 448 882 448 882 387 554 c 0,2,3
 356 394 356 394 400 309 c 128,-1,4
 444 224 444 224 562 224 c 0,5,6
 682 224 682 224 758.5 309 c 128,-1,7
 835 394 835 394 868 554 c 0,8,9
 929 882 929 882 689 882 c 0,0,1
740 1137 m 256,10,11
 1028 1137 1028 1137 1159 984.5 c 128,-1,12
 1290 832 1290 832 1238 554 c 256,13,14
 1184 278 1184 278 992 125 c 128,-1,15
 800 -28 800 -28 512 -28 c 256,16,17
 224 -28 224 -28 92 125 c 128,-1,18
 -40 278 -40 278 14 554 c 256,19,20
 68 832 68 832 259.5 984.5 c 128,-1,21
 451 1137 451 1137 740 1137 c 256,10,11
760 1391 m 1,22,-1
 753 1397 l 1,23,24
 708 1425 708 1425 682 1425 c 0,25,26
 615 1425 615 1425 590 1309 c 1,27,-1
 590 1302 l 1,28,-1
 451 1302 l 1,29,30
 476 1432 476 1432 542 1506.5 c 128,-1,31
 608 1581 608 1581 700 1581 c 0,32,33
 757 1581 757 1581 838 1529 c 1,34,-1
 889 1483 l 2,35,36
 929 1455 929 1455 957 1455 c 0,37,38
 991 1455 991 1455 1020 1486 c 128,-1,39
 1049 1517 1049 1517 1055 1571 c 1,40,-1
 1059 1578 l 1,41,-1
 1198 1578 l 1,42,43
 1170 1448 1170 1448 1102.5 1373.5 c 128,-1,44
 1035 1299 1035 1299 943 1299 c 0,45,46
 903 1299 903 1299 874 1309 c 128,-1,47
 845 1319 845 1319 807 1351 c 2,48,-1
 760 1391 l 1,22,-1
EndSplineSet
Layer: 2
SplineSet
1197 1578 m 1xee
 1166 1439 1091 1299 940 1299 c 3xee
 874 1299 843 1319 806 1351 c 2
 753 1397 l 2
 737 1411 698 1425 681 1425 c 3
 636 1425 606 1386 589 1309 c 1
 589 1302 l 1
 451 1302 l 1
 477 1441 552 1581 699 1581 c 3xde
 737 1581 809 1556 838 1529 c 2
 888 1483 l 2
 908 1465 936 1455 956 1455 c 3
 1013 1455 1048 1514 1055 1571 c 1
 1058 1578 l 1
 1197 1578 l 1xee
374 435 m 3
 374 303 434 224 562 224 c 3
 777 224 880 443 880 673 c 3
 880 812 817 882 689 882 c 3
 504 882 374 699 374 435 c 3
512 -28 m 259
 207 -28 -2 108 -2 404 c 3
 -2 836 300 1137 740 1137 c 259
 1048 1137 1253 1001 1253 702 c 3
 1253 259 949 -28 512 -28 c 259
EndSplineSet
EndChar

StartChar: uacute
Encoding: 186 250 126
Width: 1449
VWidth: 3555
Flags: W
HStem: -28 266<261.5 567.051> 0 21G<740 1098.85> 1093 20G<192.112 554 949.08 1309>
VStem: 49 370<263.648 583.461> 196 358<755 1113> 953 356<757 1113>
DStem2: -25.8037 -28 330.873 -28 0.190809 0.981627<455.122 1162.36> 734.557 -28 1089.56 -28 0.190809 0.981627<96.2613 190.736 382.419 1161.72>
LayerCount: 3
Fore
SplineSet
196 1113 m 1,0,-1
 554 1113 l 1,1,-1
 533 1003 l 2,2,3
 526 953 526 953 515.5 895.5 c 128,-1,4
 505 838 505 838 488 771 c 2,5,-1
 451 590 l 2,6,7
 424 458 424 458 420.5 400 c 128,-1,8
 417 342 417 342 420 309 c 1,9,10
 462 238 462 238 550 238 c 0,11,12
 665 238 665 238 741.5 325.5 c 128,-1,13
 818 413 818 413 845 562 c 2,14,-1
 953 1113 l 1,15,-1
 1309 1113 l 1,16,-1
 1095 0 l 1,17,-1
 740 0 l 1,18,-1
 767 160 l 1,19,20
 583 -28 583 -28 363 -28 c 0,21,22
 177 -28 177 -28 99 89.5 c 128,-1,23
 21 207 21 207 64 434 c 2,24,-1
 196 1113 l 1,0,-1
1299 1625 m 1,25,-1
 861 1252 l 1,26,-1
 665 1252 l 1,27,-1
 1017 1625 l 1,28,-1
 1299 1625 l 1,25,-1
EndSplineSet
Layer: 2
SplineSet
363 -28 m 3xb4
 160 -28 49 80 49 286 c 3xb4
 49 331 54 380 64 434 c 2
 196 1113 l 1
 554 1113 l 1xac
 451 590 l 2
 427 469 419 435 419 345 c 3
 419 266 486 238 550 238 c 3xb4
 728 238 813 397 845 562 c 2
 953 1113 l 1
 1309 1113 l 1
 1095 0 l 1
 740 0 l 1x74
 767 160 l 1
 644 35 510 -28 363 -28 c 3xb4
1299 1625 m 1
 861 1252 l 1
 665 1252 l 1
 1017 1625 l 1
 1299 1625 l 1
EndSplineSet
EndChar

StartChar: ugrave
Encoding: 185 249 127
Width: 1449
VWidth: 3555
Flags: W
HStem: -28 266<261.5 567.051> 0 21G<740 1098.85> 1093 20G<192.112 554 949.08 1309>
VStem: 49 370<263.648 583.461> 196 358<755 1113> 953 356<757 1113>
DStem2: -25.8037 -28 330.873 -28 0.190809 0.981627<455.122 1162.36> 734.557 -28 1089.56 -28 0.190809 0.981627<96.2613 190.736 382.419 1161.72>
LayerCount: 3
Fore
SplineSet
196 1113 m 1,0,-1
 554 1113 l 1,1,-1
 533 1003 l 2,2,3
 526 953 526 953 515.5 895.5 c 128,-1,4
 505 838 505 838 488 771 c 2,5,-1
 451 590 l 2,6,7
 424 458 424 458 420.5 400 c 128,-1,8
 417 342 417 342 420 309 c 1,9,10
 462 238 462 238 550 238 c 0,11,12
 665 238 665 238 741.5 325.5 c 128,-1,13
 818 413 818 413 845 562 c 2,14,-1
 953 1113 l 1,15,-1
 1309 1113 l 1,16,-1
 1095 0 l 1,17,-1
 740 0 l 1,18,-1
 767 160 l 1,19,20
 583 -28 583 -28 363 -28 c 0,21,22
 177 -28 177 -28 99 89.5 c 128,-1,23
 21 207 21 207 64 434 c 2,24,-1
 196 1113 l 1,0,-1
957 1252 m 1,25,-1
 764 1252 l 1,26,-1
 465 1625 l 1,27,-1
 746 1625 l 1,28,-1
 957 1252 l 1,25,-1
EndSplineSet
Layer: 2
SplineSet
363 -28 m 3xb4
 160 -28 49 80 49 286 c 3xb4
 49 331 54 380 64 434 c 2
 196 1113 l 1
 554 1113 l 1xac
 451 590 l 2
 427 469 419 435 419 345 c 3
 419 266 486 238 550 238 c 3xb4
 728 238 813 397 845 562 c 2
 953 1113 l 1
 1309 1113 l 1
 1095 0 l 1
 740 0 l 1x74
 767 160 l 1
 644 35 510 -28 363 -28 c 3xb4
957 1252 m 1
 764 1252 l 1
 465 1625 l 1
 746 1625 l 1
 957 1252 l 1
EndSplineSet
EndChar

StartChar: ucircumflex
Encoding: 187 251 128
Width: 1449
VWidth: 3555
Flags: W
HStem: -28 266<261.5 567.051> 0 21G<740 1098.85> 1093 20G<192.112 554 949.08 1309>
VStem: 49 370<263.648 583.461> 196 358<755 1113> 953 356<757 1113>
DStem2: -25.8037 -28 330.873 -28 0.190809 0.981627<455.122 1162.36> 734.557 -28 1089.56 -28 0.190809 0.981627<96.2613 190.736 382.419 1161.72>
LayerCount: 3
Fore
SplineSet
196 1113 m 1,0,-1
 554 1113 l 1,1,-1
 533 1003 l 2,2,3
 526 953 526 953 515.5 895.5 c 128,-1,4
 505 838 505 838 488 771 c 2,5,-1
 451 590 l 2,6,7
 424 458 424 458 420.5 400 c 128,-1,8
 417 342 417 342 420 309 c 1,9,10
 462 238 462 238 550 238 c 0,11,12
 665 238 665 238 741.5 325.5 c 128,-1,13
 818 413 818 413 845 562 c 2,14,-1
 953 1113 l 1,15,-1
 1309 1113 l 1,16,-1
 1095 0 l 1,17,-1
 740 0 l 1,18,-1
 767 160 l 1,19,20
 583 -28 583 -28 363 -28 c 0,21,22
 177 -28 177 -28 99 89.5 c 128,-1,23
 21 207 21 207 64 434 c 2,24,-1
 196 1113 l 1,0,-1
1003 1625 m 1,25,-1
 1184 1252 l 1,26,-1
 1010 1252 l 1,27,-1
 858 1476 l 1,28,-1
 611 1252 l 1,29,-1
 437 1252 l 1,30,-1
 760 1625 l 1,31,-1
 1003 1625 l 1,25,-1
EndSplineSet
Layer: 2
SplineSet
363 -28 m 3xb4
 160 -28 49 80 49 286 c 3xb4
 49 331 54 380 64 434 c 2
 196 1113 l 1
 554 1113 l 1xac
 451 590 l 2
 427 469 419 435 419 345 c 3
 419 266 486 238 550 238 c 3xb4
 728 238 813 397 845 562 c 2
 953 1113 l 1
 1309 1113 l 1
 1095 0 l 1
 740 0 l 1x74
 767 160 l 1
 644 35 510 -28 363 -28 c 3xb4
1003 1625 m 1
 1184 1252 l 1
 1010 1252 l 1
 858 1476 l 1
 611 1252 l 1
 437 1252 l 1
 760 1625 l 1
 1003 1625 l 1
EndSplineSet
EndChar

StartChar: udieresis
Encoding: 188 252 129
Width: 1449
VWidth: 3555
Flags: W
HStem: -28 266<261.5 567.051> 0 21G<740 1098.85> 1093 20G<192.112 554 949.08 1309> 1326 249<562 746 953 1137>
VStem: 49 370<263.648 583.461> 196 358<755 1113> 512 234<1326 1560> 562 235<1340 1575> 903 234<1326 1560> 953 356<757 1113> 953 234<1341 1575>
DStem2: -25.8037 -28 330.873 -28 0.190809 0.981627<455.122 1162.36> 734.557 -28 1089.56 -28 0.190809 0.981627<96.2613 190.736 382.419 1161.72>
LayerCount: 3
Fore
SplineSet
196 1113 m 1,0,-1
 554 1113 l 1,1,-1
 533 1003 l 2,2,3
 526 953 526 953 515.5 895.5 c 128,-1,4
 505 838 505 838 488 771 c 2,5,-1
 451 590 l 2,6,7
 424 458 424 458 420.5 400 c 128,-1,8
 417 342 417 342 420 309 c 1,9,10
 462 238 462 238 550 238 c 0,11,12
 665 238 665 238 741.5 325.5 c 128,-1,13
 818 413 818 413 845 562 c 2,14,-1
 953 1113 l 1,15,-1
 1309 1113 l 1,16,-1
 1095 0 l 1,17,-1
 740 0 l 1,18,-1
 767 160 l 1,19,20
 583 -28 583 -28 363 -28 c 0,21,22
 177 -28 177 -28 99 89.5 c 128,-1,23
 21 207 21 207 64 434 c 2,24,-1
 196 1113 l 1,0,-1
797 1575 m 1,25,-1
 746 1326 l 1,26,-1
 512 1326 l 1,27,-1
 562 1575 l 1,28,-1
 797 1575 l 1,25,-1
1187 1575 m 1,29,-1
 1137 1326 l 1,30,-1
 903 1326 l 1,31,-1
 953 1575 l 1,32,-1
 1187 1575 l 1,29,-1
EndSplineSet
Layer: 2
SplineSet
363 -28 m 3xb840
 160 -28 49 80 49 286 c 3xb840
 49 331 54 380 64 434 c 2
 196 1113 l 1
 554 1113 l 1xb4
 451 590 l 2
 427 469 419 435 419 345 c 3
 419 266 486 238 550 238 c 3xb8
 728 238 813 397 845 562 c 2
 953 1113 l 1
 1309 1113 l 1
 1095 0 l 1
 740 0 l 1x7840
 767 160 l 1
 644 35 510 -28 363 -28 c 3xb840
797 1575 m 1x31
 746 1326 l 1
 512 1326 l 1x32
 562 1575 l 1
 797 1575 l 1x31
1187 1575 m 1x3020
 1137 1326 l 1
 903 1326 l 1x3080
 953 1575 l 1
 1187 1575 l 1x3020
EndSplineSet
EndChar

StartChar: dagger
Encoding: 329 8224 130
Width: 1015
VWidth: 3555
Flags: W
HStem: 871 235<89 330 705 946> 1463 20G<447.074 779>
VStem: 125 326<-196 130> 451 328<1155 1483>
DStem2: 125 -196 451 -196 0.190809 0.981627<62.2037 1086.51 1388.75 1710.36>
LayerCount: 3
Fore
SplineSet
779 1483 m 1,0,-1
 705 1106 l 1,1,-1
 991 1106 l 1,2,-1
 946 871 l 1,3,-1
 658 871 l 1,4,-1
 451 -196 l 1,5,-1
 125 -196 l 1,6,-1
 330 871 l 1,7,-1
 43 871 l 1,8,-1
 89 1106 l 1,9,-1
 377 1106 l 1,10,-1
 451 1483 l 1,11,-1
 779 1483 l 1,0,-1
EndSplineSet
Layer: 2
SplineSet
779 1483 m 1xd0
 705 1106 l 1
 991 1106 l 1
 946 871 l 1
 658 871 l 1
 451 -196 l 1
 125 -196 l 1xe0
 330 871 l 1
 43 871 l 1
 89 1106 l 1
 377 1106 l 1
 451 1483 l 1
 779 1483 l 1xd0
EndSplineSet
EndChar

StartChar: degree
Encoding: 112 176 131
Width: 1015
VWidth: 3555
Flags: W
HStem: 865 159<419.361 650.364> 1361 165<473.347 697.163>
VStem: 223 163<1059.9 1274.23> 736 161<1106.44 1323.24>
LayerCount: 3
Fore
SplineSet
736 1224 m 259,0,1
 736 1283 736 1283 695.5 1322 c 128,-1,2
 655 1361 655 1361 597 1361 c 259,3,4
 511 1361 511 1361 448.5 1298.5 c 128,-1,5
 386 1236 386 1236 386 1150 c 259,6,7
 386 1093 386 1093 427.5 1058.5 c 128,-1,8
 469 1024 469 1024 529 1024 c 259,9,10
 608 1024 608 1024 672 1084.5 c 128,-1,11
 736 1145 736 1145 736 1224 c 259,0,1
498 865 m 259,12,13
 379 865 379 865 301 934 c 128,-1,14
 223 1003 223 1003 223 1118 c 259,15,16
 223 1224 223 1224 279.5 1318.5 c 128,-1,17
 336 1413 336 1413 430 1469.5 c 128,-1,18
 524 1526 524 1526 628 1526 c 259,19,20
 740 1526 740 1526 818.5 1447.5 c 128,-1,21
 897 1369 897 1369 897 1251 c 259,22,23
 897 1146 897 1146 836.5 1055.5 c 128,-1,24
 776 965 776 965 684.5 915 c 128,-1,25
 593 865 593 865 498 865 c 259,12,13
EndSplineSet
Layer: 2
SplineSet
736 1224 m 3
 736 1303 673 1361 597 1361 c 3
 482 1361 386 1265 386 1150 c 3
 386 1072 452 1024 529 1024 c 3
 633 1024 736 1117 736 1224 c 3
498 865 m 3
 343 865 223 961 223 1118 c 3
 223 1334 416 1526 628 1526 c 3
 775 1526 897 1410 897 1251 c 3
 897 1032 686 865 498 865 c 3
EndSplineSet
EndChar

StartChar: cent
Encoding: 98 162 132
Width: 1414
VWidth: 3555
Flags: W
HStem: -28 252<726 934.184> 882 255<903 1046.56>
VStem: 89 370<318.412 666.151> 455 166<-309 -143> 790 167<1255 1422>
DStem2: 455 -309 621 -309 0.190809 0.981627<31.6743 290.067 579.726 1184.37 1504.92 1763.12>
LayerCount: 3
Fore
SplineSet
679 854 m 1,0,1
 581 805 581 805 520 703 c 128,-1,2
 459 601 459 601 459 463 c 259,3,4
 459 323 459 323 566 260 c 1,5,-1
 679 854 l 1,0,1
1130 790 m 1,6,7
 994 882 994 882 854 882 c 1,8,-1
 726 224 l 1,9,10
 883 229 883 229 1038 319 c 1,11,-1
 981 31 l 1,12,13
 798 -28 798 -28 675 -28 c 1,14,-1
 621 -309 l 1,15,-1
 455 -309 l 1,16,-1
 509 -24 l 1,17,18
 89 44 89 44 89 408 c 259,19,20
 89 723 89 723 263 910.5 c 128,-1,21
 437 1098 437 1098 736 1137 c 1,22,-1
 790 1422 l 1,23,-1
 957 1422 l 1,24,-1
 903 1137 l 1,25,26
 1036 1131 1036 1131 1187 1082 c 1,27,-1
 1130 790 l 1,6,7
EndSplineSet
Layer: 2
SplineSet
679 854 m 1xe8
 554 792 459 654 459 463 c 3
 459 370 495 302 566 260 c 1
 679 854 l 1xe8
1130 790 m 1
 1034 855 951 882 854 882 c 1
 726 224 l 1
 850 228 952 269 1038 319 c 1
 981 31 l 1
 854 -10 761 -28 675 -28 c 1
 621 -309 l 1
 455 -309 l 1xd8
 509 -24 l 1
 229 21 89 165 89 408 c 3
 89 839 349 1086 736 1137 c 1
 790 1422 l 1
 957 1422 l 1
 903 1137 l 1
 1006 1132 1100 1110 1187 1082 c 1
 1130 790 l 1
EndSplineSet
EndChar

StartChar: sterling
Encoding: 99 163 133
Width: 1414
VWidth: 3555
Flags: W
HStem: 0 264<0 224 583 1066> 587 238<139 288 693 1021> 1245 262<850.305 1226.89>
DStem2: 172.684 0 531.684 0 0.190809 0.981627<337.442 598.219 909.123 1256.19>
LayerCount: 3
Fore
SplineSet
1283 1174 m 1,0,1
 1162 1245 1162 1245 1003 1245 c 259,2,3
 776 1245 776 1245 726 991 c 2,4,-1
 693 825 l 1,5,-1
 1066 825 l 1,6,-1
 1021 587 l 1,7,-1
 648 587 l 1,8,-1
 583 264 l 1,9,-1
 1116 264 l 1,10,-1
 1066 0 l 1,11,-1
 -50 0 l 1,12,-1
 0 264 l 1,13,-1
 224 264 l 1,14,-1
 288 587 l 1,15,-1
 92 587 l 1,16,-1
 139 825 l 1,17,-1
 335 825 l 1,18,-1
 366 991 l 2,19,20
 417 1262 417 1262 566 1384.5 c 128,-1,21
 715 1507 715 1507 991 1507 c 259,22,23
 1170 1507 1170 1507 1337 1458 c 1,24,-1
 1283 1174 l 1,0,1
EndSplineSet
Layer: 2
SplineSet
1283 1174 m 1
 1201 1221 1108 1245 1003 1245 c 3
 848 1245 759 1159 726 991 c 2
 693 825 l 1
 1066 825 l 1
 1021 587 l 1
 648 587 l 1
 583 264 l 1
 1116 264 l 1
 1066 0 l 1
 -50 0 l 1
 0 264 l 1
 224 264 l 1
 288 587 l 1
 92 587 l 1
 139 825 l 1
 335 825 l 1
 366 991 l 2
 430 1332 600 1507 991 1507 c 3
 1110 1507 1226 1491 1337 1458 c 1
 1283 1174 l 1
EndSplineSet
EndChar

StartChar: section
Encoding: 103 167 134
Width: 1015
VWidth: 3555
Flags: W
HStem: -193 207<71.3805 422.172> 1305 202<506.985 856.601>
VStem: -44 290<577.448 766.635> 144 331<1126.11 1273.1> 450 329<47.281 182.496> 675 292<549.773 737.972>
LayerCount: 3
Fore
SplineSet
288 14 m 259,0,1
 349 14 349 14 399.5 41.5 c 128,-1,2
 450 69 450 69 450 115 c 259,3,4
 450 173 450 173 299 245 c 2,5,-1
 245 271 l 2,6,7
 114 334 114 334 35 403 c 128,-1,8
 -44 472 -44 472 -44 584 c 259,9,10
 -44 727 -44 727 33.5 818.5 c 128,-1,11
 111 910 111 910 241 967 c 1,12,13
 191 1012 191 1012 167.5 1051 c 128,-1,14
 144 1090 144 1090 144 1151 c 259,15,16
 144 1312 144 1312 283 1409.5 c 128,-1,17
 422 1507 422 1507 641 1507 c 259,18,19
 791 1507 791 1507 984 1455 c 1,20,-1
 943 1231 l 1,21,22
 800 1279 800 1279 751.5 1292 c 128,-1,23
 703 1305 703 1305 641 1305 c 259,24,25
 574 1305 574 1305 524.5 1276.5 c 128,-1,26
 475 1248 475 1248 475 1198 c 259,27,28
 475 1166 475 1166 514 1130 c 128,-1,29
 553 1094 553 1094 628 1062 c 2,30,-1
 668 1045 l 2,31,32
 805 987 805 987 886 915.5 c 128,-1,33
 967 844 967 844 967 730 c 259,34,35
 967 595 967 595 885 493 c 128,-1,36
 803 391 803 391 668 342 c 1,37,38
 779 277 779 277 779 169 c 259,39,40
 779 8 779 8 627.5 -92.5 c 128,-1,41
 476 -193 476 -193 267 -193 c 259,42,43
 121 -193 121 -193 -89 -139 c 1,44,-1
 -43 99 l 1,45,46
 158 32 158 32 198 23 c 128,-1,47
 238 14 238 14 288 14 c 259,0,1
420 854 m 1,48,49
 246 781 246 781 246 672 c 259,50,51
 246 617 246 617 293 574 c 128,-1,52
 340 531 340 531 509 465 c 1,53,54
 593 500 593 500 634 541.5 c 128,-1,55
 675 583 675 583 675 644 c 259,56,57
 675 716 675 716 602 763.5 c 128,-1,58
 529 811 529 811 420 854 c 1,48,49
EndSplineSet
Layer: 2
SplineSet
288 14 m 3xc8
 361 14 450 49 450 115 c 3
 450 158 397 198 299 245 c 2
 245 271 l 2
 83 349 -44 428 -44 584 c 3xe8
 -44 791 89 900 241 967 c 1
 184 1018 144 1063 144 1151 c 3
 144 1392 382 1507 641 1507 c 3
 764 1507 880 1483 984 1455 c 1
 943 1231 l 1
 848 1263 744 1305 641 1305 c 3
 559 1305 475 1269 475 1198 c 3
 475 1158 523 1106 628 1062 c 2
 668 1045 l 2
 842 971 967 888 967 730 c 3xd4
 967 544 842 405 668 342 c 1
 742 299 779 242 779 169 c 3
 779 -62 525 -193 267 -193 c 3
 134 -193 24 -168 -89 -139 c 1
 -43 99 l 1
 58 62 179 14 288 14 c 3xc8
420 854 m 1
 337 819 246 760 246 672 c 3
 246 568 372 518 509 465 c 1
 616 509 675 560 675 644 c 3xe4
 675 746 546 804 420 854 c 1
EndSplineSet
EndChar

StartChar: bullet
Encoding: 331 8226 135
Width: 1300
VWidth: 3555
Flags: W
HStem: 398 715<507.041 731.191>
VStem: 250 731<640.044 852.582>
LayerCount: 3
Fore
SplineSet
250 679 m 259,0,1
 250 849 250 849 383.5 981 c 128,-1,2
 517 1113 517 1113 686 1113 c 259,3,4
 813 1113 813 1113 897 1031.5 c 128,-1,5
 981 950 981 950 981 828 c 259,6,7
 981 649 981 649 852 523.5 c 128,-1,8
 723 398 723 398 543 398 c 259,9,10
 422 398 422 398 336 476 c 128,-1,11
 250 554 250 554 250 679 c 259,0,1
EndSplineSet
Layer: 2
SplineSet
250 679 m 3
 250 907 458 1113 686 1113 c 3
 856 1113 981 990 981 828 c 3
 981 587 781 398 543 398 c 3
 388 398 250 507 250 679 c 3
EndSplineSet
EndChar

StartChar: paragraph
Encoding: 118 182 136
Width: 1293
VWidth: 3555
Flags: W
HStem: 1333 150<818 1007>
VStem: 330 193<-196 -3> 712 187<-196 -9>
DStem2: 330 -196 523 -196 0.190809 0.981627<36.8261 856.05> 712 -196 899 -196 0.190809 0.981627<35.6813 1557.2>
LayerCount: 3
Fore
SplineSet
1227 1483 m 1,0,-1
 899 -196 l 1,1,-1
 712 -196 l 1,2,-1
 1007 1333 l 1,3,-1
 818 1333 l 1,4,-1
 523 -196 l 1,5,-1
 330 -196 l 1,6,-1
 495 644 l 1,7,8
 150 685 150 685 150 963 c 259,9,10
 150 1118 150 1118 223.5 1237.5 c 128,-1,11
 297 1357 297 1357 423.5 1420 c 128,-1,12
 550 1483 550 1483 708 1483 c 2,13,-1
 1227 1483 l 1,0,-1
EndSplineSet
Layer: 2
SplineSet
1227 1483 m 1
 899 -196 l 1
 712 -196 l 1
 1007 1333 l 1
 818 1333 l 1
 523 -196 l 1
 330 -196 l 1
 495 644 l 1
 294 668 150 756 150 963 c 3
 150 1280 392 1483 708 1483 c 2
 1227 1483 l 1
EndSplineSet
EndChar

StartChar: germandbls
Encoding: 159 223 137
Width: 1463
VWidth: 3555
Flags: W
HStem: -28 235<538.741 852.682> 0 21G<-7 355.846> 1309 238<657.584 929.375>
VStem: -7 359<0 359> 605 329<706.5 925.131> 912 359<261.873 447.758> 960 321<1131.09 1276.1>
DStem2: -12.4426 -28 346.557 -28 0.190809 0.981627<97.0245 1380.32>
LayerCount: 3
Fore
SplineSet
729 207 m 259,0,1
 802 207 802 207 857 250.5 c 128,-1,2
 912 294 912 294 912 361 c 259,3,4
 912 439 912 439 793 505 c 2,5,-1
 729 540 l 2,6,7
 675 570 675 570 640 627.5 c 128,-1,8
 605 685 605 685 605 755 c 259,9,10
 605 905 605 905 705 997.5 c 128,-1,11
 805 1090 805 1090 957 1137 c 1,12,13
 960 1158 960 1158 960 1176 c 259,14,15
 960 1309 960 1309 804 1309 c 259,16,17
 604 1309 604 1309 562 1092 c 2,18,-1
 352 0 l 1,19,-1
 -7 0 l 1,20,-1
 207 1106 l 2,21,22
 292 1547 292 1547 832 1547 c 259,23,24
 1281 1547 1281 1547 1281 1218 c 259,25,26
 1281 1166 1281 1166 1269 1106 c 2,27,-1
 1255 1035 l 1,28,29
 934 1012 934 1012 934 854 c 259,30,31
 934 816 934 816 963 787.5 c 128,-1,32
 992 759 992 759 1045 729 c 2,33,-1
 1109 693 l 2,34,35
 1178 654 1178 654 1224.5 584 c 128,-1,36
 1271 514 1271 514 1271 429 c 259,37,38
 1271 208 1271 208 1125.5 90 c 128,-1,39
 980 -28 980 -28 729 -28 c 259,40,41
 625 -28 625 -28 465 17 c 1,42,-1
 516 264 l 1,43,44
 603 207 603 207 729 207 c 259,0,1
EndSplineSet
Layer: 2
SplineSet
729 207 m 3xb4
 823 207 912 268 912 361 c 3xb4
 912 410 868 464 793 505 c 2
 729 540 l 2
 660 578 605 658 605 755 c 3
 605 964 769 1079 957 1137 c 1
 959 1151 960 1164 960 1176 c 3
 960 1265 908 1309 804 1309 c 3
 671 1309 590 1237 562 1092 c 2
 352 0 l 1
 -7 0 l 1
 207 1106 l 2
 264 1400 472 1547 832 1547 c 3
 1094 1547 1281 1462 1281 1218 c 3
 1281 1183 1277 1146 1269 1106 c 2
 1255 1035 l 1
 1049 1020 934 962 934 854 c 3x7a
 934 798 986 762 1045 729 c 2
 1109 693 l 2
 1195 645 1271 549 1271 429 c 3
 1271 129 1057 -28 729 -28 c 3
 633 -28 547 -6 465 17 c 1
 516 264 l 1
 574 226 642 207 729 207 c 3xb4
EndSplineSet
EndChar

StartChar: registered
Encoding: 110 174 138
Width: 2032
VWidth: 3555
Flags: W
HStem: 0 156<648.528 1095.67> 1028 139<946 1108.24> 1319 157<880.414 1307.26>
VStem: 229 156<416.114 835.625> 601 210<339 549> 1118 232<858.136 1012.71> 1579 154<640.71 1051.84>
DStem2: 535.105 0 745.105 0 0.190809 0.981627<385.415 741.769 880.613 1087.52> 1279 339 984 543 0.297516 -0.954717<-399.809 -66.6437>
LayerCount: 3
Fore
SplineSet
1095 1319 m 259,0,1
 818 1319 818 1319 601.5 1113 c 128,-1,2
 385 907 385 907 385 617 c 259,3,4
 385 407 385 407 521 281.5 c 128,-1,5
 657 156 657 156 868 156 c 259,6,7
 1155 156 1155 156 1367 372.5 c 128,-1,8
 1579 589 1579 589 1579 850 c 259,9,10
 1579 1053 1579 1053 1439.5 1186 c 128,-1,11
 1300 1319 1300 1319 1095 1319 c 259,0,1
943 825 m 2,12,13
 1118 825 1118 825 1118 951 c 259,14,15
 1118 1028 1118 1028 981 1028 c 2,16,-1
 946 1028 l 1,17,-1
 906 825 l 1,18,-1
 943 825 l 2,12,13
1350 985 m 259,19,20
 1350 874 1350 874 1282.5 805 c 128,-1,21
 1215 736 1215 736 1109 715 c 1,22,23
 1176 668 1176 668 1212 554 c 2,24,-1
 1279 339 l 1,25,-1
 1055 339 l 1,26,-1
 984 543 l 2,27,28
 945 653 945 653 925.5 671 c 128,-1,29
 906 689 906 689 878 689 c 1,30,-1
 811 339 l 1,31,-1
 601 339 l 1,32,-1
 760 1167 l 1,33,-1
 1045 1167 l 2,34,35
 1350 1167 1350 1167 1350 985 c 259,19,20
1123 1476 m 259,36,37
 1384 1476 1384 1476 1558.5 1308.5 c 128,-1,38
 1733 1141 1733 1141 1733 889 c 259,39,40
 1733 547 1733 547 1458 273.5 c 128,-1,41
 1183 0 1183 0 838 0 c 259,42,43
 575 0 575 0 402 165.5 c 128,-1,44
 229 331 229 331 229 583 c 259,45,46
 229 936 229 936 511.5 1206 c 128,-1,47
 794 1476 794 1476 1123 1476 c 259,36,37
EndSplineSet
Layer: 2
SplineSet
1095 1319 m 3
 730 1319 385 1010 385 617 c 3
 385 331 593 156 868 156 c 3
 1264 156 1579 510 1579 850 c 3
 1579 1124 1365 1319 1095 1319 c 3
943 825 m 2
 1053 825 1118 864 1118 951 c 3
 1118 1002 1073 1028 981 1028 c 2
 946 1028 l 1
 906 825 l 1
 943 825 l 2
1350 985 m 3
 1350 830 1241 741 1109 715 c 1
 1152 684 1188 630 1212 554 c 2
 1279 339 l 1
 1055 339 l 1
 984 543 l 2
 948 645 933 689 878 689 c 1
 811 339 l 1
 601 339 l 1
 760 1167 l 1
 1045 1167 l 2
 1249 1167 1350 1106 1350 985 c 3
1123 1476 m 3
 1471 1476 1733 1226 1733 889 c 3
 1733 432 1305 0 838 0 c 3
 490 0 229 247 229 583 c 3
 229 1075 699 1476 1123 1476 c 3
EndSplineSet
EndChar

StartChar: copyright
Encoding: 105 169 139
Width: 2032
VWidth: 3555
Flags: W
HStem: 0 156<648.528 1099.2> 309 189<855.443 1192.73> 974 189<944.169 1264.06> 1319 157<874.457 1307.26>
VStem: 229 156<416.114 839.362> 548 261<545.49 838.252> 1579 154<637.105 1051.84>
LayerCount: 3
Fore
SplineSet
936 309 m 259,0,1
 760 309 760 309 654 391.5 c 128,-1,2
 548 474 548 474 548 632 c 259,3,4
 548 867 548 867 705 1015 c 128,-1,5
 862 1163 862 1163 1102 1163 c 259,6,7
 1213 1163 1213 1163 1351 1116 c 1,8,-1
 1309 903 l 1,9,10
 1205 974 1205 974 1102 974 c 259,11,12
 968 974 968 974 888.5 887 c 128,-1,13
 809 800 809 800 809 661 c 259,14,15
 809 498 809 498 1010 498 c 259,16,17
 1140 498 1140 498 1241 566 c 1,18,-1
 1201 356 l 1,19,20
 1038 309 1038 309 936 309 c 259,0,1
1095 1319 m 259,21,22
 820 1319 820 1319 602.5 1109 c 128,-1,23
 385 899 385 899 385 617 c 259,24,25
 385 407 385 407 521 281.5 c 128,-1,26
 657 156 657 156 868 156 c 259,27,28
 1156 156 1156 156 1367.5 378 c 128,-1,29
 1579 600 1579 600 1579 850 c 259,30,31
 1579 1053 1579 1053 1439.5 1186 c 128,-1,32
 1300 1319 1300 1319 1095 1319 c 259,21,22
1123 1476 m 259,33,34
 1384 1476 1384 1476 1558.5 1308.5 c 128,-1,35
 1733 1141 1733 1141 1733 889 c 259,36,37
 1733 547 1733 547 1464.5 273.5 c 128,-1,38
 1196 0 1196 0 838 0 c 259,39,40
 578 0 578 0 403.5 166 c 128,-1,41
 229 332 229 332 229 583 c 259,42,43
 229 929 229 929 504.5 1202.5 c 128,-1,44
 780 1476 780 1476 1123 1476 c 259,33,34
EndSplineSet
Layer: 2
SplineSet
936 309 m 3
 711 309 548 414 548 632 c 3
 548 949 786 1163 1102 1163 c 3
 1204 1163 1272 1143 1351 1116 c 1
 1309 903 l 1
 1240 950 1171 974 1102 974 c 3
 921 974 809 843 809 661 c 3
 809 553 876 498 1010 498 c 3
 1097 498 1174 521 1241 566 c 1
 1201 356 l 1
 1118 332 1033 309 936 309 c 3
1095 1319 m 3
 728 1319 385 996 385 617 c 3
 385 331 593 156 868 156 c 3
 1264 156 1579 525 1579 850 c 3
 1579 1124 1365 1319 1095 1319 c 3
1123 1476 m 3
 1471 1476 1733 1226 1733 889 c 3
 1733 438 1324 0 838 0 c 3
 490 0 229 247 229 583 c 3
 229 1053 669 1476 1123 1476 c 3
EndSplineSet
EndChar

StartChar: trademark
Encoding: 337 8482 140
Width: 2032
VWidth: 3555
Flags: W
HStem: 1340 143<401 543 715 889>
VStem: 458 170<906 1076> 913 175<906 1081> 1432 172<906 1078>
DStem2: 458 906 628 906 0.190809 0.981627<32.4375 442.245> 913 906 1088 906 0.190809 0.981627<33.3916 475.827> 1326 1255 1333 1088 0.589695 0.807626<0 181.28> 1432 906 1604 906 0.190809 0.981627<32.8191 442.245>
LayerCount: 3
Fore
SplineSet
1326 1255 m 1,0,-1
 1493 1483 l 1,1,-1
 1717 1483 l 1,2,-1
 1604 906 l 1,3,-1
 1432 906 l 1,4,-1
 1517 1340 l 1,5,-1
 1333 1088 l 1,6,-1
 1262 1088 l 1,7,-1
 1174 1340 l 1,8,-1
 1088 906 l 1,9,-1
 913 906 l 1,10,-1
 1028 1483 l 1,11,-1
 1259 1483 l 1,12,-1
 1326 1255 l 1,0,-1
889 1340 m 1,13,-1
 715 1340 l 1,14,-1
 628 906 l 1,15,-1
 458 906 l 1,16,-1
 543 1340 l 1,17,-1
 373 1340 l 1,18,-1
 401 1483 l 1,19,-1
 917 1483 l 1,20,-1
 889 1340 l 1,13,-1
EndSplineSet
Layer: 2
SplineSet
1326 1255 m 1
 1493 1483 l 1
 1717 1483 l 1
 1604 906 l 1
 1432 906 l 1
 1517 1340 l 1
 1333 1088 l 1
 1262 1088 l 1
 1174 1340 l 1
 1088 906 l 1
 913 906 l 1
 1028 1483 l 1
 1259 1483 l 1
 1326 1255 l 1
889 1340 m 1
 715 1340 l 1
 628 906 l 1
 458 906 l 1
 543 1340 l 1
 373 1340 l 1
 401 1483 l 1
 917 1483 l 1
 889 1340 l 1
EndSplineSet
EndChar

StartChar: acute
Encoding: 116 180 141
Width: 1015
VWidth: 3555
Flags: W
HStem: 1252 373
VStem: 427 632
LayerCount: 3
Fore
SplineSet
1059 1625 m 1,0,-1
 621 1252 l 1,1,-1
 427 1252 l 1,2,-1
 779 1625 l 1,3,-1
 1059 1625 l 1,0,-1
EndSplineSet
Layer: 2
SplineSet
1059 1625 m 1
 621 1252 l 1
 427 1252 l 1
 779 1625 l 1
 1059 1625 l 1
EndSplineSet
EndChar

StartChar: dieresis
Encoding: 104 168 142
Width: 1015
VWidth: 3555
Flags: W
HStem: 1326 249<323 509 715 899>
VStem: 274 235<1326 1561> 323 236<1339 1575> 665 234<1326 1560> 715 235<1340 1575>
LayerCount: 3
Fore
SplineSet
559 1575 m 1,0,-1
 509 1326 l 1,1,-1
 274 1326 l 1,2,-1
 323 1575 l 1,3,-1
 559 1575 l 1,0,-1
950 1575 m 1,4,-1
 899 1326 l 1,5,-1
 665 1326 l 1,6,-1
 715 1575 l 1,7,-1
 950 1575 l 1,4,-1
EndSplineSet
Layer: 2
SplineSet
559 1575 m 1xa0
 509 1326 l 1
 274 1326 l 1xc0
 323 1575 l 1
 559 1575 l 1xa0
950 1575 m 1x88
 899 1326 l 1
 665 1326 l 1x90
 715 1575 l 1
 950 1575 l 1x88
EndSplineSet
EndChar

StartChar: notequal
Encoding: 349 8800 143
Width: 1701
VWidth: 3555
Flags: W
HStem: -10 21G<254.469 294.265> 292 237<135 326 821 1361> 746 231<224 774 1262 1451>
DStem2: 149 118 274 -10 0.706804 0.707409<0 248.194 765.718 886.006 1394.34 1646.14>
LayerCount: 3
Fore
SplineSet
1014 977 m 1,0,-1
 1316 1279 l 1,1,-1
 1443 1160 l 1,2,-1
 1262 977 l 1,3,-1
 1496 977 l 1,4,-1
 1451 746 l 1,5,-1
 1042 746 l 1,6,-1
 821 529 l 1,7,-1
 1408 529 l 1,8,-1
 1361 292 l 1,9,-1
 580 292 l 1,10,-1
 274 -10 l 1,11,-1
 149 118 l 1,12,-1
 326 292 l 1,13,-1
 89 292 l 1,14,-1
 135 529 l 1,15,-1
 559 529 l 1,16,-1
 774 746 l 1,17,-1
 177 746 l 1,18,-1
 224 977 l 1,19,-1
 1014 977 l 1,0,-1
EndSplineSet
Layer: 2
SplineSet
1014 977 m 1
 1316 1279 l 1
 1443 1160 l 1
 1262 977 l 1
 1496 977 l 1
 1451 746 l 1
 1042 746 l 1
 821 529 l 1
 1408 529 l 1
 1361 292 l 1
 580 292 l 1
 274 -10 l 1
 149 118 l 1
 326 292 l 1
 89 292 l 1
 135 529 l 1
 559 529 l 1
 774 746 l 1
 177 746 l 1
 224 977 l 1
 1014 977 l 1
EndSplineSet
EndChar

StartChar: AE
Encoding: 134 198 144
Width: 2206
VWidth: 3555
Flags: W
HStem: 0 288<1262 1880> 349 269<569 896> 628 285<1384 1937> 1194 289<1439 2090> 1231 252<943 1066>
VStem: -177 370<0 370>
DStem2: -177 0 193 0 0.521334 0.853353<192.893 600.715 916.287 1634.37>
LayerCount: 3
Fore
SplineSet
569 618 m 1,0,-1
 946 618 l 1,1,-1
 1066 1231 l 1,2,-1
 943 1231 l 1,3,-1
 569 618 l 1,0,-1
2147 1483 m 1,4,-1
 2090 1194 l 1,5,-1
 1439 1194 l 1,6,-1
 1384 913 l 1,7,-1
 1991 913 l 1,8,-1
 1937 628 l 1,9,-1
 1330 628 l 1,10,-1
 1262 288 l 1,11,-1
 1934 288 l 1,12,-1
 1880 0 l 1,13,-1
 828 0 l 1,14,-1
 896 349 l 1,15,-1
 404 349 l 1,16,-1
 193 0 l 1,17,-1
 -177 0 l 1,18,-1
 729 1483 l 1,19,-1
 2147 1483 l 1,4,-1
EndSplineSet
Layer: 2
SplineSet
569 618 m 1xec
 946 618 l 1
 1066 1231 l 1
 943 1231 l 1
 569 618 l 1xec
2147 1483 m 1
 2090 1194 l 1
 1439 1194 l 1xf4
 1384 913 l 1
 1991 913 l 1
 1937 628 l 1
 1330 628 l 1
 1262 288 l 1
 1934 288 l 1
 1880 0 l 1
 828 0 l 1
 896 349 l 1
 404 349 l 1
 193 0 l 1
 -177 0 l 1
 729 1483 l 1
 2147 1483 l 1
EndSplineSet
EndChar

StartChar: Oslash
Encoding: 152 216 145
Width: 1727
VWidth: 3555
Flags: W
HStem: -28 273<570.814 907.869> 1234 273<755.896 1090.57>
VStem: 44 399<520.579 845.204> 1214 396<630.188 966.832>
DStem2: -125 40 -40 -75 0.766903 0.641763<0 320.556 746.84 1622.19 2041.94 2356.74>
LayerCount: 3
Fore
SplineSet
491 370 m 1,0,1
 569 245 569 245 736 245 c 259,2,3
 952 245 952 245 1083 447.5 c 128,-1,4
 1214 650 1214 650 1214 903 c 259,5,6
 1214 930 1214 930 1212 970 c 1,7,-1
 491 370 l 1,0,1
1163 1116 m 1,8,9
 1094 1234 1094 1234 929 1234 c 259,10,11
 714 1234 714 1234 579 1036 c 128,-1,12
 444 838 444 838 443 582 c 256,13,14
 443 572 443 572 448 519 c 1,15,-1
 1163 1116 l 1,8,9
1536 1241 m 1,16,17
 1610 1129 1610 1129 1610 950 c 259,18,19
 1610 522 1610 522 1351 247 c 128,-1,20
 1092 -28 1092 -28 682 -28 c 259,21,22
 376 -28 376 -28 207 132 c 1,23,-1
 -40 -75 l 1,24,-1
 -125 40 l 1,25,-1
 115 238 l 1,26,27
 44 377 44 377 44 548 c 259,28,29
 44 946 44 946 304 1226.5 c 128,-1,30
 564 1507 564 1507 981 1507 c 259,31,32
 1278 1507 1278 1507 1448 1354 c 1,33,-1
 1686 1557 l 1,34,-1
 1774 1443 l 1,35,-1
 1536 1241 l 1,16,17
EndSplineSet
Layer: 2
SplineSet
491 370 m 1
 543 287 625 245 736 245 c 3
 1047 245 1214 594 1214 903 c 3
 1214 927 1213 950 1212 970 c 1
 491 370 l 1
1163 1116 m 1
 1119 1191 1042 1234 929 1234 c 3
 613 1234 443 886 443 582 c 3
 443 559 445 538 448 519 c 1
 1163 1116 l 1
1536 1241 m 1
 1587 1164 1610 1071 1610 950 c 3
 1610 394 1248 -28 682 -28 c 3
 479 -28 320 25 207 132 c 1
 -40 -75 l 1
 -125 40 l 1
 115 238 l 1
 68 330 44 433 44 548 c 3
 44 1086 424 1507 981 1507 c 3
 1180 1507 1335 1456 1448 1354 c 1
 1686 1557 l 1
 1774 1443 l 1
 1536 1241 l 1
EndSplineSet
EndChar

StartChar: infinity
Encoding: 346 8734 146
Width: 1690
VWidth: 3555
Flags: W
HStem: 184 250<280.87 535.728 933.869 1204.35> 779 245<375.021 633.023 1048.66 1289.44>
VStem: 118 125<472.94 691.948> 1324 127<514.527 742.093>
LayerCount: 3
Fore
SplineSet
1324 645 m 259,0,1
 1324 706 1324 706 1281.5 742.5 c 128,-1,2
 1239 779 1239 779 1177 779 c 259,3,4
 1099 779 1099 779 1027 719.5 c 128,-1,5
 955 660 955 660 878 559 c 1,6,7
 936 424 936 424 1088 424 c 259,8,9
 1186 424 1186 424 1255 487.5 c 128,-1,10
 1324 551 1324 551 1324 645 c 259,0,1
243 566 m 259,11,12
 243 505 243 505 287.5 469.5 c 128,-1,13
 332 434 332 434 398 434 c 259,14,15
 495 434 495 434 559.5 495.5 c 128,-1,16
 624 557 624 557 693 651 c 1,17,18
 634 786 634 786 488 786 c 259,19,20
 387 786 387 786 315 724 c 128,-1,21
 243 662 243 662 243 566 c 259,11,12
1187 1024 m 259,22,23
 1304 1024 1304 1024 1377.5 936.5 c 128,-1,24
 1451 849 1451 849 1451 717 c 259,25,26
 1451 509 1451 509 1333 346.5 c 128,-1,27
 1215 184 1215 184 1049 184 c 259,28,29
 961 184 961 184 901.5 227 c 128,-1,30
 842 270 842 270 760 441 c 1,31,32
 569 184 569 184 387 184 c 259,33,34
 268 184 268 184 193 275 c 128,-1,35
 118 366 118 366 118 500 c 259,36,37
 118 708 118 708 245.5 866 c 128,-1,38
 373 1024 373 1024 526 1024 c 259,39,40
 609 1024 609 1024 671 977 c 128,-1,41
 733 930 733 930 814 767 c 1,42,43
 1003 1024 1003 1024 1187 1024 c 259,22,23
EndSplineSet
Layer: 2
SplineSet
1324 645 m 3
 1324 728 1257 779 1177 779 c 3
 1062 779 962 669 878 559 c 1
 917 469 987 424 1088 424 c 3
 1217 424 1324 518 1324 645 c 3
243 566 m 3
 243 481 314 434 398 434 c 3
 533 434 616 544 693 651 c 1
 654 741 585 786 488 786 c 3
 356 786 243 697 243 566 c 3
1187 1024 m 3
 1345 1024 1451 890 1451 717 c 3
 1451 461 1289 184 1049 184 c 3
 884 184 827 297 760 441 c 1
 633 270 508 184 387 184 c 3
 225 184 118 325 118 500 c 3
 118 758 303 1024 526 1024 c 3
 681 1024 747 900 814 767 c 1
 940 938 1064 1024 1187 1024 c 3
EndSplineSet
EndChar

StartChar: plusminus
Encoding: 113 177 147
Width: 1701
VWidth: 3555
Flags: W
HStem: 0 234<78 1309> 689 235<214 686 967 1439>
VStem: 618 236<339 575> 800 235<1037 1272>
DStem2: 552.105 0 788.105 0 0.190809 0.981627<390.376 701.889 986.189 1295.93>
LayerCount: 3
Fore
SplineSet
967 924 m 1,0,-1
 1486 924 l 1,1,-1
 1439 689 l 1,2,-1
 920 689 l 1,3,-1
 854 339 l 1,4,-1
 618 339 l 1,5,-1
 686 689 l 1,6,-1
 167 689 l 1,7,-1
 214 924 l 1,8,-1
 733 924 l 1,9,-1
 800 1272 l 1,10,-1
 1035 1272 l 1,11,-1
 967 924 l 1,0,-1
1351 234 m 1,12,-1
 1309 0 l 1,13,-1
 35 0 l 1,14,-1
 78 234 l 1,15,-1
 1351 234 l 1,12,-1
EndSplineSet
Layer: 2
SplineSet
967 924 m 1xd0
 1486 924 l 1
 1439 689 l 1
 920 689 l 1
 854 339 l 1
 618 339 l 1xe0
 686 689 l 1
 167 689 l 1
 214 924 l 1
 733 924 l 1
 800 1272 l 1
 1035 1272 l 1
 967 924 l 1xd0
1351 234 m 1
 1309 0 l 1
 35 0 l 1
 78 234 l 1
 1351 234 l 1
EndSplineSet
EndChar

StartChar: lessequal
Encoding: 350 8804 148
Width: 1701
VWidth: 3555
Flags: W
HStem: 0 234<78 1309>
DStem2: 562 733 153 615 0.964653 -0.263523<0 869.855> 200 854 562 733 0.970823 0.239799<322.422 1271.77>
LayerCount: 3
Fore
SplineSet
1309 0 m 1,0,-1
 35 0 l 1,1,-1
 78 234 l 1,2,-1
 1351 234 l 1,3,-1
 1309 0 l 1,0,-1
562 733 m 1,4,-1
 1408 529 l 1,5,-1
 1361 285 l 1,6,-1
 153 615 l 1,7,-1
 200 854 l 1,8,-1
 1536 1184 l 1,9,-1
 1489 939 l 1,10,-1
 562 733 l 1,4,-1
EndSplineSet
Layer: 2
SplineSet
1309 0 m 1
 35 0 l 1
 78 234 l 1
 1351 234 l 1
 1309 0 l 1
562 733 m 1
 1408 529 l 1
 1361 285 l 1
 153 615 l 1
 200 854 l 1
 1536 1184 l 1
 1489 939 l 1
 562 733 l 1
EndSplineSet
EndChar

StartChar: greaterequal
Encoding: 351 8805 149
Width: 1701
VWidth: 3555
Flags: W
HStem: 0 234<78 1309>
DStem2: 135 529 89 285 0.970823 0.239799<0 955.667>
LayerCount: 3
Fore
SplineSet
1351 234 m 1,0,-1
 1309 0 l 1,1,-1
 35 0 l 1,2,-1
 78 234 l 1,3,-1
 1351 234 l 1,0,-1
264 1184 m 1,4,-1
 1472 854 l 1,5,-1
 1425 615 l 1,6,-1
 89 285 l 1,7,-1
 135 529 l 1,8,-1
 1069 733 l 1,9,-1
 217 939 l 1,10,-1
 264 1184 l 1,4,-1
EndSplineSet
Layer: 2
SplineSet
1351 234 m 1
 1309 0 l 1
 35 0 l 1
 78 234 l 1
 1351 234 l 1
264 1184 m 1
 1472 854 l 1
 1425 615 l 1
 89 285 l 1
 135 529 l 1
 1069 733 l 1
 217 939 l 1
 264 1184 l 1
EndSplineSet
EndChar

StartChar: yen
Encoding: 101 165 150
Width: 1414
VWidth: 3555
Flags: W
HStem: 0 21G<342 722.741> 417 187<7 420 835 1248> 757 189<71 363 1059 1316> 1463 20G<135 541.41 1085.62 1500>
VStem: 342 377<0 377> 1102 398<1085 1483>
DStem2: 726 1024 1059 946 0.628315 0.777959<148.548 593.33>
LayerCount: 3
Fore
SplineSet
797 417 m 1,0,-1
 719 0 l 1,1,-1
 342 0 l 1,2,-1
 420 417 l 1,3,-1
 -31 417 l 1,4,-1
 7 604 l 1,5,-1
 458 604 l 1,6,-1
 469 672 l 1,7,-1
 437 757 l 1,8,-1
 35 757 l 1,9,-1
 71 946 l 1,10,-1
 363 946 l 1,11,-1
 135 1483 l 1,12,-1
 533 1483 l 1,13,-1
 726 1024 l 1,14,-1
 1102 1483 l 1,15,-1
 1500 1483 l 1,16,-1
 1059 946 l 1,17,-1
 1351 946 l 1,18,-1
 1316 757 l 1,19,-1
 913 757 l 1,20,-1
 845 672 l 1,21,-1
 835 604 l 1,22,-1
 1286 604 l 1,23,-1
 1248 417 l 1,24,-1
 797 417 l 1,0,-1
EndSplineSet
Layer: 2
SplineSet
797 417 m 1
 719 0 l 1
 342 0 l 1
 420 417 l 1
 -31 417 l 1
 7 604 l 1
 458 604 l 1
 469 672 l 1
 437 757 l 1
 35 757 l 1
 71 946 l 1
 363 946 l 1
 135 1483 l 1
 533 1483 l 1
 726 1024 l 1
 1102 1483 l 1
 1500 1483 l 1
 1059 946 l 1
 1351 946 l 1
 1316 757 l 1
 913 757 l 1
 845 672 l 1
 835 604 l 1
 1286 604 l 1
 1248 417 l 1
 797 417 l 1
EndSplineSet
EndChar

StartChar: mu
Encoding: 117 181 151
Width: 1496
VWidth: 3555
Flags: W
HStem: -427 21G<-89 270.879> -28 262<469.512 723.025 994 1241.71> 1093 20G<206.117 566 963.142 1323>
VStem: -89 356<-427 -71> 210 356<757 1113> 967 356<757 1113>
DStem2: -89 -427 267 -427 0.190809 0.981627<67.928 572.151 902.652 1568.76> 668.613 -427 1025.08 -427 0.190809 0.981627<814.261 1568.64>
LayerCount: 3
Fore
SplineSet
1055 -28 m 259,0,1
 965 -28 965 -28 917.5 11.5 c 128,-1,2
 870 51 870 51 854 132 c 1,3,4
 727 -28 727 -28 554 -28 c 259,5,6
 410 -28 410 -28 363 68 c 1,7,-1
 267 -427 l 1,8,-1
 -89 -427 l 1,9,-1
 210 1113 l 1,10,-1
 566 1113 l 1,11,-1
 441 465 l 2,12,13
 433 422 433 422 433 390 c 259,14,15
 433 234 433 234 597 234 c 259,16,17
 797 234 797 234 842 465 c 2,18,-1
 967 1113 l 1,19,-1
 1323 1113 l 1,20,-1
 1180 370 l 2,21,22
 1171 324 1171 324 1171 304 c 259,23,24
 1171 238 1171 238 1231 238 c 259,25,26
 1261 238 1261 238 1273 245 c 128,-1,27
 1285 252 1285 252 1302 264 c 1,28,-1
 1252 14 l 1,29,30
 1144 -28 1144 -28 1055 -28 c 259,0,1
EndSplineSet
Layer: 2
SplineSet
1055 -28 m 3xec
 933 -28 875 26 854 132 c 1
 769 25 669 -28 554 -28 c 3
 458 -28 394 4 363 68 c 1
 267 -427 l 1
 -89 -427 l 1xf4
 210 1113 l 1
 566 1113 l 1
 441 465 l 2
 436 438 433 413 433 390 c 3
 433 286 488 234 597 234 c 3
 732 234 812 311 842 465 c 2
 967 1113 l 1
 1323 1113 l 1
 1180 370 l 2
 1174 344 1171 322 1171 304 c 3
 1171 261 1191 238 1231 238 c 3
 1267 238 1276 246 1302 264 c 1
 1252 14 l 1
 1180 -14 1114 -28 1055 -28 c 3xec
EndSplineSet
EndChar

StartChar: partialdiff
Encoding: 338 8706 152
Width: 1104
VWidth: 3555
Flags: W
HStem: -24 78<219.961 402.522> 764 94<417.11 601.358> 1238 113<611.5 816.234>
VStem: -54 247<121.306 425.496> 833 200<895.496 1166.95>
LayerCount: 3
Fore
SplineSet
458 858 m 259,0,1
 561 858 561 858 620 812.5 c 128,-1,2
 679 767 679 767 715 679 c 1,3,4
 779 850 779 850 806 944 c 128,-1,5
 833 1038 833 1038 833 1111 c 259,6,7
 833 1161 833 1161 816 1199.5 c 128,-1,8
 799 1238 799 1238 767 1238 c 259,9,10
 743 1238 743 1238 660 1175 c 0,11,12
 502 1055 502 1055 420 1055 c 259,13,14
 382 1055 382 1055 356.5 1079.5 c 128,-1,15
 331 1104 331 1104 331 1143 c 259,16,17
 331 1231 331 1231 440.5 1291 c 128,-1,18
 550 1351 550 1351 675 1351 c 259,19,20
 850 1351 850 1351 941.5 1242 c 128,-1,21
 1033 1133 1033 1133 1033 943 c 259,22,23
 1033 588 1033 588 813.5 282 c 128,-1,24
 594 -24 594 -24 285 -24 c 259,25,26
 137 -24 137 -24 41.5 60 c 128,-1,27
 -54 144 -54 144 -54 287 c 259,28,29
 -54 513 -54 513 100.5 685.5 c 128,-1,30
 255 858 255 858 458 858 c 259,0,1
625 623 m 3,31,32
 625 764 625 764 516 764 c 259,33,34
 398 764 398 764 295.5 564 c 128,-1,35
 193 364 193 364 193 189 c 259,36,37
 193 54 193 54 299 54 c 259,38,39
 427 54 427 54 526 249.5 c 128,-1,40
 625 445 625 445 625 623 c 3,31,32
EndSplineSet
Layer: 2
SplineSet
458 858 m 3
 603 858 671 787 715 679 c 1
 789 878 833 1005 833 1111 c 3
 833 1170 813 1238 767 1238 c 3
 719 1238 545 1055 420 1055 c 3
 370 1055 331 1090 331 1143 c 3
 331 1284 548 1351 675 1351 c 3
 913 1351 1033 1191 1033 943 c 3
 1033 505 723 -24 285 -24 c 3
 93 -24 -54 92 -54 287 c 3
 -54 588 181 858 458 858 c 3
625 623 m 3
 625 706 593 764 516 764 c 3
 344 764 193 396 193 189 c 3
 193 99 228 54 299 54 c 3
 491 54 625 421 625 623 c 3
EndSplineSet
EndChar

StartChar: summation
Encoding: 341 8721 153
Width: 1459
VWidth: 3555
Flags: W
HStem: -387 259<292 1160> 1198 267<547 1415>
DStem2: -177 -220 292 -128 0.738217 0.674563<408.284 1131.1> 547 1198 128 1234 0.6086 -0.793477<0 587.282>
LayerCount: 3
Fore
SplineSet
1469 1465 m 1,0,-1
 1415 1198 l 1,1,-1
 547 1198 l 1,2,-1
 1038 559 l 1,3,-1
 292 -128 l 1,4,-1
 1212 -128 l 1,5,-1
 1160 -387 l 1,6,-1
 -210 -387 l 1,7,-1
 -177 -220 l 1,8,-1
 658 543 l 1,9,-1
 128 1234 l 1,10,-1
 174 1465 l 1,11,-1
 1469 1465 l 1,0,-1
EndSplineSet
Layer: 2
SplineSet
1469 1465 m 1
 1415 1198 l 1
 547 1198 l 1
 1038 559 l 1
 292 -128 l 1
 1212 -128 l 1
 1160 -387 l 1
 -210 -387 l 1
 -177 -220 l 1
 658 543 l 1
 128 1234 l 1
 174 1465 l 1
 1469 1465 l 1
EndSplineSet
EndChar

StartChar: product
Encoding: 340 8719 154
Width: 1598
VWidth: 3555
Flags: W
HStem: 1177 288<543 1156>
DStem2: -102 -387 238 -387 0.190809 0.981627<64.8751 1658.34> 849 -387 1194 -387 0.190809 0.981627<65.8291 1593.84>
LayerCount: 3
Fore
SplineSet
1557 1465 m 1,0,-1
 1194 -387 l 1,1,-1
 849 -387 l 1,2,-1
 1156 1177 l 1,3,-1
 543 1177 l 1,4,-1
 238 -387 l 1,5,-1
 -102 -387 l 1,6,-1
 260 1465 l 1,7,-1
 1557 1465 l 1,0,-1
EndSplineSet
Layer: 2
SplineSet
1557 1465 m 1xe0
 1194 -387 l 1
 849 -387 l 1xd0
 1156 1177 l 1
 543 1177 l 1
 238 -387 l 1
 -102 -387 l 1
 260 1465 l 1
 1557 1465 l 1xe0
EndSplineSet
EndChar

StartChar: pi
Encoding: 222 960 155
Width: 1307
VWidth: 3555
Flags: W
HStem: 0 21G<-3 288.306 516 807.399> 865 220<192.511 309 597 835 1120 1293>
VStem: -68 210<733 822.962>
DStem2: -3 0 281 0 0.343138 0.939285<97.4511 919.541> 516 0 800 0 0.346961 0.937879<98.537 921.946>
LayerCount: 3
Fore
SplineSet
1293 865 m 1,0,-1
 1120 865 l 1,1,-1
 800 0 l 1,2,-1
 516 0 l 1,3,-1
 835 865 l 1,4,-1
 597 865 l 1,5,-1
 281 0 l 1,6,-1
 -3 0 l 1,7,-1
 309 865 l 1,8,-1
 288 865 l 2,9,10
 177 865 177 865 142 733 c 1,11,-1
 -68 733 l 1,12,13
 0 928 0 928 109 1006.5 c 128,-1,14
 218 1085 218 1085 427 1085 c 2,15,-1
 1377 1085 l 1,16,-1
 1293 865 l 1,0,-1
EndSplineSet
Layer: 2
SplineSet
1293 865 m 1
 1120 865 l 1
 800 0 l 1
 516 0 l 1
 835 865 l 1
 597 865 l 1
 281 0 l 1
 -3 0 l 1
 309 865 l 1
 288 865 l 2
 214 865 165 821 142 733 c 1
 -68 733 l 1
 11 961 121 1085 427 1085 c 2
 1377 1085 l 1
 1293 865 l 1
EndSplineSet
EndChar

StartChar: integral
Encoding: 347 8747 156
Width: 1236
VWidth: 3555
Flags: W
HStem: -370 129<-24.5 182.465> 1422 125<927.12 1133.5>
VStem: -164 266<-239.992 -120.797> 1003 277<1273.64 1417.77>
DStem2: 377 417 708 672 0.215753 0.976448<-282.676 676.681>
LayerCount: 3
Fore
SplineSet
102 -226 m 259,0,1
 102 -241 102 -241 132 -241 c 259,2,3
 232 -241 232 -241 377 417 c 256,4,5
 385 446 385 446 398 497 c 128,-1,6
 411 548 411 548 417 569 c 256,7,8
 536 1089 536 1089 690 1318 c 256,9,10
 844 1547 844 1547 1078 1547 c 259,11,12
 1167 1547 1167 1547 1223.5 1508.5 c 128,-1,13
 1280 1470 1280 1470 1280 1394 c 259,14,15
 1280 1317 1280 1317 1229.5 1266 c 128,-1,16
 1179 1215 1179 1215 1102 1215 c 259,17,18
 994 1215 994 1215 994 1319 c 259,19,20
 994 1331 994 1331 998.5 1356.5 c 128,-1,21
 1003 1382 1003 1382 1003 1393 c 259,22,23
 1003 1422 1003 1422 977 1422 c 259,24,25
 885 1422 885 1422 729 760 c 256,26,27
 719 709 719 709 708 672 c 256,28,29
 698 630 698 630 643.5 386 c 128,-1,30
 589 142 589 142 484 -43 c 256,31,32
 298 -370 298 -370 31 -370 c 259,33,34
 -57 -370 -57 -370 -110.5 -332.5 c 128,-1,35
 -164 -295 -164 -295 -164 -220 c 259,36,37
 -164 -141 -164 -141 -114.5 -90.5 c 128,-1,38
 -65 -40 -65 -40 14 -40 c 259,39,40
 64 -40 64 -40 91 -67 c 128,-1,41
 118 -94 118 -94 118 -144 c 259,42,43
 118 -158 118 -158 110 -183 c 128,-1,44
 102 -208 102 -208 102 -226 c 259,0,1
EndSplineSet
Layer: 2
SplineSet
102 -226 m 3
 102 -236 112 -241 132 -241 c 3
 198 -241 280 -22 377 417 c 0
 392 470 404 522 417 569 c 0
 496 915 587 1165 690 1318 c 0
 793 1471 923 1547 1078 1547 c 3
 1189 1547 1280 1500 1280 1394 c 3
 1280 1291 1204 1215 1102 1215 c 3
 1030 1215 994 1250 994 1319 c 3
 994 1342 1003 1371 1003 1393 c 3
 1003 1410 998 1422 977 1422 c 3
 916 1422 833 1201 729 760 c 0
 722 725 715 696 708 672 c 0
 628 323 603 166 484 -43 c 0
 359 -263 205 -370 31 -370 c 3
 -80 -370 -164 -325 -164 -220 c 3
 -164 -115 -92 -40 14 -40 c 3
 81 -40 118 -77 118 -144 c 3
 118 -162 113 -174 109 -187 c 0
 105 -199 102 -211 102 -226 c 3
EndSplineSet
EndChar

StartChar: ordfeminine
Encoding: 106 170 157
Width: 1147
VWidth: 3555
Flags: W
HStem: 370 199<106 875> 689 165<339.973 605.672> 1078 130<452.953 757> 1344 163<366.626 773.648>
VStem: 153 254<865.566 1034.27> 789 259<1208.6 1324.07>
DStem2: 641.522 370 883.522 370 0.190809 0.981627<394.577 476.856 581.845 695.859 708.32 851.137 868.386 900.438>
LayerCount: 3
Fore
SplineSet
913 569 m 1,0,-1
 875 370 l 1,1,-1
 68 370 l 1,2,-1
 106 569 l 1,3,-1
 913 569 l 1,0,-1
668 1078 m 2,4,5
 510 1078 510 1078 458.5 1040 c 128,-1,6
 407 1002 407 1002 407 930 c 259,7,8
 407 854 407 854 516 854 c 259,9,10
 604 854 604 854 673 912 c 128,-1,11
 742 970 742 970 753 1049 c 2,12,-1
 757 1078 l 1,13,-1
 668 1078 l 2,4,5
153 880 m 259,14,15
 153 1208 153 1208 648 1208 c 2,16,-1
 783 1208 l 1,17,-1
 787 1234 l 2,18,19
 789 1247 789 1247 789 1259 c 259,20,21
 789 1344 789 1344 628 1344 c 259,22,23
 464 1344 464 1344 292 1272 c 1,24,-1
 326 1455 l 1,25,26
 498 1507 498 1507 672 1507 c 259,27,28
 1048 1507 1048 1507 1048 1251 c 259,29,30
 1048 1211 1048 1211 1038 1160 c 2,31,-1
 950 712 l 1,32,-1
 708 712 l 1,33,-1
 733 838 l 1,34,35
 664 764 664 764 593 726.5 c 128,-1,36
 522 689 522 689 417 689 c 259,37,38
 297 689 297 689 225 735.5 c 128,-1,39
 153 782 153 782 153 880 c 259,14,15
EndSplineSet
Layer: 2
SplineSet
913 569 m 1
 875 370 l 1
 68 370 l 1
 106 569 l 1
 913 569 l 1
668 1078 m 2
 518 1078 407 1059 407 930 c 3
 407 879 443 854 516 854 c 3
 634 854 739 945 753 1049 c 2
 757 1078 l 1
 668 1078 l 2
417 689 m 3
 267 689 153 743 153 880 c 3
 153 1126 369 1208 648 1208 c 2
 783 1208 l 1
 787 1234 l 2
 788 1243 789 1251 789 1259 c 3
 789 1316 735 1344 628 1344 c 3
 519 1344 407 1320 292 1272 c 1
 326 1455 l 1
 432 1487 548 1507 672 1507 c 3
 895 1507 1048 1441 1048 1251 c 3
 1048 1223 1045 1193 1038 1160 c 2
 950 712 l 1
 708 712 l 1
 733 838 l 1
 651 750 568 689 417 689 c 3
EndSplineSet
EndChar

StartChar: ordmasculine
Encoding: 122 186 158
Width: 1147
VWidth: 3555
Flags: W
HStem: 370 199<95 875> 693 172<461.923 681.788> 1340 167<539.859 759.318>
VStem: 142 283<898.705 1212.62> 791 284<990.313 1310.37>
LayerCount: 3
Fore
SplineSet
526 693 m 259,0,1
 349 693 349 693 245.5 768.5 c 128,-1,2
 142 844 142 844 142 998 c 259,3,4
 142 1231 142 1231 293.5 1369 c 128,-1,5
 445 1507 445 1507 686 1507 c 259,6,7
 863 1507 863 1507 969 1428 c 128,-1,8
 1075 1349 1075 1349 1075 1193 c 259,9,10
 1075 962 1075 962 921.5 827.5 c 128,-1,11
 768 693 768 693 526 693 c 259,0,1
913 569 m 1,12,-1
 875 370 l 1,13,-1
 57 370 l 1,14,-1
 95 569 l 1,15,-1
 913 569 l 1,12,-1
654 1340 m 259,16,17
 553 1340 553 1340 489 1245.5 c 128,-1,18
 425 1151 425 1151 425 1017 c 259,19,20
 425 947 425 947 461.5 906 c 128,-1,21
 498 865 498 865 562 865 c 259,22,23
 661 865 661 865 726 954 c 128,-1,24
 791 1043 791 1043 791 1185 c 259,25,26
 791 1340 791 1340 654 1340 c 259,16,17
EndSplineSet
Layer: 2
SplineSet
526 693 m 3
 302 693 142 784 142 998 c 3
 142 1313 370 1507 686 1507 c 259
 911 1507 1075 1409 1075 1193 c 3
 1075 878 842 693 526 693 c 3
913 569 m 1
 875 370 l 1
 57 370 l 1
 95 569 l 1
 913 569 l 1
654 1340 m 3
 505 1340 425 1177 425 1017 c 3
 425 924 476 865 562 865 c 3
 693 865 791 993 791 1185 c 3
 791 1289 746 1340 654 1340 c 3
EndSplineSet
EndChar

StartChar: Omega
Encoding: 221 937 159
Width: 1564
VWidth: 3555
Flags: W
HStem: 0 252<-75 214 1092 1330> 1234 262<652.058 1015.06>
VStem: 59 304<444.564 920.418> 1148 312<706.142 1102.48>
LayerCount: 3
Fore
SplineSet
892 1496 m 259,0,1
 1152 1496 1152 1496 1306 1362.5 c 128,-1,2
 1460 1229 1460 1229 1460 983 c 259,3,4
 1460 734 1460 734 1355 560 c 128,-1,5
 1250 386 1250 386 1092 252 c 1,6,-1
 1377 252 l 1,7,-1
 1330 0 l 1,8,-1
 722 0 l 1,9,-1
 774 288 l 1,10,11
 938 383 938 383 1043 548 c 128,-1,12
 1148 713 1148 713 1148 927 c 259,13,14
 1148 1073 1148 1073 1067 1153.5 c 128,-1,15
 986 1234 986 1234 842 1234 c 259,16,17
 617 1234 617 1234 490 1068 c 128,-1,18
 363 902 363 902 363 660 c 259,19,20
 363 421 363 421 533 288 c 1,21,-1
 479 0 l 1,22,-1
 -122 0 l 1,23,-1
 -75 252 l 1,24,-1
 214 252 l 1,25,26
 59 431 59 431 59 662 c 259,27,28
 59 992 59 992 298.5 1244 c 128,-1,29
 538 1496 538 1496 892 1496 c 259,0,1
EndSplineSet
Layer: 2
SplineSet
892 1496 m 3
 1230 1496 1460 1318 1460 983 c 3
 1460 641 1289 420 1092 252 c 1
 1377 252 l 1
 1330 0 l 1
 722 0 l 1
 774 288 l 1
 975 405 1148 624 1148 927 c 3
 1148 1122 1033 1234 842 1234 c 3
 537 1234 363 976 363 660 c 3
 363 486 428 370 533 288 c 1
 479 0 l 1
 -122 0 l 1
 -75 252 l 1
 214 252 l 1
 111 371 59 508 59 662 c 3
 59 1098 405 1496 892 1496 c 3
EndSplineSet
EndChar

StartChar: ae
Encoding: 166 230 160
Width: 2128
VWidth: 3555
Flags: W
HStem: -28 235<217 563.332 1190.23 1635.57> 458 217<1160 1624.33> 502 210<405 774> 899 238<267.936 789.024 1293.47 1578.48>
VStem: -37 371<230.99 435.596> 1625 351<675 846.325>
LayerCount: 3
Fore
SplineSet
1625 736 m 259,0,1
 1625 813 1625 813 1577.5 856 c 128,-1,2
 1530 899 1530 899 1451 899 c 259,3,4
 1241 899 1241 899 1160 675 c 1,5,-1
 1618 675 l 1,6,7
 1625 714 1625 714 1625 736 c 259,0,1
334 313 m 259,8,9
 334 207 334 207 476 207 c 259,10,11
 585 207 585 207 667 283 c 128,-1,12
 749 359 749 359 767 462 c 2,13,-1
 774 502 l 1,14,-1
 587 502 l 2,15,16
 334 502 334 502 334 313 c 259,8,9
661 1137 m 259,17,18
 958 1137 958 1137 1066 981 c 1,19,20
 1252 1137 1252 1137 1500 1137 c 259,21,22
 1717 1137 1717 1137 1846.5 1023 c 128,-1,23
 1976 909 1976 909 1976 701 c 259,24,25
 1976 637 1976 637 1962 559 c 2,26,-1
 1944 458 l 1,27,-1
 1113 458 l 1,28,29
 1110 435 1110 435 1110 415 c 259,30,31
 1110 207 1110 207 1368 207 c 259,32,33
 1586 207 1586 207 1866 342 c 1,34,-1
 1812 68 l 1,35,36
 1560 -28 1560 -28 1290 -28 c 259,37,38
 929 -28 929 -28 818 177 c 1,39,40
 591 -28 591 -28 319 -28 c 259,41,42
 157 -28 157 -28 60 41 c 128,-1,43
 -37 110 -37 110 -37 250 c 259,44,45
 -37 712 -37 712 601 712 c 2,46,-1
 814 712 l 1,47,-1
 821 740 l 2,48,49
 825 757 825 757 825 775 c 259,50,51
 825 842 825 842 768 870.5 c 128,-1,52
 711 899 711 899 576 899 c 259,53,54
 335 899 335 899 163 811 c 1,55,-1
 217 1085 l 1,56,57
 489 1137 489 1137 661 1137 c 259,17,18
EndSplineSet
Layer: 2
SplineSet
1625 736 m 3xdc
 1625 841 1555 899 1451 899 c 3
 1311 899 1214 824 1160 675 c 1
 1618 675 l 1
 1622 697 1625 717 1625 736 c 3xdc
334 313 m 3
 334 237 394 207 476 207 c 3
 626 207 744 330 767 462 c 2
 774 502 l 1
 587 502 l 2xbc
 428 502 334 443 334 313 c 3
319 -28 m 3
 115 -28 -37 55 -37 250 c 3
 -37 598 231 712 601 712 c 2
 814 712 l 1xbc
 821 740 l 2
 824 753 825 764 825 775 c 3
 825 884 709 899 576 899 c 3
 406 899 282 872 163 811 c 1
 217 1085 l 1
 358 1112 510 1137 661 1137 c 3
 854 1137 988 1093 1066 981 c 1
 1190 1085 1335 1137 1500 1137 c 3
 1783 1137 1976 984 1976 701 c 3
 1976 657 1971 609 1962 559 c 2
 1944 458 l 1
 1113 458 l 1xdc
 1111 443 1110 429 1110 415 c 3
 1110 276 1196 207 1368 207 c 3
 1513 207 1679 252 1866 342 c 1
 1812 68 l 1
 1657 9 1487 -28 1290 -28 c 3
 1049 -28 892 40 818 177 c 1
 666 40 500 -28 319 -28 c 3
EndSplineSet
EndChar

StartChar: oslash
Encoding: 184 248 161
Width: 1395
VWidth: 3555
Flags: W
HStem: -28 252<432.251 707.07> 882 255<544.473 829.032> 1188 20G<1239.36 1279.17>
VStem: -1 373<361 671.819> 879 373<441.304 747>
DStem2: -99 0 -10 -92 0.747894 0.663818<5.49133 237.955 634.465 1190.72 1585.63 1817.63>
LayerCount: 3
Fore
SplineSet
835 832 m 1,0,1
 808 860 808 860 776 871 c 128,-1,2
 744 882 744 882 689 882 c 259,3,4
 554 882 554 882 463 760.5 c 128,-1,5
 372 639 372 639 372 447 c 259,6,7
 372 432 372 432 373 424 c 1,8,-1
 835 832 l 1,0,1
417 285 m 1,9,10
 465 224 465 224 562 224 c 259,11,12
 708 224 708 224 793.5 358 c 128,-1,13
 879 492 879 492 879 668 c 259,14,15
 879 685 879 685 878 693 c 1,16,-1
 417 285 l 1,9,10
512 -28 m 259,17,18
 289 -28 289 -28 170 64 c 1,19,-1
 -10 -92 l 1,20,-1
 -99 0 l 1,21,-1
 71 156 l 1,22,23
 -1 262 -1 262 -1 410 c 259,24,25
 -1 736 -1 736 208.5 936.5 c 128,-1,26
 418 1137 418 1137 740 1137 c 259,27,28
 951 1137 951 1137 1082 1049 c 1,29,-1
 1262 1208 l 1,30,-1
 1347 1109 l 1,31,-1
 1180 960 l 1,32,33
 1252 849 1252 849 1252 696 c 259,34,35
 1252 367 1252 367 1044.5 169.5 c 128,-1,36
 837 -28 837 -28 512 -28 c 259,17,18
EndSplineSet
Layer: 2
SplineSet
835 832 m 1
 799 870 761 882 689 882 c 3
 511 882 372 706 372 447 c 3
 372 439 372 432 373 424 c 1
 835 832 l 1
417 285 m 1
 449 244 497 224 562 224 c 3
 775 224 879 456 879 668 c 3
 879 677 879 685 878 693 c 1
 417 285 l 1
512 -28 m 3
 365 -28 254 -1 170 64 c 1
 -10 -92 l 1
 -99 0 l 1
 71 156 l 1
 23 227 -1 312 -1 410 c 3
 -1 841 303 1137 740 1137 c 3
 880 1137 994 1108 1082 1049 c 1
 1262 1208 l 1
 1347 1109 l 1
 1180 960 l 1
 1228 886 1252 798 1252 696 c 3
 1252 256 946 -28 512 -28 c 3
EndSplineSet
EndChar

StartChar: questiondown
Encoding: 127 191 162
Width: 1178
VWidth: 3555
Flags: W
HStem: -28 259<411.617 751.32> 1127 356<597 882>
VStem: 21 369<255.66 474.513> 526 356<1127 1483> 597 356<1127 1483>
DStem2: 264 693 536 569 0.792624 0.609711<-64.0227 315.269>
LayerCount: 3
Fore
SplineSet
854 977 m 1,0,-1
 842 932 l 2,1,2
 814 825 814 825 758.5 755 c 128,-1,3
 703 685 703 685 611 621 c 2,4,-1
 536 569 l 2,5,6
 464 519 464 519 427 469.5 c 128,-1,7
 390 420 390 420 390 342 c 259,8,9
 390 231 390 231 543 231 c 259,10,11
 713 231 713 231 939 366 c 1,12,-1
 875 54 l 1,13,14
 635 -28 635 -28 451 -28 c 259,15,16
 21 -28 21 -28 21 265 c 259,17,18
 21 421 21 421 87 514.5 c 128,-1,19
 153 608 153 608 264 693 c 2,20,-1
 342 753 l 2,21,22
 418 812 418 812 449 842 c 128,-1,23
 480 872 480 872 491 936 c 2,24,-1
 498 977 l 1,25,-1
 854 977 l 1,0,-1
526 1127 m 1,26,-1
 597 1483 l 1,27,-1
 953 1483 l 1,28,-1
 882 1127 l 1,29,-1
 526 1127 l 1,26,-1
EndSplineSet
Layer: 2
SplineSet
854 977 m 1xe0
 842 932 l 2
 802 781 724 699 611 621 c 2
 536 569 l 2
 457 514 390 456 390 342 c 3
 390 268 441 231 543 231 c 3
 656 231 788 276 939 366 c 1
 875 54 l 1
 714 -1 573 -28 451 -28 c 3
 165 -28 21 70 21 265 c 3
 21 482 126 587 264 693 c 2
 342 753 l 2
 428 820 475 843 491 936 c 2
 498 977 l 1
 854 977 l 1xe0
526 1127 m 1xf0
 597 1483 l 1
 953 1483 l 1xe8
 882 1127 l 1
 526 1127 l 1xf0
EndSplineSet
EndChar

StartChar: exclamdown
Encoding: 97 161 163
Width: 927
VWidth: 3555
Flags: W
HStem: 0 21G<106 468.902> 1127 356<394 682>
VStem: 106 359<0 359> 323 359<1127 1486> 394 359<1124 1483>
DStem2: 106 0 465 0 0.190809 0.981627<68.5004 579.726 1216.2 1510.71>
LayerCount: 3
Fore
SplineSet
217 569 m 1,0,-1
 349 981 l 1,1,-1
 601 981 l 1,2,-1
 576 569 l 1,3,-1
 465 0 l 1,4,-1
 106 0 l 1,5,-1
 217 569 l 1,0,-1
394 1483 m 1,6,-1
 753 1483 l 1,7,-1
 682 1127 l 1,8,-1
 323 1127 l 1,9,-1
 394 1483 l 1,6,-1
EndSplineSet
Layer: 2
SplineSet
217 569 m 1xe0
 349 981 l 1
 601 981 l 1
 576 569 l 1
 465 0 l 1
 106 0 l 1
 217 569 l 1xe0
394 1483 m 1xc8
 753 1483 l 1xc8
 682 1127 l 1
 323 1127 l 1xd0
 394 1483 l 1xc8
EndSplineSet
EndChar

StartChar: logicalnot
Encoding: 108 172 164
Width: 1701
VWidth: 3555
Flags: W
HStem: 668 231<210 1201>
VStem: 1127 234<285 519>
DStem2: 1127 285 1361 285 0.190809 0.981627<44.6493 390.083>
LayerCount: 3
Fore
SplineSet
1483 899 m 1,0,-1
 1361 285 l 1,1,-1
 1127 285 l 1,2,-1
 1201 668 l 1,3,-1
 163 668 l 1,4,-1
 210 899 l 1,5,-1
 1483 899 l 1,0,-1
EndSplineSet
Layer: 2
SplineSet
1483 899 m 1
 1361 285 l 1
 1127 285 l 1
 1201 668 l 1
 163 668 l 1
 210 899 l 1
 1483 899 l 1
EndSplineSet
EndChar

StartChar: radical
Encoding: 345 8730 165
Width: 1354
VWidth: 3555
Flags: W
HStem: 1554 146<1384 1479>
DStem2: 448 998 227 800 0.170651 -0.985332<157.382 635.683> 547 370 491 -43 0.488054 0.872813<0 1441.91>
LayerCount: 3
Fore
SplineSet
1507 1700 m 1,0,-1
 1479 1554 l 1,1,-1
 1384 1554 l 1,2,-1
 491 -43 l 1,3,-1
 373 -43 l 1,4,-1
 227 800 l 1,5,-1
 78 746 l 1,6,-1
 68 875 l 1,7,-1
 448 998 l 1,8,-1
 547 370 l 1,9,-1
 1299 1700 l 1,10,-1
 1507 1700 l 1,0,-1
EndSplineSet
Layer: 2
SplineSet
1507 1700 m 1
 1479 1554 l 1
 1384 1554 l 1
 491 -43 l 1
 373 -43 l 1
 227 800 l 1
 78 746 l 1
 68 875 l 1
 448 998 l 1
 547 370 l 1
 1299 1700 l 1
 1507 1700 l 1
EndSplineSet
EndChar

StartChar: florin
Encoding: 212 402 166
Width: 1414
VWidth: 3555
Flags: W
HStem: -424 240<-201.57 98.127> 651 234<264 458 896 1137> 1309 238<1090.54 1367.16>
DStem2: 224 68 547 -14 0.36869 0.929552<-231.941 628.203 1007.2 1426.96>
LayerCount: 3
Fore
SplineSet
1387 1252 m 1,0,1
 1309 1309 1309 1309 1234 1309 c 259,2,3
 1133 1309 1133 1309 1076 1253 c 128,-1,4
 1019 1197 1019 1197 963 1055 c 2,5,-1
 896 885 l 1,6,-1
 1184 885 l 1,7,-1
 1137 651 l 1,8,-1
 807 651 l 1,9,-1
 547 -14 l 2,10,11
 386 -424 386 -424 7 -424 c 259,12,13
 -95 -424 -95 -424 -245 -384 c 1,14,-1
 -200 -132 l 1,15,16
 -122 -184 -122 -184 -40 -184 c 259,17,18
 50 -184 50 -184 108.5 -129.5 c 128,-1,19
 167 -75 167 -75 224 68 c 2,20,-1
 458 651 l 1,21,-1
 217 651 l 1,22,-1
 264 885 l 1,23,-1
 547 885 l 1,24,-1
 648 1137 l 2,25,26
 812 1547 812 1547 1180 1547 c 259,27,28
 1330 1547 1330 1547 1436 1503 c 1,29,-1
 1387 1252 l 1,0,1
EndSplineSet
Layer: 2
SplineSet
1387 1252 m 1
 1335 1290 1284 1309 1234 1309 c 3
 1070 1309 1019 1198 963 1055 c 2
 896 885 l 1
 1184 885 l 1
 1137 651 l 1
 807 651 l 1
 547 -14 l 2
 440 -288 258 -424 7 -424 c 3
 -87 -424 -166 -405 -245 -384 c 1
 -200 -132 l 1
 -148 -167 -95 -184 -40 -184 c 3
 119 -184 167 -75 224 68 c 2
 458 651 l 1
 217 651 l 1
 264 885 l 1
 547 885 l 1
 648 1137 l 2
 757 1409 931 1547 1180 1547 c 3
 1282 1547 1359 1535 1436 1503 c 1
 1387 1252 l 1
EndSplineSet
EndChar

StartChar: approxequal
Encoding: 348 8776 167
Width: 1701
VWidth: 3555
Flags: W
HStem: 241 235<848.057 1186.39> 384 227<319.338 652.048> 661 228<938.703 1278.8> 800 228<403.092 739.075>
DStem2: 811 536 700 320 0.914687 -0.404164<-254.991 239.395> 854 968 783 737 0.911108 -0.412168<-211.318 278.545>
LayerCount: 3
Fore
SplineSet
1465 811 m 1,0,1
 1242 661 1242 661 1059 661 c 259,2,3
 949 661 949 661 825 718 c 2,4,-1
 783 737 l 2,5,6
 644 800 644 800 543 800 c 259,7,8
 383 800 383 800 156 641 c 1,9,-1
 207 882 l 1,10,11
 434 1028 434 1028 615 1028 c 259,12,13
 712 1028 712 1028 854 968 c 2,14,-1
 892 952 l 2,15,16
 1040 889 1040 889 1127 889 c 259,17,18
 1291 889 1291 889 1510 1049 c 1,19,-1
 1465 811 l 1,0,1
1384 391 m 1,20,21
 1154 241 1154 241 977 241 c 259,22,23
 880 241 880 241 743 301 c 2,24,-1
 700 320 l 2,25,26
 555 384 555 384 462 384 c 259,27,28
 295 384 295 384 78 224 c 1,29,-1
 125 465 l 1,30,31
 235 534 235 534 333 572.5 c 128,-1,32
 431 611 431 611 533 611 c 259,33,34
 644 611 644 611 771 554 c 2,35,-1
 811 536 l 2,36,37
 943 476 943 476 1049 476 c 259,38,39
 1154 476 1154 476 1242.5 517 c 128,-1,40
 1331 558 1331 558 1429 637 c 1,41,-1
 1384 391 l 1,20,21
EndSplineSet
Layer: 2
SplineSet
1465 811 m 1x20
 1336 724 1216 661 1059 661 c 3x20
 986 661 908 680 825 718 c 2
 783 737 l 2
 688 780 608 800 543 800 c 3
 406 800 271 721 156 641 c 1
 207 882 l 1
 358 979 494 1028 615 1028 c 3x10
 686 1028 764 1006 854 968 c 2
 892 952 l 2
 986 912 1063 889 1127 889 c 3
 1266 889 1395 965 1510 1049 c 1
 1465 811 l 1x20
1384 391 m 1
 1255 307 1120 241 977 241 c 3x80
 909 241 832 262 743 301 c 2
 700 320 l 2
 605 362 527 384 462 384 c 3
 351 384 223 331 78 224 c 1
 125 465 l 1
 251 544 384 611 533 611 c 3x40
 607 611 686 592 771 554 c 2
 811 536 l 2
 908 492 990 476 1049 476 c 259x80
 1200 476 1314 545 1429 637 c 1
 1384 391 l 1
EndSplineSet
EndChar

StartChar: Delta
Encoding: 339 8710 168
Width: 1414
VWidth: 3555
Flags: W
HStem: 0 252<252 899>
DStem2: -177 0 252 252 0.498304 0.867002<432.257 1413.88> 967 1465 743 1102 0.181897 -0.983318<316.199 1180.4>
LayerCount: 3
Fore
SplineSet
252 252 m 1,0,-1
 899 252 l 1,1,-1
 743 1102 l 1,2,-1
 252 252 l 1,0,-1
967 1465 m 1,3,-1
 1238 0 l 1,4,-1
 -177 0 l 1,5,-1
 665 1465 l 1,6,-1
 967 1465 l 1,3,-1
EndSplineSet
Layer: 2
SplineSet
252 252 m 1
 899 252 l 1
 743 1102 l 1
 252 252 l 1
967 1465 m 1
 1238 0 l 1
 -177 0 l 1
 665 1465 l 1
 967 1465 l 1
EndSplineSet
EndChar

